<?xml version="1.0" encoding="utf-8"?>
<!-- Generator: Adobe Illustrator 23.1.1, SVG Export Plug-In . SVG Version: 6.00 Build 0)  -->
<svg version="1.1" id="Layer_1" xmlns="http://www.w3.org/2000/svg" xmlns:xlink="http://www.w3.org/1999/xlink" x="0px" y="0px"
	 viewBox="0 0 77.4 77.4" style="enable-background:new 0 0 77.4 77.4;" xml:space="preserve">
<style type="text/css">
	.st0{fill:#000000;}
</style>
<g>
	<g>
		<g>
			<path class="st0" d="M38.7,77.4C17.3,77.4,0,60,0,38.7S17.3,0,38.7,0s38.7,17.3,38.7,38.7S60,77.4,38.7,77.4z M38.7,1.7
				C18.3,1.7,1.7,18.3,1.7,38.7s16.6,36.9,36.9,36.9S75.6,59,75.6,38.7S59,1.7,38.7,1.7z"/>
		</g>
	</g>
	<path class="st0" d="M55.9,25.2v31.6l-8.8-6.5V13.9L33.3,24L19.5,13.9v38.5h3.5V20.9l8.8,6.5v36.4l13.8-10.1l13.8,10.1V25.2H55.9z
		 M35.4,26.8l8.1-6v29.9l-8.1,6V26.8z"/>
</g>
</svg>
