<?xml version="1.0" encoding="utf-8"?>
<!-- Generator: Adobe Illustrator 23.1.1, SVG Export Plug-In . SVG Version: 6.00 Build 0)  -->
<svg version="1.1" id="Layer_1" xmlns="http://www.w3.org/2000/svg" xmlns:xlink="http://www.w3.org/1999/xlink" x="0px" y="0px"
	 viewBox="0 0 77.4 77.4" style="enable-background:new 0 0 77.4 77.4;" xml:space="preserve">
<style type="text/css">
	.st0{fill:black;}
</style>
<g>
	<g>
		<path class="st0" d="M38.7,77.4C17.4,77.4,0,60.1,0,38.7S17.4,0,38.7,0s38.7,17.4,38.7,38.7S60.1,77.4,38.7,77.4z M38.7,1.7
			c-20.4,0-37,16.6-37,37s16.6,37,37,37s37-16.6,37-37S59.1,1.7,38.7,1.7z"/>
	</g>
	<path class="st0" d="M47.8,31.8l8-5L31.2,15.3V24l0,0v41.8l3.6-2.5V48.6l21-13L47.8,31.8z M34.7,20.9l13.6,6.4L43.9,30l-9.2-4.3
		V20.9z M40.3,32.3l-5.6,3.5v-6.1L40.3,32.3z M34.7,39.9l9.4-5.8l4.2,2l-13.6,8.4V39.9z"/>
</g>
</svg>
