<?xml version="1.0" encoding="utf-8"?>
<!-- Generator: Adobe Illustrator 23.0.4, SVG Export Plug-In . SVG Version: 6.00 Build 0)  -->
<svg version="1.1" id="Layer_1" xmlns="http://www.w3.org/2000/svg" xmlns:xlink="http://www.w3.org/1999/xlink" x="0px" y="0px"
	 viewBox="0 0 56.9 57.7" style="enable-background:new 0 0 56.9 57.7;" xml:space="preserve">
<style type="text/css">
	.st0{fill:#ABBED7;}
	.st1{fill:#CFD0D2;}
	.st2{fill:#BBBDBF;}
	.st3{fill:#B6CE72;}
</style>
<g>
	<path class="st0" d="M48.1,28.4H35c-3.7,0-6.7-3-6.7-6.7V8c0-3.7,3-6.7,6.7-6.7h13.1c3.7,0,6.7,3,6.7,6.7v13.7
		C54.8,25.4,51.8,28.4,48.1,28.4z"/>
</g>
<g>
	<path class="st1" d="M35.2,56.7H8.1c-3.7,0-6.7-3-6.7-6.7V22c0-3.7,3-6.7,6.7-6.7h27.1c3.7,0,6.7,3,6.7,6.7v28
		C41.9,53.7,38.9,56.7,35.2,56.7z"/>
</g>
<g>
	<path class="st2" d="M29,14.8c3.8,0,8.5-0.4,10.8,2.3c2,2.3,1.8,7.4,1.8,10.6v15.5c0,3.4,0.1,8.7-2,11c-2.3,2.5-7,2-10.7,2
		c0,0,6.3-5.9,6.3-11s0-18.8,0-22.9S29,14.8,29,14.8z"/>
</g>
<g>
	<path class="st3" d="M17.8,12.1l-1.5-2.8c-0.5-0.9-1.7-0.9-2.2,0l-1.5,2.8c-0.1,0.2-0.3,0.4-0.5,0.5l-2.7,1.5
		c-0.9,0.5-0.9,1.8,0,2.2l2.7,1.5c0.2,0.1,0.4,0.3,0.5,0.5l1.5,2.8c0.5,0.9,1.7,0.9,2.2,0l1.5-2.8c0.1-0.2,0.3-0.4,0.5-0.5l2.7-1.5
		c0.9-0.5,0.9-1.8,0-2.2l-2.7-1.5C18,12.5,17.9,12.3,17.8,12.1z"/>
</g>
<g>
	<path d="M48.6,0H35.8c-4.6,0-8.3,3.7-8.3,8.3V14h-4.8c-0.2-0.4-0.5-0.8-1-1l-2.8-1.5c0,0,0,0,0-0.1l-1.5-2.8
		c-0.4-0.8-1.2-1.3-2.1-1.3s-1.7,0.5-2.1,1.3l-1.6,2.8L8.7,13c-0.4,0.2-0.8,0.6-1,1C3.4,14.3,0,17.9,0,22.3v27.1
		c0,4.6,3.7,8.3,8.3,8.3h27.1c4.6,0,8.3-3.7,8.3-8.3v-20h4.9c4.6,0,8.3-3.7,8.3-8.3V8.3C56.9,3.7,53.2,0,48.6,0z M9.8,15.1V15l1.9-1
		l0.9-0.5c0.4-0.2,0.7-0.6,1-1l1.5-2.8h0.2l1.5,2.8c0.2,0.4,0.6,0.7,1,1l0.9,0.5l1.9,1v0.1v0.1l-1.9,1.1l-0.9,0.5
		c-0.4,0.2-0.8,0.6-1,1l-1.5,2.8h-0.2l-1.5-2.8c-0.2-0.4-0.6-0.7-1-1l-0.9-0.5L9.8,15.1L9.8,15.1z M41.4,22.8V27v2.3v20
		c0,3.3-2.7,6-6,6H8.3c-3.3,0-6-2.7-6-6v-27c0-3.1,2.4-5.7,5.5-6c0.2,0.4,0.5,0.7,0.9,1l2.8,1.6l1.5,2.8c0.4,0.8,1.2,1.3,2.1,1.3
		c0.9,0,1.7-0.5,2.1-1.3l1.6-2.8l2.8-1.5c0.4-0.2,0.7-0.6,1-1h4.8h2.3H34h1.3c0.3,0,0.7,0,1,0.1c2.3,0.4,4.1,2,4.8,4.2
		c0.2,0.5,0.3,1.1,0.3,1.8C41.4,22.5,41.4,22.8,41.4,22.8z M48.6,27.1h-4.9v-4.2h1.7c2.6,0,4.7-2.1,4.7-4.7v-3.3h-2.3v3.3
		c0,1.3-1,2.3-2.4,2.3h-1.9c-0.8-3.8-4.1-6.6-8.1-6.6h-5.6V8.3c0-3.3,2.7-6,6-6h12.8c3.3,0,6,2.7,6,6v12.8l0,0
		C54.6,24.4,51.9,27.1,48.6,27.1z"/>
	<rect x="37.6" y="8.2" width="2.3" height="3.5"/>
	<rect x="44.4" y="8.2" width="2.3" height="3.5"/>
	<path d="M31,41.2c0,2.3-1.9,4.2-4.2,4.2H16.6c-2.3,0-4.2-1.9-4.2-4.2v-5.1h-2.3v5.1c0,3.6,2.9,6.5,6.5,6.5h10.2
		c3.6,0,6.5-2.9,6.5-6.5v-5.1H31V41.2z"/>
	<rect x="15.3" y="25.9" width="2.3" height="5.3"/>
	<rect x="25.8" y="25.9" width="2.3" height="5.3"/>
</g>
</svg>
