<?xml version="1.0" encoding="utf-8"?>
<svg version="1.1" xmlns="http://www.w3.org/2000/svg" xmlns:xlink="http://www.w3.org/1999/xlink" x="0px" y="0px"
	 viewBox="0 0 700 700" style="enable-background:new 0 0 700 700;" xml:space="preserve">
<style type="text/css">
	.plantitaC0{fill:#007849;}
	.plantitaC1{fill:#009760;}
	.plantitaC2{fill:#B5D0D7;}
	.plantitaC3{fill:#689ED2;}
	.plantitaC4{fill:#4B7BA6;}
	.plantitaC5{fill:#006664;}
	.plantitaC6{fill:#F1B307;}
	.plantitaC7{fill:#505050;}
	.plantitaC8{fill:#946000;}
</style>
<g id="Layer_13">
	<rect id="Rectángulo_293_6_" x="467.3" y="302.2" class="plantitaC0" width="19.9" height="171.1"/>
</g>
<g id="Layer_12">
	<path id="Trazado_305_1_" class="plantitaC1" d="M579.9,347.5c3-4.7,1.7-10.9-3-13.9c0,0,0,0,0,0c-2-1.3-4.5-1.8-6.9-1.5
		c-42,6.1-108.9,11.4-96.1,74.9C482.6,450.8,558,381.4,579.9,347.5z"/>
</g>
<g id="Layer_10">
	<path id="Rectángulo_294_1_" class="plantitaC2" d="M374.3,331.6l5.2-5.2c1.1-1.1,2.8-1.1,3.9,0l19.1,19.1c1.1,1.1,1.1,2.8,0,3.9
		l-5.2,5.2c-1.1,1.1-2.8,1.1-3.9,0l-19.1-19.1C373.2,334.4,373.2,332.6,374.3,331.6z"/>
</g>
<g id="Layer_9">
	<path id="Rectángulo_295_1_" class="plantitaC2" d="M331.1,374.8l5.2-5.2c1.1-1.1,2.8-1.1,3.9,0l19.1,19.1c1.1,1.1,1.1,2.8,0,3.9
		l-5.2,5.2c-1.1,1.1-2.8,1.1-3.9,0l-19.1-19.1C330,377.6,330,375.8,331.1,374.8z"/>
</g>
<g id="Layer_8">
	<path id="Rectángulo_296_1_" class="plantitaC2" d="M352.8,353l5.2-5.2c1.1-1.1,2.8-1.1,3.9,0L401,387c1.1,1.1,1.1,2.8,0,3.9l-5.2,5.2
		c-1.1,1.1-2.8,1.1-3.9,0l-39.1-39.1C351.8,355.8,351.8,354.1,352.8,353z"/>
</g>
<g id="Layer_14">
	<g id="Layer_11">
		<path id="Trazado_306_3_" class="plantitaC3" d="M341.8,293.3c-55-48.9-67.8-111.8-67.8-111.8l3.5-54.2c0.6-9.5-6.6-17.6-16-18.3l0,0l0,0
			l-106-6.9c-9.5-0.6-17.6,6.6-18.3,16c0,0,0,0,0,0L128.6,249c-0.6,9.5,6.6,17.6,16,18.3l106,6.9c0.9,0.1,1.7,0,2.6,0
			c53.1,15.1,49.8,49.9,49.8,49.9L341.8,293.3z"/>
	</g>
	<g id="Layer_7">
		<path id="Rectángulo_297_3_" class="plantitaC4" d="M292.8,329l51.5-45c1.6-1.4,4-1.2,5.5,0.4l20.5,23.5c1.4,1.6,1.2,4-0.4,5.5l-51.5,45
			c-1.6,1.4-4,1.2-5.5-0.4l-20.5-23.5C291,332.8,291.2,330.4,292.8,329z"/>
	</g>
</g>
<g id="Layer_6">
	<path id="Trazado_307_3_" class="plantitaC5" d="M512.1,598h-66.4c-10.6,0-19.1-8.6-19.1-19.1c0,0,0,0,0,0l0,0l-21.1-102.3
		c0-4.3,3.5-7.8,7.8-7.8h128.9c4.3,0,7.8,3.5,7.8,7.8l0,0l-18.7,102.3C531.2,589.4,522.7,598,512.1,598
		C512.1,598,512.1,598,512.1,598L512.1,598z"/>
</g>
<g id="Layer_3">
	<g id="Grupo_266_1_" transform="translate(4191.896 -1517.881)">
		<g id="Grupo_198_1_">
			<circle id="Elipse_23_1_" class="plantitaC6" cx="-3713.4" cy="1755.5" r="70.6"/>
			<path id="Trazado_240_1_" class="plantitaC7" d="M-3713.4,1836.8c-44.9-0.1-81.2-36.4-81.3-81.3c0.1-44.9,36.4-81.2,81.3-81.3
				c44.9,0.1,81.2,36.4,81.3,81.3C-3632.2,1800.4-3668.6,1836.7-3713.4,1836.8z M-3713.4,1695.7c-33,0-59.8,26.8-59.9,59.9
				c0,33,26.8,59.8,59.9,59.9c33,0,59.8-26.8,59.9-59.9C-3653.6,1722.5-3680.4,1695.7-3713.4,1695.7z"/>
		</g>
		<g id="Grupo_200_1_" transform="translate(51.045 30.106)">
			<g id="Grupo_199_1_">
				<path id="Trazado_241_1_" class="plantitaC8" d="M-3764.9,1723.8c-6.1,0.4-11.8,0.8-14.7-2c-1.8-1.7-2.6-4.5-2.6-8.6
					c0-5.4,1.6-9.2,5-11.8c9.3-7.2,28.3-2.3,28.5-2.3l1.3-5.1c-4.6-1.1-9.4-1.7-14.2-1.8v-13.6h-5.3v13.8c-4.9,0.3-9.6,2-13.6,4.8
					c-4.7,3.6-7.1,9-7.1,16c0,5.7,1.4,9.8,4.3,12.5c4.6,4.3,11.8,3.9,18.7,3.4c5.9-0.4,12-0.8,15,2.1c1.9,1.8,2.8,4.8,2.8,9.2
					c0.2,3.5-1.3,6.8-3.9,9c-9.1,7.6-30.4,3.8-30.7,3.7l-1,5.2c4.3,0.7,8.6,1.1,12.9,1.1c0.8,0,1.7,0,2.6-0.1v13h5.3v-13.5
					c5.2-0.7,10.4-2.3,14.2-5.4c3.9-3.2,6-8.1,5.8-13.1c0-6-1.5-10.2-4.4-13C-3750.6,1722.9-3757.9,1723.3-3764.9,1723.8z"/>
			</g>
		</g>
	</g>
</g>
</svg>
