<?xml version="1.0" encoding="utf-8"?>
<!-- Generator: Adobe Illustrator 23.0.4, SVG Export Plug-In . SVG Version: 6.00 Build 0)  -->
<svg version="1.1" id="Layer_1" xmlns="http://www.w3.org/2000/svg" xmlns:xlink="http://www.w3.org/1999/xlink" x="0px" y="0px"
	 viewBox="0 0 49 48.3" style="enable-background:new 0 0 49 48.3;" xml:space="preserve">
<style type="text/css">
	.st0{fill:#A4BE95;}
	.st1{fill:#ABBED7;}
	.st2{fill:#68A0CB;}
</style>
<g>
	<path class="st0" d="M15,29.6h-4.6c-0.9,0-1.6-0.7-1.6-1.6v-4.6c0-0.9,0.7-1.6,1.6-1.6H15c0.9,0,1.6,0.7,1.6,1.6V28
		C16.6,28.9,15.9,29.6,15,29.6z"/>
	<path class="st0" d="M5.8,40.1v7.3H3.6c-1.5,0-2.6-1.2-2.6-2.6v-8c0-2.2,1.8-4,4-4h0.9l3,0h9c1,0,1.8-0.8,1.8-1.8v-5.3
		c0-0.9,0.8-1.7,1.7-1.7h1.4c0.9,0,1.7,0.8,1.7,1.7v10.1c0,2.7-2.2,4.9-4.9,4.9h0v6.8c-0.4,0-13.8,0-13.8,0"/>
	<path class="st1" d="M34,29.6h4.6c0.9,0,1.6-0.7,1.6-1.6v-4.6c0-0.9-0.7-1.6-1.6-1.6H34c-0.9,0-1.6,0.7-1.6,1.6V28
		C32.4,28.9,33.1,29.6,34,29.6z"/>
	<path class="st1" d="M43.2,40.1v7.3h2.2c1.5,0,2.6-1.2,2.6-2.6v-8c0-2.2-1.8-4-4-4h-0.9l-3,0h-9c-1,0-1.8-0.8-1.8-1.8v-5.3
		c0-0.9-0.8-1.7-1.7-1.7h-1.4c-0.9,0-1.7,0.8-1.7,1.7v10.1c0,2.7,2.2,4.9,4.9,4.9h0v6.8c0.4,0,13.8,0,13.8,0"/>
	<path class="st2" d="M26.6,9.9l-1.3-2.4c-0.4-0.7-1.5-0.7-1.9,0l-1.3,2.4c-0.1,0.2-0.2,0.3-0.4,0.4l-2.4,1.3
		c-0.7,0.4-0.7,1.5,0,1.9l2.4,1.3c0.2,0.1,0.3,0.2,0.4,0.4l1.3,2.4c0.4,0.7,1.5,0.7,1.9,0l1.3-2.4c0.1-0.2,0.2-0.3,0.4-0.4l2.4-1.3
		c0.7-0.4,0.7-1.5,0-1.9l-2.4-1.3C26.9,10.2,26.7,10,26.6,9.9z"/>
</g>
<g>
	<path class='palito4' d="M35.9,13.3c2,0,4,0,6,0c1.3,0,1.3-1.9,0-1.9c-2,0-4,0-6,0C34.6,11.4,34.6,13.3,35.9,13.3z"/>
	<path class='palito5' d="M34.9,9.8c1.4-1.4,2.8-2.8,4.3-4.3c0.9-0.9-0.5-2.3-1.4-1.4c-1.4,1.4-2.8,2.8-4.3,4.3C32.6,9.3,34,10.6,34.9,9.8z"/>
	<path class='palito6' d="M31.2,7c0-2,0-4,0-6c0-1.3-1.9-1.3-1.9,0c0,2,0,4,0,6C29.3,8.2,31.2,8.2,31.2,7z"/>
	<path class='palito3' d="M19.5,7c0-2,0-4,0-6c0-1.3-1.9-1.3-1.9,0c0,2,0,4,0,6C17.5,8.2,19.5,8.2,19.5,7z"/>
	<path class='palito2' d="M13.9,9.8c0.9,0.9,2.3-0.5,1.4-1.4C13.8,7,12.4,5.6,11,4.1c-0.9-0.9-2.3,0.5-1.4,1.4C11.1,6.9,12.5,8.3,13.9,9.8z"/>
	<path class='palito1' d="M6.8,13.3c2,0,4,0,6,0c1.3,0,1.3-1.9,0-1.9c-2,0-4,0-6,0C5.6,11.4,5.6,13.3,6.8,13.3z"/>
	<path class='estrella' d="M17.8,12.5c0,0.8,0.4,1.4,1.1,1.8l2.4,1.3l1.3,2.4c0.4,0.7,1,1.1,1.8,1.1l0,0c0.8,0,1.4-0.4,1.8-1.1l1.3-2.4l2.4-1.3
		c0.7-0.4,1.1-1,1.1-1.8s-0.4-1.4-1.1-1.8l-2.4-1.3l0,0L26.2,7c-0.4-0.7-1-1.1-1.8-1.1l0,0c-0.8,0-1.4,0.4-1.8,1.1l-1.3,2.4
		l-2.4,1.3C18.2,11.1,17.8,11.8,17.8,12.5z M19.8,12.4l2.4-1.3c0.3-0.2,0.6-0.5,0.8-0.8L24.3,8c0,0,0-0.1,0.1-0.1s0.1,0,0.1,0.1
		l1.3,2.4c0.2,0.3,0.5,0.6,0.8,0.8l2.4,1.3c0,0,0.1,0,0.1,0.1s0,0.1-0.1,0.1L26.6,14c-0.3,0.2-0.6,0.5-0.8,0.8l-1.3,2.4h-0.2
		L23,14.7c-0.2-0.3-0.5-0.6-0.8-0.8l-2.4-1.3C19.8,12.6,19.8,12.6,19.8,12.4C19.8,12.5,19.8,12.4,19.8,12.4z"/>
	<path class='cuerpos' d="M44,31.8H31.3c-0.5,0-0.8-0.4-0.8-0.8v-5.3c0-1.5-1.2-2.7-2.7-2.7h-1.4c-0.7,0-1.3,0.3-1.8,0.7C24,23.3,23.4,23,22.7,23
		h-1.4c-1.5,0-2.7,1.2-2.7,2.7V31c0,0.5-0.4,0.8-0.8,0.8H4.9C2.2,31.8,0,34,0,36.7v8c0,2,1.6,3.6,3.6,3.6h16.9v-6.8
		c1.7-0.3,3.1-1.3,4-2.7c0.9,1.4,2.3,2.4,4,2.7v6.8h16.9c2,0,3.6-1.6,3.6-3.6v-8C49,34,46.8,31.8,44,31.8z M23.4,35.8
		c0,2.1-1.7,3.9-3.9,3.9h-1v6.7H6.8v-6.3h-2v6.3H3.6c-0.9,0-1.7-0.7-1.7-1.7v-8c0-1.6,1.3-3,3-3h12.8c1.5,0,2.8-1.2,2.8-2.8v-5.3
		c0-0.4,0.3-0.7,0.7-0.7h1.4c0.4,0,0.7,0.3,0.7,0.7L23.4,35.8L23.4,35.8z M47,44.7c0,0.9-0.7,1.7-1.7,1.7h-1.2v-6.3h-1.9v6.3H30.4
		v-6.7h-1c-2.1,0-3.9-1.7-3.9-3.9V25.7c0-0.4,0.3-0.7,0.7-0.7h1.4c0.4,0,0.7,0.3,0.7,0.7V31c0,1.5,1.2,2.8,2.8,2.8H44
		c1.6,0,3,1.3,3,3V44.7z"/>
	<path class='cabezaI' d="M10.4,20.8c-1.4,0-2.6,1.2-2.6,2.6V28c0,1.4,1.2,2.6,2.6,2.6H15c1.4,0,2.6-1.2,2.6-2.6v-4.6c0-1.4-1.2-2.6-2.6-2.6H10.4z
		 M15.6,23.4V28c0,0.4-0.3,0.6-0.6,0.6h-4.6c-0.4,0-0.6-0.3-0.6-0.6v-4.6c0-0.4,0.3-0.6,0.6-0.6H15C15.3,22.7,15.6,23,15.6,23.4z"/>
	<path  class='cabezaD' d="M34,30.5h4.6c1.4,0,2.6-1.2,2.6-2.6v-4.6c0-1.4-1.2-2.6-2.6-2.6H34c-1.4,0-2.6,1.2-2.6,2.6V28C31.4,29.4,32.6,30.5,34,30.5
		z M33.4,23.4c0-0.4,0.3-0.6,0.6-0.6h4.6c0.4,0,0.6,0.3,0.6,0.6V28c0,0.4-0.3,0.6-0.6,0.6H34c-0.4,0-0.6-0.3-0.6-0.6V23.4z"/>
</g>
</svg>
