<?xml version="1.0" encoding="utf-8"?>
<!-- Generator: Adobe Illustrator 23.0.4, SVG Export Plug-In . SVG Version: 6.00 Build 0)  -->
<svg version="1.1" id="Layer_1" xmlns="http://www.w3.org/2000/svg" xmlns:xlink="http://www.w3.org/1999/xlink" x="0px" y="0px"
	 viewBox="0 0 83.5 83.5" style="enable-background:new 0 0 83.5 83.5;" xml:space="preserve">
<style type="text/css">
	.st0{fill:#FFFFFF;}
	.st1{fill:#A4BE95;}
	.st2{fill:#68A0CB;}
	.st3{fill:#010101;}
</style>
<g>
	<path class="st0" d="M69.9,82.2H14.6c-6.6,0-11.9-4-11.9-10.6V22.1h78.1v50.5C80.8,78.6,75.9,82.2,69.9,82.2z"/>
	<path class="st1" d="M80.8,22.1H2.7v-2.9c0-5.5,4.7-9.9,10.6-9.9h57c5.9,0,10.6,4.5,10.6,9.9L80.8,22.1z"/>
	<path class="st2" d="M66.9,74.2H16.6c-2.4,0-4.4-2-4.4-4.4v-31c0-2.4,2-4.4,4.4-4.4h50.3c2.4,0,4.4,2,4.4,4.4v31
		C71.2,72.2,69.3,74.2,66.9,74.2z"/>
	<path class="st2" d="M34.7,14.6h-3.8c-1.5,0-2.7-1.2-2.7-2.7V4.1c0-1.5,1.2-2.7,2.7-2.7h3.8c1.5,0,2.7,1.2,2.7,2.7v7.8
		C37.5,13.4,36.2,14.6,34.7,14.6z"/>
	<path class="st2" d="M52.6,14.6h-3.8c-1.5,0-2.7-1.2-2.7-2.7V4.1c0-1.5,1.2-2.7,2.7-2.7h3.8c1.5,0,2.7,1.2,2.7,2.7v7.8
		C55.3,13.4,54,14.6,52.6,14.6z"/>
	<path class="st2" d="M70.4,14.6h-3.8c-1.5,0-2.7-1.2-2.7-2.7V4.1c0-1.5,1.2-2.7,2.7-2.7h3.8c1.5,0,2.7,1.2,2.7,2.7v7.8
		C73.1,13.4,71.9,14.6,70.4,14.6z"/>
	<path class="st2" d="M16.9,14.6h-3.8c-1.5,0-2.7-1.2-2.7-2.7V4.1c0-1.5,1.2-2.7,2.7-2.7h3.8c1.5,0,2.7,1.2,2.7,2.7v7.8
		C19.6,13.4,18.4,14.6,16.9,14.6z"/>
</g>
<g>
	<path class="st3" d="M29.8,61.9c-2.2,0-4.4-0.9-5.3-1.4l-1.1,4c1.3,0.9,3.9,1.6,6.8,1.6c5.8,0,9.4-3,9.4-7c0-3-2.2-5.1-5-5.6v-0.1
		c2.8-1,4.2-2.9,4.2-5.3c0-3.2-2.7-5.7-7.6-5.7c-3,0-5.7,0.9-7.1,1.7l1.1,3.9c1-0.6,2.9-1.4,4.8-1.4c2.3,0,3.4,1,3.4,2.4
		c0,1.9-2.3,2.6-4.1,2.7h-2.1v3.9h2.2c2.4,0,4.6,1,4.6,3.3C34,60.5,32.6,61.9,29.8,61.9z"/>
	<path class="st3" d="M51.4,66.1c5.9,0,8.7-4.9,8.7-12c0-6.3-2.4-11.8-8.6-11.8c-5.9,0-8.8,5.3-8.8,11.9
		C42.8,60.8,45.4,66.1,51.4,66.1z M51.5,46.4c2.2,0,3.3,2.7,3.3,7.8c0,5.2-1.1,7.9-3.2,7.9c-2.1,0-3.4-2.5-3.3-7.8
		C48.2,48.9,49.5,46.4,51.5,46.4z"/>
	<path class="st3" d="M82.1,18.6c0-0.2,0-0.4-0.1-0.6c-0.1-0.7-0.2-1.3-0.4-2c0,0,0,0,0-0.1c-0.2-0.6-0.4-1.1-0.7-1.7
		c-0.1-0.2-0.2-0.5-0.4-0.7c-0.1-0.2-0.2-0.4-0.4-0.6c-1.4-2-3.4-3.6-5.7-4.5V4.3c0-2.4-1.9-4.3-4.3-4.3h-3.8C63.9,0,62,1.9,62,4.3
		v3.5h-5.3V4.3c0-2.4-1.9-4.3-4.3-4.3h-3.8c-2.4,0-4.3,1.9-4.3,4.3v3.5H39V4.3C39,1.9,37.1,0,34.7,0H31c-2.4,0-4.3,1.9-4.3,4.3v3.5
		h-5.3V4.3c0-2.4-1.9-4.3-4.3-4.3h-3.8C10.9,0,9,1.9,9,4.3v4.2c-2.5,0.9-4.6,2.7-6,5c-1.1,1.7-1.7,3.7-1.7,5.8v0.2v4.3v48.1
		c0,6.4,5.2,11.6,11.6,11.6h57.5c6.4,0,11.6-5.2,11.6-11.6V22.1v-2.8C82.2,19.1,82.1,18.8,82.1,18.6z M65.3,7.8V4.3
		c0-0.6,0.5-1.1,1.1-1.1h3.8c0.6,0,1.1,0.5,1.1,1.1v3.5l0,0v3.3l0,0V12c0,0.6-0.5,1.1-1.1,1.1h-3.8c-0.6,0-1.1-0.5-1.1-1.1v-1V7.8z
		 M47.6,7.8V4.3c0-0.6,0.5-1.1,1.1-1.1h3.8c0.6,0,1.1,0.5,1.1,1.1v3.5V11v1c0,0.6-0.5,1.1-1.1,1.1h-3.8c-0.6,0-1.1-0.5-1.1-1.1v-1
		V7.8z M29.9,7.8V4.3c0-0.6,0.5-1.1,1.1-1.1h3.8c0.6,0,1.1,0.5,1.1,1.1v3.5V11v1c0,0.6-0.5,1.1-1.1,1.1H31c-0.6,0-1.1-0.5-1.1-1.1
		v-1V7.8z M26.7,11v1c0,2.4,1.9,4.3,4.3,4.3h3.8c2.4,0,4.3-1.9,4.3-4.3v-1h5.3v1c0,2.4,1.9,4.3,4.3,4.3h3.8c2.4,0,4.3-1.9,4.3-4.3
		v-1h5.3v1c0,2.4,1.9,4.3,4.3,4.3h3.8c2.3,0,4.2-1.9,4.3-4.2c0.4,0.2,0.7,0.4,1.1,0.7c0,0,0.1,0,0.1,0.1c0.3,0.2,0.5,0.4,0.7,0.6
		c0.4,0.4,0.8,0.8,1.1,1.3c0.9,1.3,1.4,2.9,1.4,4.7v1.1H4.6v-1.1c0-1.5,0.4-2.9,1.1-4.2C6.5,14,7.6,12.9,9,12.2
		c0.1,2.3,2,4.2,4.3,4.2h3.8c2.4,0,4.3-1.9,4.3-4.3v-1L26.7,11L26.7,11z M12.2,7.8V4.3c0-0.6,0.5-1.1,1.1-1.1h3.8
		c0.6,0,1.1,0.5,1.1,1.1v3.5V11v1c0,0.6-0.5,1.1-1.1,1.1h-3.8c-0.6,0-1.1-0.5-1.1-1.1v-0.9l0,0V7.8L12.2,7.8z M78.9,71.9
		c0,4.6-3.8,8.4-8.4,8.4H13c-4.6,0-8.4-3.8-8.4-8.4V23.7h74.3V71.9z"/>
	<path class="st3" d="M16.8,75.6h49.9c3.3,0,6-2.7,6-6V38.8c0-3.3-2.7-6-6-6H16.8c-3.3,0-6,2.7-6,6v30.8
		C10.8,72.9,13.5,75.6,16.8,75.6z M14,38.8c0-1.5,1.2-2.7,2.7-2.7h49.9c1.5,0,2.7,1.2,2.7,2.7v30.8c0,1.5-1.2,2.7-2.7,2.7H16.8
		c-1.5,0-2.7-1.2-2.7-2.7L14,38.8L14,38.8z"/>
</g>
</svg>
