<?xml version="1.0" encoding="utf-8"?>
<!-- Generator: Adobe Illustrator 23.0.4, SVG Export Plug-In . SVG Version: 6.00 Build 0)  -->
<svg version="1.1" id="Layer_1" xmlns="http://www.w3.org/2000/svg" xmlns:xlink="http://www.w3.org/1999/xlink" x="0px" y="0px"
	 viewBox="0 0 59.5 59.6" style="enable-background:new 0 0 59.5 59.6;" xml:space="preserve">
<style type="text/css">
	.st0{fill:#FFFFFF;}
</style>
<g>
	<g>
		<path class="st0" d="M59.5,50.1L58,35.4C57.1,27.8,50.8,22,43.1,22H35v-3.4c0-2.5-2.1-4.6-4.6-4.6h-2.6c-2.5,0-4.6,2.1-4.6,4.6V22
			H3.6c-2,0-3.6,1.6-3.6,3.6v24.8c0,2,1.6,3.6,3.6,3.6h5.9c0.3,3.1,2.8,5.5,6,5.5s5.7-2.4,6-5.5h16.9c0.3,3.1,2.8,5.5,6,5.5
			s5.7-2.4,6-5.5h5.6c1,0,2-0.4,2.7-1.2C59.3,52.2,59.6,51.1,59.5,50.1z M25.6,18.7c0-1.2,1-2.2,2.2-2.2h2.6c1.2,0,2.2,1,2.2,2.2V22
			h-7L25.6,18.7L25.6,18.7z M19.1,54.1c-0.2,1.7-1.7,3.1-3.6,3.1s-3.3-1.3-3.6-3.1c0-0.2-0.1-0.3-0.1-0.5c0-0.2,0-0.5,0.1-0.7
			c0.1-0.4,0.2-0.8,0.5-1.2c0.6-1,1.8-1.7,3.1-1.7s2.4,0.7,3.1,1.7c0.2,0.4,0.4,0.8,0.5,1.2c0,0.2,0.1,0.4,0.1,0.7
			C19.1,53.8,19.1,54,19.1,54.1z M47.9,54.1c-0.2,1.7-1.7,3.1-3.5,3.1s-3.3-1.3-3.5-3.1c0-0.2,0-0.3,0-0.5c0-0.2,0-0.5,0.1-0.7
			c0.1-0.4,0.2-0.8,0.5-1.2c0.6-1,1.8-1.7,3.1-1.7s2.4,0.7,3.1,1.7c0.2,0.4,0.4,0.8,0.5,1.2c0,0.2,0.1,0.4,0.1,0.7
			C47.9,53.8,47.9,54,47.9,54.1z M56.8,51.3c-0.2,0.3-0.6,0.4-0.9,0.4H50c-0.8-2.4-3-4.1-5.7-4.1s-4.9,1.7-5.7,4.1H21.2
			c-0.8-2.4-3-4.1-5.7-4.1s-4.9,1.7-5.7,4.1H3.6c-0.7,0-1.3-0.6-1.3-1.3V25.7c0-0.7,0.6-1.3,1.3-1.3h19.6H35h8.1
			c6.4,0,11.8,4.8,12.5,11.2l1.6,14.7C57.2,50.7,57.1,51.1,56.8,51.3z"/>
		<path class="st0" d="M31.1,7c0-2,0-3.9,0-5.9c0-1.5-2.4-1.5-2.4,0c0,2,0,3.9,0,5.9C28.8,8.6,31.1,8.6,31.1,7z"/>
		<path class="st0" d="M34.2,8.9c1.4-1.4,2.8-2.8,4.2-4.2c1.1-1.1-0.6-2.8-1.7-1.7c-1.4,1.4-2.8,2.8-4.2,4.2
			C31.5,8.4,33.1,10,34.2,8.9z"/>
		<path class="st0" d="M25.3,9.6c1.1,1.1,2.8-0.6,1.7-1.7c-1.4-1.4-2.8-2.8-4.2-4.2c-1.1-1.1-2.8,0.6-1.7,1.7
			C22.5,6.8,23.9,8.2,25.3,9.6z"/>
		<path class="st0" d="M19.6,32.9c-1,0-1.9,0-2.9,0c0-1,0-1.9,0-2.9c0-1.5-2.4-1.5-2.4,0c0,1,0,1.9,0,2.9c-1,0-1.9,0-2.9,0
			c-1.5,0-1.5,2.4,0,2.4c1,0,1.9,0,2.9,0c0,1,0,1.9,0,2.9c0,1.5,2.4,1.5,2.4,0c0-1,0-1.9,0-2.9c1,0,1.9,0,2.9,0
			C21.2,35.3,21.2,32.9,19.6,32.9z"/>
	</g>
</g>
</svg>
