<?xml version="1.0" encoding="utf-8"?>
<!-- Generator: Adobe Illustrator 23.0.4, SVG Export Plug-In . SVG Version: 6.00 Build 0)  -->
<svg version="1.1" id="Layer_1" xmlns="http://www.w3.org/2000/svg" xmlns:xlink="http://www.w3.org/1999/xlink" x="0px" y="0px"
	 viewBox="0 0 85.3 85.3" style="enable-background:new 0 0 85.3 85.3;" xml:space="preserve">
<style type="text/css">
	.st0{fill:#D9E3EA;}
	.st1{fill:#FFFFFF;}
	.st2{fill:#7B959C;}
	.st3{fill:#ABBED7;}
	.st4{fill:#68A0CB;}
	.st5{fill:#A4BE95;}
	.st6{fill:#010101;}
</style>
<g>
	<path class="st0" d="M80.8,82.9H24.6c-1.1,0-2.1-0.9-2.1-2.1v-70c0-1.1,0.9-2.1,2.1-2.1h53c2.9,0,5.2,2.3,5.2,5.2v66.8
		C82.8,82,81.9,82.9,80.8,82.9z"/>
	<polygon class="st1" points="62.2,77 1.8,77 1.8,1.8 47.8,1.8 62.9,17.2 	"/>
	<path class="st2" d="M61.9,17.2H47.7c-0.2,0-0.3-0.1-0.3-0.3V2.7c0-0.2,0.3-0.4,0.5-0.2l14.3,14.3C62.3,16.9,62.2,17.2,61.9,17.2z"
		/>
	<rect x="12.5" y="54.1" class="st3" width="20.3" height="6.9"/>
	<path class="st4" d="M52.3,64.5l-8.2-8.2c-0.1-0.1-0.1-0.2,0-0.3l20.3-20.3l8.5,8.5L52.6,64.5C52.5,64.6,52.4,64.6,52.3,64.5z"/>
	<path class="st5" d="M75.7,38l-5.1-5.1c-0.9-0.9-2.4-0.9-3.4,0l-2.8,2.8l8.5,8.5l2.8-2.8C76.7,40.4,76.7,38.9,75.7,38z"/>
	<path class="st4" d="M25.4,9.7H14.7c-1.2,0-2.2,1-2.2,2.2v10.7c0,1.2,1,2.2,2.2,2.2h10.7c1.2,0,2.2-1,2.2-2.2V11.9
		C27.6,10.7,26.6,9.7,25.4,9.7z"/>
</g>
<g>
	<path class="st6" d="M78.1,6.6H55l-5.8-5.8c-0.4-0.4-0.9-0.6-1.5-0.6C47.4,0.1,47,0,46.6,0H3.8C1.7,0,0,1.7,0,3.8v71.1
		c0,2.1,1.7,3.8,3.8,3.8h16.8v2.8c0,2.1,1.7,3.8,3.8,3.8h57c2.1,0,3.8-1.7,3.8-3.8V13.6C85.2,9.7,82,6.6,78.1,6.6z M24.4,81.9
		c-0.2,0-0.4-0.2-0.4-0.4v-2.8h36.8c2.1,0,3.8-1.7,3.8-3.8V55.5l11.2-11.2l0,0l1.7-1.7c0.8-0.8,1.2-1.8,1.2-2.9s-0.4-2.1-1.2-2.9
		l-5.2-5.2c-0.8-0.8-1.8-1.2-2.9-1.2s-2.1,0.4-2.9,1.2l-1.8,1.8V17.6c0-1-0.4-2-1.2-2.7l-5-4.9h19.7c2,0,3.6,1.6,3.6,3.6v67.9
		c0,0.2-0.2,0.4-0.4,0.4H24.4z M3.4,74.9V3.8c0-0.2,0.2-0.4,0.4-0.4h42v3.2v1.7V10v6.6c0,1.1,0.9,2,2,2h13.4v18.3L42.9,55.2l0,0
		l-0.4,0.1l-3.3,12.3c-0.2,0.6,0,1.3,0.5,1.8l0.8,0.7l12.4-3.3l0,0c0.2-0.1,0.4-0.2,0.6-0.3c0.2-0.1,0.4-0.2,0.5-0.4l7.3-7.3v16
		c0,0.2-0.2,0.4-0.4,0.4H24h-1.7h-1.7H3.8C3.6,75.3,3.4,75.1,3.4,74.9z M58.8,15.2h-9.6V10V8.3V6.6V5.8L50,6.6l1.8,1.7l1.8,1.7
		l1.4,1.4L58.8,15.2z M67.2,35.7l1.7-1.7c0.2-0.2,0.4-0.2,0.5-0.2s0.3,0,0.5,0.2l5.2,5.2l0,0c0.2,0.2,0.2,0.4,0.2,0.5s0,0.3-0.2,0.5
		l-1.7,1.7l-3.1-3.1L67.2,35.7z M71,44.3l-6.4,6.4l-1.7,1.7l-1.7,1.7l-8.6,8.6l0,0l-6.2-6.2l0,0l14.8-14.8l1.7-1.7l1.7-1.7l0.2-0.2
		l1.2,1.2L71,44.3z M44.9,59.8l4.4,4.4l-6,1.6L44.9,59.8z"/>
	<polygon class="st6" points="22.3,30.4 20.6,30.4 12.1,30.4 12.1,33.9 20.6,33.9 22.3,33.9 24,33.9 53.2,33.9 53.2,30.4 24,30.4 	
		"/>
	<polygon class="st6" points="22.3,36.8 20.6,36.8 12.1,36.8 12.1,40.3 20.6,40.3 22.3,40.3 24,40.3 53.2,40.3 53.2,36.8 24,36.8 	
		"/>
	<path class="st6" d="M14.3,26.3h6.3h1.7H24h1.2c2.2,0,3.9-1.8,3.9-3.9V11.5c0-0.5-0.1-1-0.3-1.5c-0.3-0.7-0.7-1.3-1.3-1.7
		c-0.6-0.5-1.4-0.8-2.3-0.8h-3.3h-7.6c-2.2,0-3.9,1.8-3.9,3.9v10.9C10.4,24.5,12.1,26.3,14.3,26.3z M13.8,11.5
		c0-0.3,0.2-0.5,0.5-0.5h6.3h1.7H24h1.2c0.3,0,0.5,0.2,0.5,0.5v10.9c0,0.3-0.2,0.5-0.5,0.5H24h-1.7h-1.7h-6.3
		c-0.3,0-0.5-0.2-0.5-0.5C13.8,22.4,13.8,11.5,13.8,11.5z"/>
	<path class="st6" d="M22.3,63.1H24h10.4V52.7H24h-1.7h-1.7H10.4v10.5h10.2h1.7V63.1z M13.8,56.1h6.8h1.7H24h7v3.6h-7h-1.7h-1.7
		h-6.8C13.8,59.7,13.8,56.1,13.8,56.1z"/>
</g>
</svg>
