<?xml version="1.0" encoding="utf-8"?>
<!-- Generator: Adobe Illustrator 23.0.4, SVG Export Plug-In . SVG Version: 6.00 Build 0)  -->
<svg version="1.1" id="Layer_1" xmlns="http://www.w3.org/2000/svg" xmlns:xlink="http://www.w3.org/1999/xlink" x="0px" y="0px"
	 viewBox="0 0 75.2 75.2" style="enable-background:new 0 0 75.2 75.2;" xml:space="preserve">
<style type="text/css">
	.st0{fill:#FFFFFF;}
	.st1{fill:#4691C3;}
	.st2{fill:#68A0CB;}
	.st3{fill:#0072B9;}
	.st4{fill:#010101;}
</style>
<circle class="st0" cx="37.6" cy="37.6" r="35.6"/>
<g>
	<path class="st1" d="M52.3,23.8l-13.8,6l-3.1,1.4l-6.2,19.5h-5.6c-0.6,0-1.1-0.3-1.5-0.7c-0.4-0.4-0.5-1-0.4-1.6l5.2-31.2
		c0.2-0.9,1-1.6,1.9-1.6h7.8c0.6,0,1.3,0,1.9,0c4.4-0.1,9.4-0.1,12,2.8C51.6,19.6,52.2,21.4,52.3,23.8z"/>
	<path class="st2" d="M57.3,28.9C56.3,38.4,58,47,40.5,45.5c-1.2,0.1-1.9,12.9-3.1,12.9l-7.1-0.4c-0.2,0.9,0-4.5-1-4.5l-0.1-2.8
		L33.5,25c0.2-0.9,1-1.6,1.9-1.6h7.8c2.8,0,6.2-0.2,9.1,0.4C52.4,24.7,57.5,27.7,57.3,28.9z"/>
	<path class="st3" d="M35,25.2h14.5c0,0,0,4.3-1,5.9c-1,1.7-4.9,4.5-7.2,5c-2.3,0.5-9,0.7-9,0.7L35,25.2z"/>
</g>
<g>
	<g>
		<g>
			<path class="st4" d="M37.6,0C16.9,0,0,16.9,0,37.6s16.9,37.6,37.6,37.6s37.6-16.9,37.6-37.6S58.3,0,37.6,0z M37.6,70.8
				c-18.3,0-33.2-14.9-33.2-33.2S19.3,4.4,37.6,4.4s33.2,14.9,33.2,33.2S55.9,70.8,37.6,70.8z"/>
		</g>
	</g>
	<g>
		<g>
			<path class="st4" d="M58.6,25.3c-1.3-1.5-3.1-2.3-5.4-2.7c-0.1-2.7-0.8-4.7-2.1-6.1c-2-2.2-5-3-9-3.1H26.6c-1.1,0-2,0.8-2.2,1.8
				l-5.9,35.2c-0.2,1.3,0.8,2.6,2.2,2.6H27l-1,6.3c-0.2,1.3,0.8,2.5,2.2,2.5H37c1.1,0,2-0.8,2.2-1.8l1.9-11.5
				c8.9,0,18.1-0.7,19.5-13.4C61.1,30.4,60.5,27.3,58.6,25.3z M27.7,48.6h-4.3l5.1-30.8h14.1c2.3,0.1,4.4,0.6,5.3,1.7
				c0.5,0.6,0.9,1.5,1,2.7H34.1c-1.1,0-2,0.8-2.2,1.8C28.9,41.2,30.2,33.2,27.7,48.6z M48.6,26.6c-1.2,7.5-5.6,8.6-14.2,8.7l1.5-8.7
				C35.9,26.6,48.6,26.6,48.6,26.6z M56.2,34.5c-1,9.1-6.2,9.5-17,9.5c-1.1,0-2,0.8-2.2,1.8l-1.9,11.5h-4.4
				c1.2-8.2,0.5-3.3,2.9-17.8c8.8,0,17.6-0.7,19.4-12.6c1.1,0.2,1.9,0.6,2.4,1.2C56.3,29.3,56.6,31.3,56.2,34.5z"/>
		</g>
	</g>
</g>
</svg>
