<?xml version="1.0" encoding="utf-8"?>
<!-- Generator: Adobe Illustrator 23.0.4, SVG Export Plug-In . SVG Version: 6.00 Build 0)  -->
<svg version="1.1" id="Layer_1" xmlns="http://www.w3.org/2000/svg" xmlns:xlink="http://www.w3.org/1999/xlink" x="0px" y="0px"
	 viewBox="0 0 53.3 53.3" style="enable-background:new 0 0 53.3 53.3;" xml:space="preserve">
<style type="text/css">
	.st0{fill:#D9E3EA;}
	.st1{fill:#ABBED7;}
	.st2{fill:#68A0CB;}
</style>
<g>
	<path class="st0" d="M29.8,5.7H2.6c-1.1,0-2,0.9-2,2v25.5c0,0.2,0.2,0.3,0.3,0.1L11,26.6h20.8V7.8C31.8,6.6,30.9,5.7,29.8,5.7z"/>
	<path class="st1" d="M22.7,22.4h27.2c1.1,0,2,0.9,2,2v26.6c0,0.2-0.2,0.3-0.3,0.1l-10.1-7.9H22.7c-1.1,0-2-0.9-2-2V24.5
		C20.7,23.3,21.6,22.4,22.7,22.4z"/>
	<path class="st2" d="M42.7,35.2h2.1c0.6,0,1.1-0.5,1.1-1.1v-2.1c0-0.6-0.5-1.1-1.1-1.1h-2.1c-0.6,0-1.1,0.5-1.1,1.1V34
		C41.6,34.7,42.1,35.2,42.7,35.2z"/>
	<path class="st2" d="M35.3,35.2h2.1c0.6,0,1.1-0.5,1.1-1.1v-2.1c0-0.6-0.5-1.1-1.1-1.1h-2.1c-0.6,0-1.1,0.5-1.1,1.1V34
		C34.1,34.7,34.6,35.2,35.3,35.2z"/>
	<path class="st2" d="M27.8,35.2h2.1c0.6,0,1.1-0.5,1.1-1.1v-2.1c0-0.6-0.5-1.1-1.1-1.1h-2.1c-0.6,0-1.1,0.5-1.1,1.1V34
		C26.6,34.7,27.1,35.2,27.8,35.2z"/>
</g>
<g>
	<path d="M50.4,21.6H33V7.8c0-1.6-1.3-2.9-2.9-2.9H2.9C1.3,4.8,0,6.2,0,7.8v25.5c0,0.4,0.3,0.8,0.7,1c0.1,0.1,0.3,0.1,0.4,0.1
		c0.2,0,0.5-0.1,0.7-0.2l9.8-6.6h8.7v13.8c0,1.6,1.3,2.9,2.9,2.9h18.5l9.8,7.7c0.2,0.2,0.4,0.3,0.7,0.3c0.1,0,0.3,0,0.4-0.1
		c0.4-0.2,0.7-0.6,0.7-1V24.5C53.3,22.9,52,21.6,50.4,21.6z M11,25.7L1.7,32V7.8c0-0.6,0.5-1.2,1.2-1.2h27.2c0.6,0,1.2,0.5,1.2,1.2
		v13.8h-8.1c-1.6,0-2.9,1.3-2.9,2.9v1.3H11z M51.6,49.7l-9.3-7.3H23.2c-0.6,0-1.1-0.5-1.1-1.1V27.5v-1.7v-1.3c0-0.6,0.5-1.1,1.1-1.1
		h8.1H33h17.4c0.6,0,1.1,0.5,1.1,1.1V49.7z"/>
	<path d="M45.4,29.8h-2.1c-1.1,0-2,0.9-2,2V34c0,1.1,0.9,2,2,2h2.1c1.1,0,2-0.9,2-2v-2.1C47.4,30.7,46.5,29.8,45.4,29.8z M45.6,34
		c0,0.1-0.1,0.3-0.3,0.3h-2.1c-0.1,0-0.3-0.1-0.3-0.3v-2.1c0-0.1,0.1-0.3,0.3-0.3h2.1c0.1,0,0.3,0.1,0.3,0.3V34z"/>
	<path d="M37.9,29.8h-2.1c-1.1,0-2,0.9-2,2V34c0,1.1,0.9,2,2,2h2.1c1.1,0,2-0.9,2-2v-2.1C39.9,30.7,39,29.8,37.9,29.8z M38.1,34
		c0,0.1-0.1,0.3-0.3,0.3h-2.1c-0.1,0-0.3-0.1-0.3-0.3v-2.1c0-0.1,0.1-0.3,0.3-0.3h2.1c0.1,0,0.3,0.1,0.3,0.3V34z"/>
	<path d="M30.4,29.8h-2.1c-1.1,0-2,0.9-2,2V34c0,1.1,0.9,2,2,2h2.1c1.1,0,2-0.9,2-2v-2.1C32.4,30.7,31.5,29.8,30.4,29.8z M30.7,34
		c0,0.1-0.1,0.3-0.3,0.3h-2.1c-0.1,0-0.3-0.1-0.3-0.3v-2.1c0-0.1,0.1-0.3,0.3-0.3h2.1c0.1,0,0.3,0.1,0.3,0.3V34z"/>
	<path d="M17.2,20.7c-0.2-0.1-0.3-0.3-0.5-0.4c-0.2-0.1-0.4-0.1-0.7-0.1c-0.2,0-0.5,0-0.7,0.1c-0.2,0.1-0.4,0.2-0.5,0.4
		c-0.2,0.1-0.3,0.3-0.4,0.5c-0.1,0.2-0.1,0.4-0.1,0.6c0,0.2,0,0.5,0.1,0.7c0.1,0.2,0.2,0.4,0.4,0.5c0.2,0.1,0.3,0.3,0.5,0.3
		c0.2,0.1,0.4,0.1,0.7,0.1c0.2,0,0.5,0,0.7-0.1c0.2-0.1,0.4-0.2,0.5-0.3c0.2-0.1,0.3-0.3,0.4-0.5c0.1-0.2,0.1-0.4,0.1-0.7
		c0-0.2,0-0.4-0.1-0.6C17.5,21,17.3,20.9,17.2,20.7z"/>
	<path d="M20.1,11.2c-0.2-0.4-0.4-0.8-0.8-1.1c-0.3-0.3-0.8-0.5-1.2-0.7c-0.5-0.2-1-0.2-1.6-0.2c-0.4,0-0.8,0-1.2,0.1
		c-0.4,0.1-0.7,0.2-1,0.3c-0.3,0.1-0.6,0.3-0.9,0.5c-0.3,0.2-0.5,0.4-0.8,0.6l0.8,1.2c0.1,0.2,0.3,0.4,0.6,0.4c0.1,0,0.2,0,0.4-0.1
		c0.1-0.1,0.3-0.2,0.4-0.2c0.2-0.1,0.4-0.2,0.6-0.2c0.2-0.1,0.5-0.1,0.9-0.1c0.4,0,0.8,0.1,1.1,0.3c0.3,0.2,0.4,0.5,0.4,0.9
		c0,0.3-0.1,0.6-0.2,0.8c-0.1,0.2-0.3,0.4-0.5,0.6c-0.2,0.2-0.4,0.4-0.7,0.5c-0.2,0.2-0.5,0.3-0.7,0.5c-0.2,0.2-0.4,0.4-0.5,0.6
		c-0.1,0.2-0.2,0.5-0.2,0.7c0,0,0,0.1,0,0.1c0,0,0,0.1,0,0.1l0.2,1.6h2.1l0.3-1.4c0-0.2,0.1-0.4,0.3-0.5c0.2-0.2,0.4-0.3,0.6-0.5
		c0.2-0.2,0.5-0.3,0.7-0.5c0.2-0.2,0.5-0.4,0.7-0.7c0.2-0.3,0.4-0.6,0.5-0.9c0.1-0.4,0.2-0.8,0.2-1.3C20.4,12.1,20.3,11.6,20.1,11.2
		z"/>
</g>
</svg>
