<?xml version="1.0" encoding="utf-8"?>
<!-- Generator: Adobe Illustrator 23.0.4, SVG Export Plug-In . SVG Version: 6.00 Build 0)  -->
<svg version="1.1" xmlns="http://www.w3.org/2000/svg" xmlns:xlink="http://www.w3.org/1999/xlink" x="0px" y="0px"
	 viewBox="0 0 71.6 84.3" style="enable-background:new 0 0 71.6 84.3;" xml:space="preserve">
<style type="text/css">
	.st0{fill:#7C959C;}
	.st1{fill:#231F20;}
	.st2{fill:#DAE3EA;}
	.st3{fill:#7F9FC3;}
	.st4{fill:#ABBED7;}
	.st5{fill:#B6CE72;}
	.st6{fill:#88BA46;}
</style>
<g id="Layer_1">
	<g>
		<g>
			<g>
				<path class="st0" d="M55.5,11.8c0-5.6-4.5-10.1-10.1-10.1h-19c-5.6,0-10.1,4.5-10.1,10.1v15.5h7.4V13.8c0-2.7,2.2-4.9,4.9-4.9
					h14.7c2.7,0,4.9,2.2,4.9,4.9v13.5h7.4V11.8z"/>
			</g>
		</g>
		<g>
			<path class="st2" d="M66.5,82.6H5.1c-1.9,0-3.5-1.5-3.5-3.5V30.8c0-1.9,1.5-3.5,3.5-3.5h61.4c1.9,0,3.5,1.5,3.5,3.5v48.4
				C70,81.1,68.4,82.6,66.5,82.6z"/>
		</g>
		<g>
			<path class="st0" d="M56.5,27.3h10c1.9,0,3.5,1.6,3.5,3.5v48.4c0,1.9-1.6,3.5-3.5,3.5H52.2c0,0,3.9-1.4,3.9-9.1
				S56.5,27.3,56.5,27.3z"/>
		</g>
		<g>
			<path class="st0" d="M49.6,49.4c0-8.6-7.8-15.3-16.7-13.4c-5.2,1.1-9.4,5.3-10.5,10.6c-1.3,6.1,1.6,11.4,6.2,14.3v8.5
				c0,2.7,2.2,5,5,5h4.6c2.7,0,5-2.2,5-5v-8.5C46.9,58.4,49.6,54.3,49.6,49.4z"/>
		</g>
	</g>
</g>
<g id="Layer_2">
	<g>
		<path d="M66.5,25.6h-9.3V11.8C57.2,5.3,51.9,0,45.3,0h-19c-6.5,0-11.8,5.3-11.8,11.8v13.8H5.2c-2.8,0-5.2,2.3-5.2,5.2v48.4
			c0,2.8,2.3,5.2,5.2,5.2h61.3c2.8,0,5.2-2.3,5.2-5.2V30.8C71.6,27.9,69.3,25.6,66.5,25.6z M17.8,11.8c0-4.7,3.8-8.5,8.5-8.5h19
			c4.7,0,8.5,3.8,8.5,8.5v13.8h-4.1V13.8c0-3.6-2.9-6.5-6.5-6.5H28.4c-3.6,0-6.5,2.9-6.5,6.5v11.9h-4.1V11.8z M46.4,13.8v11.9H25.3
			V13.8c0-1.8,1.4-3.2,3.2-3.2h14.7C44.9,10.6,46.4,12,46.4,13.8z M68.3,79.2c0,1-0.8,1.8-1.8,1.8H5.2c-1,0-1.8-0.8-1.8-1.8V30.8
			c0-1,0.8-1.8,1.8-1.8h9.3h10.8h21.1h10.8h9.3c1,0,1.8,0.8,1.8,1.8V79.2z"/>
		<path d="M34.7,47.2c0-0.6,0.5-0.8,1.3-0.8c0.9,0,2.5,0.5,3.7,1.2l1.1-2.3c-1-0.6-2.3-1.1-3.7-1.2v-2.3h-2.2v2.4
			c-2,0.4-3.2,1.6-3.2,3.3c0,4.1,6,2.8,6,4.9c0,0.7-0.6,1-1.5,1c-1.2,0-3-0.7-4.1-1.7l-1.1,2.2c1,0.9,2.5,1.5,3.9,1.7v2.5H37v-2.5
			c2.1-0.2,3.7-1.4,3.7-3.4C40.7,48.1,34.7,49.2,34.7,47.2z"/>
		<path d="M45.5,37.5c-3.6-2.9-8.4-4.1-13-3.1c-5.8,1.2-10.5,6-11.8,11.8c-1.3,6,1.1,11.9,6.1,15.5v7.6c0,3.7,3,6.7,6.7,6.7h4.6
			c3.7,0,6.7-3,6.7-6.7v-7.6c4.1-2.9,6.5-7.5,6.5-12.3C51.2,44.8,49.2,40.4,45.5,37.5z M42.2,59.4l-0.8,0.5v9.4
			c0,1.8-1.5,3.3-3.3,3.3h-4.6c-1.8,0-3.3-1.5-3.3-3.3v-9.4l-0.8-0.5C25,56.6,23,51.9,24,46.9c1-4.6,4.7-8.3,9.2-9.3
			c0.9-0.2,1.7-0.3,2.6-0.3c2.8,0,5.5,0.9,7.6,2.7c2.8,2.3,4.5,5.7,4.5,9.4C47.9,53.5,45.8,57.1,42.2,59.4z"/>
	</g>
</g>
</svg>
