<?xml version="1.0" encoding="utf-8"?>
<!-- Generator: Adobe Illustrator 23.0.4, SVG Export Plug-In . SVG Version: 6.00 Build 0)  -->
<svg version="1.1" id="Layer_1" xmlns="http://www.w3.org/2000/svg" xmlns:xlink="http://www.w3.org/1999/xlink" x="0px" y="0px"
	 viewBox="0 0 59.1 58.1" style="enable-background:new 0 0 59.1 58.1;" xml:space="preserve">
<style type="text/css">
	.st0{fill:#4FA6DC;}
	.st1{fill:#FFFFFF;}
	.st2{fill:#ABBED7;}
	.st3{fill:#1A1A1A;}
</style>
<g>
	<path class="st0" d="M51.5,13.3l3.5-1.9c1.1-0.6,1.1-2.2,0-2.8l-3.5-1.9C51.2,6.4,51,6.2,50.9,6l-1.9-3.5c-0.6-1.1-2.2-1.1-2.8,0
		L44.2,6c-0.1,0.3-0.4,0.5-0.6,0.6L40,8.5c-1.1,0.6-1.1,2.2,0,2.8l3.5,1.9c0.3,0.1,0.5,0.4,0.6,0.6l1.9,3.5c0.6,1.1,2.2,1.1,2.8,0
		l1.9-3.5C51,13.6,51.2,13.4,51.5,13.3z"/>
	<g>
		<path class="st1" d="M46.7,29.1l-6,0.5c-2.1,0.1-4.5,0.3-6.9,0.5l0.7-10c0.1-1.9-1.2-3.6-3-3.7l-1.1-0.1c-1.8-0.1-3,0.7-3.5,3.2
			L23.5,30v0.7c-3,0.2-6.5,0.6-6.5,0.6l-0.2,24.1l21.4,0.3l3.9,0.1c0,0,4.3,0.2,5-2.6c0.8-2.9-0.7-4.3,0.4-6.3s2.1-2.2,1.8-4.5
			c-0.3-2.2-1.7-5.4-0.3-6.8C51.1,33.8,49.2,29.3,46.7,29.1z"/>
		<path class="st2" d="M3.2,31.4c0-1.1,1.2-2,2.7-2h8.3c1.5,0,2.7,0.9,2.7,2v23.3c0,1.1-1.2,2-2.7,2H5.9c-1.5,0-2.7-0.9-2.7-2V31.4z
			"/>
		<g>
			<path class="st3" d="M55.7,7.2l-3.6-2l-1.9-3.5c-0.5-1-1.6-1.6-2.7-1.6h0c-1.1,0-2.2,0.6-2.7,1.6l-2,3.6l-3.5,1.9
				c-1,0.5-1.6,1.6-1.6,2.7c0,1.1,0.6,2.2,1.6,2.7l3.6,2l1.9,3.5c0.5,1,1.6,1.6,2.7,1.6h0c1.1,0,2.2-0.6,2.7-1.6l1.9-3.5
				c0,0,0,0,0.1-0.1l3.5-1.9c1-0.5,1.6-1.6,1.6-2.7C57.3,8.8,56.7,7.8,55.7,7.2z M54.3,10.1L50.8,12c-0.5,0.3-0.9,0.7-1.2,1.2
				l-1.9,3.5c0,0-0.2,0-0.3,0l-1.9-3.5c-0.3-0.5-0.7-0.9-1.2-1.2l-3.5-1.9c0,0-0.1,0-0.1-0.1s0.1-0.1,0.1-0.1l3.5-1.9
				c0.5-0.3,0.9-0.7,1.2-1.2l1.9-3.5c0,0,0-0.1,0.1-0.1c0.1,0,0.1,0.1,0.1,0.1l1.9,3.5c0.3,0.5,0.7,0.9,1.2,1.2l3.5,1.9
				c0,0,0.1,0,0.1,0.1S54.3,10.1,54.3,10.1z"/>
			<path class="st3" d="M50.9,31.5c-0.8-2.1-2.4-3.6-4.1-3.7c-0.1,0-0.1,0-0.2,0l-6,0.5c-1.7,0.1-3.5,0.2-5.4,0.4l0.6-8.5
				c0.2-2.7-1.7-5-4.2-5.1l-1.1-0.1c-2.6-0.2-4.3,1.2-4.9,4.2l-3.3,10.4c-1.6,0.1-3.2,0.3-4.2,0.4c-0.7-1.2-2.1-2-3.8-2H5.9
				c-2.3,0-4.2,1.5-4.2,3.4v23.3c0,1.9,1.8,3.4,4.2,3.4h8.3c1.3,0,2.5-0.5,3.3-1.3l20.6,0.3l3.8,0.1c0.1,0,0.2,0,0.4,0
				c2,0,5.3-0.7,6-3.6c0.5-1.7,0.3-2.9,0.1-4c-0.1-1-0.2-1.4,0.1-2c0.3-0.5,0.6-0.9,0.8-1.3c0.7-1,1.4-1.9,1.2-4
				c-0.1-0.7-0.3-1.5-0.4-2.2c-0.3-1.1-0.7-3-0.2-3.4C51.3,35.5,51.6,33.5,50.9,31.5z M5.9,55.3c-0.8,0-1.3-0.4-1.3-0.6V31.4
				c0-0.2,0.5-0.6,1.3-0.6h8.3c0.8,0,1.3,0.4,1.3,0.6v6.2l-0.2,17.4c-0.2,0.2-0.6,0.4-1.2,0.4H5.9z M48.2,34.7c-1.6,1.5-1,3.9-0.5,6
				c0.2,0.7,0.3,1.3,0.4,1.9c0.1,1.1-0.1,1.3-0.7,2.1c-0.3,0.4-0.6,0.9-1,1.5c-0.8,1.4-0.6,2.7-0.5,3.8c0.1,0.9,0.3,1.7-0.1,2.8
				c-0.5,1.7-3.7,1.6-3.7,1.6l-23.7-0.4V32.6c1.3-0.1,3.3-0.3,5.2-0.5c0.7-0.1,1.2-0.6,1.2-1.3v-0.5l3.3-10.3c0,0,0-0.1,0-0.1
				c0.5-2.3,1.4-2.2,2.1-2.2l1.1,0.1c1.1,0.1,1.8,1.1,1.8,2.3l-0.7,10c0,0.4,0.1,0.8,0.4,1c0.3,0.3,0.7,0.4,1,0.4
				c2.4-0.2,4.8-0.3,6.9-0.5l5.9-0.4c0.6,0.1,1.3,0.9,1.7,1.9C48.6,33.1,48.7,34.2,48.2,34.7z"/>
		</g>
	</g>
</g>
</svg>
