<?xml version="1.0" encoding="utf-8"?>
<!-- Generator: Adobe Illustrator 23.0.4, SVG Export Plug-In . SVG Version: 6.00 Build 0)  -->
<svg version="1.1" id="Layer_1" xmlns="http://www.w3.org/2000/svg" xmlns:xlink="http://www.w3.org/1999/xlink" x="0px" y="0px"
	 viewBox="0 0 85.6 57.9" style="enable-background:new 0 0 85.6 57.9;" xml:space="preserve">
<style type="text/css">
	.st0{fill:#ABBED7;}
	.st1{fill:#7F9FC3;}
	.st2{fill:#B6CE72;}
</style>
<g>
	<g>
		<circle class="st0" cx="42.7" cy="28.6" r="27.8"/>
	</g>
	<g>
		<path class="st1" d="M56.3,4.3c8.3,4.8,14,13.8,14,24.1c0,15.3-12.4,27.8-27.8,27.8c-6.1,0-11.8-2-16.4-5.3c2,0.3,4-0.1,6-0.5
			c6.7-1.2,13.3-3.8,17.9-8.8c3.3-3.6,5.2-8.2,6.3-12.9c1.1-4.7,1.3-9.6,1.3-14.5C57.8,10.9,57.9,7.1,56.3,4.3z"/>
	</g>
	<circle class="st2" cx="35" cy="42.9" r="3.5"/>
	<circle class="st2" cx="49.8" cy="15.1" r="3.5"/>
</g>
<g>
	<path d="M41.7,26.4c0-0.5,0.4-0.7,1.1-0.7c0.8,0,2.1,0.4,3.1,1l0.9-1.9c-0.8-0.6-2-0.9-3.2-1.1v-2h-1.8v2.1
		c-1.7,0.3-2.8,1.4-2.8,2.9c0,3.5,5.2,2.4,5.2,4.2c0,0.6-0.5,0.9-1.3,0.9c-1,0-2.5-0.6-3.5-1.5l-1,1.9c0.9,0.7,2.1,1.3,3.4,1.5v2.2
		h1.8v-2.1c1.8-0.2,3.2-1.2,3.2-3C46.9,27.2,41.7,28.1,41.7,26.4z"/>
	<path d="M77.6,14.2h-10C62.5,5.7,53.3,0,42.7,0c-15.6,0-28.4,12.4-29,27.8H8.3c-4.6,0-8.3,3.7-8.3,8.3s3.7,8.3,8.3,8.3h9.9
		c5.1,8.1,14.2,13.5,24.5,13.5c15.6,0,28.3-12.4,28.9-27.8h6c4.4,0,7.9-3.6,7.9-7.9C85.6,17.8,82,14.2,77.6,14.2z M8.3,42.1
		c-3.3,0-6-2.7-6-6c0-3.3,2.7-6,6-6h5.4c0.2,4.3,1.3,8.3,3.1,12H8.3z M42.7,55.6c-8.9,0-16.9-4.4-21.7-11.2h9.5
		c0.5,2,2.3,3.5,4.5,3.5c2.6,0,4.6-2.1,4.6-4.6s-2.1-4.6-4.6-4.6c-2.2,0-4,1.5-4.5,3.5h-11c-2.2-4-3.5-8.5-3.5-13.2
		C16,14.3,28,2.3,42.7,2.3c9.3,0,17.4,4.8,22.2,11.9H54.3c-0.5-2-2.3-3.5-4.5-3.5c-2.6,0-4.6,2.1-4.6,4.6s2.1,4.6,4.6,4.6
		c2.2,0,4-1.5,4.5-3.5h12c2,3.7,3.1,7.9,3.1,12.4C69.3,43.7,57.4,55.6,42.7,55.6z M32.6,43.2c0-0.4,0.1-0.8,0.3-1.2
		c0.4-0.7,1.1-1.2,2-1.2c1.3,0,2.3,1.1,2.3,2.3c0,1.3-1,2.3-2.3,2.3c-0.9,0-1.6-0.5-2-1.2C32.8,44.1,32.6,43.7,32.6,43.2z
		 M52.1,15.4c0,0.4-0.1,0.8-0.3,1.2c-0.4,0.7-1.2,1.2-2,1.2c-1.3,0-2.3-1-2.3-2.3s1.1-2.3,2.3-2.3c0.9,0,1.6,0.5,2,1.2
		C52,14.6,52.1,15,52.1,15.4z M77.6,27.8h-6c-0.2-4-1.1-7.8-2.8-11.2h8.8c3.1,0,5.6,2.5,5.6,5.6C83.3,25.3,80.7,27.8,77.6,27.8z"/>
</g>
</svg>
