<?xml version="1.0" encoding="utf-8"?>
<!-- Generator: Adobe Illustrator 23.0.4, SVG Export Plug-In . SVG Version: 6.00 Build 0)  -->
<svg version="1.1" id="Layer_1" xmlns="http://www.w3.org/2000/svg" xmlns:xlink="http://www.w3.org/1999/xlink" x="0px" y="0px"
	 viewBox="0 0 81.7 55.9" style="enable-background:new 0 0 81.7 55.9;" xml:space="preserve">
<style type="text/css">
	.st0{fill:#B6CE72;}
	.st1{fill:#ABBED7;}
	.st2{fill:#7F9FC3;}
	.st3{fill:#FFFFFF;}
</style>
<path class="st0" d="M68.9,5.9l3.6-3.6c0.4-0.4,1.2-0.4,1.6,0l6,6c0.4,0.4,0.4,1.2,0,1.6l-3.6,3.6L68.9,5.9z"/>
<g>
	<circle class="st1" cx="54.5" cy="28" r="26.8"/>
</g>
<g>
	<path class="st2" d="M54.5,54.8c14.8,0,26.8-12,26.8-26.8S69.3,1.2,54.5,1.2V54.8z"/>
</g>
<g>
	<circle class="st3" cx="54.5" cy="28" r="20.1"/>
</g>
<g>
	<path d="M55.3,26.4v-8.9h-2.2v8.9c0,1.6,1.3,2.8,2.8,2.8h7.2V27H56C55.6,27,55.3,26.7,55.3,26.4z"/>
	<rect x="53.1" y="41.3" width="2.2" height="2.7"/>
	<rect x="53.1" y="12.3" width="2.2" height="2.7"/>
	<rect x="38.3" y="27" width="2.7" height="2.2"/>
	<rect x="67.4" y="27" width="2.7" height="2.2"/>
	<path d="M54.1,7C42.5,7,33.1,16.4,33.1,28c0,11.5,9.4,20.9,20.9,20.9C65.6,48.9,75,39.5,75,28C75,16.4,65.6,7,54.1,7z M54.1,46.7
		c-10.3,0-18.7-8.4-18.7-18.7S43.7,9.2,54.1,9.2c10.3,0,18.7,8.4,18.7,18.7S64.4,46.7,54.1,46.7z"/>
	<path d="M77.5,13.5l2.6-2.6c0.4-0.4,0.7-1,0.7-1.6S80.5,8.2,80,7.7l-5.9-5.9C73.3,1,71.8,1,71,1.8l-2.6,2.6c-4.2-2.6-9.1-4-14.3-4
		C43,0.4,33.4,7,29.1,16.5H10.9V19h17.2c-0.6,1.7-1,3.5-1.3,5.4H0.1v2.5h26.5c0,0.4,0,0.7,0,1.1c0,1.7,0.2,3.3,0.4,4.9H10.9v2.5
		h16.7C30.8,47,41.5,55.5,54.1,55.5c15.2,0,27.5-12.4,27.5-27.5C81.6,22.6,80.1,17.7,77.5,13.5z M72.6,3.4l5.9,5.9l-2.3,2.3
		c-1.7-2.3-3.7-4.3-6-5.9L72.6,3.4z M54.1,53.3c-14,0-25.3-11.4-25.3-25.3S40.1,2.6,54.1,2.6C68,2.6,79.4,14,79.4,28
		S68,53.3,54.1,53.3z"/>
</g>
</svg>
