<?xml version="1.0" encoding="utf-8"?>
<!-- Generator: Adobe Illustrator 23.0.4, SVG Export Plug-In . SVG Version: 6.00 Build 0)  -->
<svg width="250px" version="1.1" id="Layer_1" xmlns="http://www.w3.org/2000/svg" xmlns:xlink="http://www.w3.org/1999/xlink" x="0px" y="0px"
	 viewBox="0 0 61.6 64" style="enable-background:new 0 0 61.6 64;" xml:space="preserve">
<style type="text/css">
	.st0{fill:#58595B;}
	.st1{fill:#404041;}
	.st2{fill:#D2C9B0;}
	.st3{fill:#B6CE72;}
	.st4{fill:#88BA48;}
</style>
<g>
	<g>
		<path class="st0" d="M49.5,63.3H8c-3.8,0-6.8-3-6.8-6.8V14.7c0-3.8,3-6.8,6.8-6.8h41.5c3.8,0,6.8,3,6.8,6.8v41.8
			C56.3,60.3,53.3,63.3,49.5,63.3z"/>
	</g>
	<g>
		<path class="st1" d="M44.1,57.9H13.5c-3.8,0-6.8-3-6.8-6.8V20.2c0-3.8,3-6.8,6.8-6.8h30.7c3.8,0,6.8,3,6.8,6.8v30.9
			C50.9,54.8,47.9,57.9,44.1,57.9z"/>
	</g>
	<g>
		<path class="st2" d="M13,51.1l-1.1-6c-0.3-1.8,1-3.5,2.9-3.5h0.6c1.8,0,3.2,1.7,2.9,3.5l-1.1,6C16.7,53.4,13.4,53.4,13,51.1z"/>
	</g>
	<g>
		<ellipse class="st2" cx="28.8" cy="35.6" rx="6.4" ry="6.5"/>
	</g>
	<g>
		<path class="st3" d="M50.5,22.6L50.5,22.6c-5.5,0-9.9-4.9-9.9-10.9V6.3c0-1.3,0.8-2.4,1.9-2.8l7-2.6c0.7-0.2,1.4-0.2,2.1,0l7,2.6
			c1.2,0.4,1.9,1.6,1.9,2.8v5.4C60.4,17.7,55.9,22.6,50.5,22.6z"/>
	</g>
	<g>
		<path class="st4" d="M58.4,3.5c1.2,0.4,1.9,1.6,1.9,2.8v5.4c0,6-4.4,10.9-9.9,10.9c-1,0-2-0.2-3-0.5c0,0-2.3-1.4-2.3-1.4
			c0.3,0.2,1.5-0.1,1.8-0.2c2.8-0.2,6-0.4,8.1-2.5c1.8-1.7,2.6-4.3,2.7-6.8l-0.1-7.8H58.4z"/>
	</g>
</g>
<g>
	<path d="M11.6,41.6c-0.8,0.9-1.1,2.1-0.9,3.3l1.1,6c0.3,1.6,1.6,2.7,3.2,2.7s2.9-1.1,3.2-2.7l1.1-6c0.2-1.2-0.1-2.4-0.9-3.3
		c-0.8-0.9-1.9-1.5-3.1-1.5h-0.6C13.5,40.1,12.3,40.6,11.6,41.6z M13.3,43c0.3-0.4,0.8-0.6,1.3-0.6h0.6c0.5,0,1,0.2,1.3,0.6
		s0.5,0.9,0.4,1.4l-1.1,6c-0.1,0.7-0.7,0.8-0.9,0.8s-0.8-0.1-0.9-0.8l-1.1-6C12.9,43.9,13,43.4,13.3,43z"/>
	<path d="M28.8,42.8c4.2,0,7.6-3.4,7.6-7.6s-3.4-7.6-7.6-7.6s-7.6,3.4-7.6,7.6S24.6,42.8,28.8,42.8z M28.8,29.9
		c2.9,0,5.3,2.4,5.3,5.3s-2.4,5.3-5.3,5.3s-5.3-2.4-5.3-5.3C23.5,32.3,25.8,29.9,28.8,29.9z"/>
	<path d="M59,2.7l-6.7-2.5c-0.9-0.3-1.9-0.3-2.8,0l-6.7,2.5c-1.6,0.6-2.6,2.1-2.6,3.8H8.3C3.8,6.5,0,10.2,0,14.8v40.8
		C0,60.2,3.8,64,8.3,64h40.8c4.6,0,8.3-3.7,8.3-8.3v-35c2.5-2.1,4.1-5.4,4.1-9.1V6.5C61.6,4.8,60.5,3.3,59,2.7z M40.6,14.3
		c1,4.6,4.7,8.2,9.2,8.8v27.2c0,3.3-2.7,6-6,6h-30c-3.3,0-6-2.7-6-6v-30c0-3.3,2.7-6,6-6C13.8,14.3,40.6,14.3,40.6,14.3z M55.2,55.7
		c0,3.3-2.7,6-6,6H8.3c-3.3,0-6-2.7-6-6V14.8c0-3.3,2.7-6,6-6h31.9v2.7c0,0.1,0,0.2,0,0.4H13.8c-4.6,0-8.3,3.7-8.3,8.3v30
		c0,4.6,3.7,8.3,8.3,8.3h30c4.6,0,8.3-3.7,8.3-8.3V23.1c1.1-0.1,2.1-0.4,3.1-0.9C55.2,22.2,55.2,55.7,55.2,55.7z M59.4,11.6
		c0,2.1-0.7,4.1-1.8,5.7c-0.7,0.8-1.5,1.6-2.4,2.2s-2,1-3.1,1.2c-0.4,0.1-0.8,0.1-1.2,0.1s-0.8,0-1.2-0.1c-3.3-0.5-5.9-3.1-6.8-6.5
		c-0.2-0.7-0.3-1.5-0.3-2.3c0-0.1,0-0.2,0-0.4V8.8V6.5c0-0.7,0.4-1.3,1.1-1.6l6.7-2.5c0.2-0.1,0.4-0.1,0.6-0.1s0.4,0,0.6,0.1
		l6.7,2.5c0.7,0.2,1.1,0.9,1.1,1.6C59.4,6.5,59.4,11.6,59.4,11.6z"/>
	<polygon points="53.2,7.6 51.9,9.5 49.9,12.6 48.5,11.1 47,12.6 46.8,12.7 50.3,16.2 50.7,15.6 53.8,10.9 55.1,8.9 56,7.6 54,6.3 	
		"/>
</g>
</svg>
