<?xml version="1.0" encoding="utf-8"?>
<!-- Generator: Adobe Illustrator 23.0.4, SVG Export Plug-In . SVG Version: 6.00 Build 0)  -->
<svg version="1.1" id="Layer_1" xmlns="http://www.w3.org/2000/svg" xmlns:xlink="http://www.w3.org/1999/xlink" x="0px" y="0px"
	 viewBox="0 0 58.1 64.3" style="enable-background:new 0 0 58.1 64.3;" xml:space="preserve">
<style type="text/css">
	.st0{fill:#ABBED7;}
	.st1{fill:#7F9FC3;}
	.st2{fill:#D9E3EA;}
	.st3{fill:#B6CE72;}
</style>
<g>
	<path class="st0" d="M46.6,63.5V37.2c0-0.6-0.6-1-1.4-1H29.9c-0.7,0-1.4,0.5-1.4,1v26.3H46.6z"/>
</g>
<g>
	<path class="st1" d="M46.6,63.5V37.2c0-0.6-0.6-1-1.4-1h-7.8c0,1.7,0,27.3,0,27.3H46.6z"/>
</g>
<g>
	<path class="st2" d="M19.6,63.5v-8.4c0-0.4-0.3-0.7-0.7-0.7h-7.5c-0.4,0-0.7,0.3-0.7,0.7v8.4H19.6z"/>
</g>
<g>
	<path class="st3" d="M28.6,63.5V46c0-0.5-0.3-0.9-0.7-0.9h-7.6c-0.4,0-0.7,0.4-0.7,0.9v17.4H28.6z"/>
</g>
<path class="st0" d="M35.5,0.8h-4.7c-0.9,0-1.7,0.7-1.7,1.7v4.8C29.2,8.2,30,9,30.9,9h4.7c0.9,0,1.7-0.7,1.7-1.7V2.5
	C37.2,1.6,36.5,0.8,35.5,0.8z"/>
<path class="st0" d="M43.4,23.1L43.4,23.1l-4.5,0c0.3-0.7,0.5-1.6,0.5-2.4v-4.7h0c2.2,0,4-1.8,4-4.1V2.8h-4V11v0H23.5
	c-2.2,0-4,1.8-4,4.1v4.1h4v-4.1h4v9.2c0,1.7-1.3,3-2.9,3h-5v4.1v4.1c2.2,0,4-1.8,4-4.1v0h4c2.2,0,4-1.8,4-4.1h15.9v0v-8.1
	C45.2,19.1,43.4,20.9,43.4,23.1z"/>
<g>
	<path d="M45.3,35.3H29.9c-1.2,0-2.1,0.8-2.1,1.8v7.2h-7.6c-0.8,0-1.4,0.7-1.4,1.7v7.6h-7.4c-0.8,0-1.4,0.7-1.4,1.5v9.1h8.9h1.5h7.5
		h1.5h18.1v-27C47.4,36.1,46.5,35.3,45.3,35.3z M18.9,62.6h-7.4l-0.1-7.5l7.4-0.1V62.6z M27.8,62.6h-7.5V55v-9.1c0-0.1,0-0.1,0-0.1
		h7.4c0,0,0,0.1,0,0.1V62.6z M45.9,62.6H29.3V45.9v-8.8c0-0.1,0.2-0.3,0.6-0.3h15.4c0.4,0,0.6,0.2,0.6,0.3V62.6z"/>
	<path d="M30.9,9.5h4.7c1.3,0,2.3-1.1,2.3-2.4V2.4c0-1.3-1-2.4-2.3-2.4h-4.7c-1.3,0-2.3,1.1-2.3,2.4v4.8C28.6,8.5,29.6,9.5,30.9,9.5
		z M30,2.4c0-0.5,0.4-1,1-1h4.7c0.5,0,1,0.4,1,1v4.8c0,0.5-0.4,1-1,1h-4.7c-0.5,0-1-0.4-1-1V2.4z"/>
	<path d="M47.4,18.3c-2.3,0-4.3,1.8-4.6,4.1h-2.9c0.1-0.6,0.2-1.1,0.2-1.7v-4c2.2-0.3,4-2.3,4-4.7V2h-5.3v8.1H23.6
		c-2.6,0-4.6,2.1-4.6,4.7v4.8h5.3v-4.1h2.6v8.5c0,1.3-1,2.3-2.3,2.3h-5.7v9.5h0.7c2.3,0,4.3-1.8,4.6-4.1h3.4c2.3,0,4.3-1.8,4.6-4.1
		h15.9v-9.5H47.4z M46.7,26.4H30.9v0.7c0,1.9-1.5,3.4-3.3,3.4h-4l-0.7,0v0.7c0,1.6-1.1,3-2.6,3.3v-6.7h4.3c2,0,3.6-1.7,3.6-3.7v-9.9
		h-5.4v4.1h-2.6v-3.4c0-1.9,1.5-3.4,3.3-3.4l16.6,0V3.4h2.6v8.5c0,1.9-1.5,3.4-3.3,3.4h-0.7v5.4c0,0.7-0.1,1.5-0.4,2.2l-0.4,1h6.1
		V23c0-1.6,1.1-3,2.6-3.3V26.4z"/>
</g>
</svg>
