<?xml version="1.0" encoding="utf-8"?>
<!-- Generator: Adobe Illustrator 23.0.4, SVG Export Plug-In . SVG Version: 6.00 Build 0)  -->
<svg version="1.1" xmlns="http://www.w3.org/2000/svg" xmlns:xlink="http://www.w3.org/1999/xlink" x="0px" y="0px"
	 viewBox="0 0 72.4 40.8" style="enable-background:new 0 0 72.4 40.8;" xml:space="preserve">
<style type="text/css">
	.st0{fill:#D0D2D3;}
	.st1{fill:#C9C5BD;}
	.st2{fill:#A8A193;}
	.st3{fill:#69A0CB;}
	.st4{fill:#B6CE72;}
	.st5{fill:#ABBED7;}
	.st6{fill:#FFFFFF;}
	.st7{fill:#4892C3;}
	.st8{fill:#88BA46;}
	.st9{fill:#7F9FC3;}
	.st10{fill:#A5BE95;}
	.st11{fill:#DAE3EA;}
</style>
<g id="Layer_1">
	<path class="st0" d="M39.7,32H11.5c-1.3,0-2.4-1.1-2.4-2.4v-18c0-1.3,1.1-2.4,2.4-2.4h28.2c1.1,0,1.9,0.9,1.9,1.9v18.9
		C41.6,31.1,40.8,32,39.7,32z"/>
	<g>
		<ellipse class="st5" cx="18.7" cy="18.4" rx="7.2" ry="6.9"/>
		<g>
			<path class="st4" d="M55,14.1v-4c0-0.5,0.5-0.8,1-0.6l3.4,2l3.4,2c0.4,0.3,0.4,0.9,0,1.1l-3.4,2l-3.4,2c-0.4,0.3-1-0.1-1-0.6
				V14.1z"/>
		</g>
	</g>
	<path class="st6" d="M69.7,40.1h-39c-1.3,0-2.4-1.1-2.4-2.4V24.4c0-1.3,1.1-2.4,2.4-2.4h39c1.1,0,2,0.9,2,2v14.2
		C71.7,39.2,70.8,40.1,69.7,40.1z"/>
</g>
<!-- <g id="Layer_2">
	<g>
		<path d="M3.6,2.7C3,2.1,2,3.1,2.6,3.8c1,1,2.1,2.1,3.1,3.1c0.7,0.7,1.7-0.4,1-1C5.7,4.8,4.7,3.8,3.6,2.7z"/>
		<path d="M9.4,5.1c0-1.5,0-3,0-4.4c0-0.9-1.4-0.9-1.4,0c0,1.5,0,3,0,4.4C7.9,6,9.4,6.1,9.4,5.1z"/>
		<path d="M5.1,8.6c-1.5,0-3,0-4.4,0c-0.9,0-0.9,1.4,0,1.4c1.5,0,3,0,4.4,0C6,10,6.1,8.6,5.1,8.6z"/>
		<rect x="31.4" y="26.3" width="37.2" height="1.4"/>
		<rect x="31.4" y="30.1" width="37.2" height="1.4"/>
		<path d="M18.1,17c0-0.3,0.3-0.4,0.7-0.4c0.5,0,1.3,0.3,2,0.6l0.6-1.2c-0.5-0.3-1.3-0.6-2-0.6v-1.2h-1.2v1.3
			c-1.1,0.2-1.7,0.8-1.7,1.7c0,2.1,3.3,1.5,3.3,2.5c0,0.3-0.3,0.5-0.8,0.5c-0.6,0-1.6-0.4-2.2-0.9l-0.6,1.2c0.6,0.4,1.3,0.8,2.1,0.9
			v1.3h1.2v-1.3c1.2-0.1,2-0.7,2-1.8C21.4,17.4,18.1,18,18.1,17z"/>
		<path d="M54.2,18.1c0,0.5,0.3,1,0.7,1.3c0.5,0.3,1,0.3,1.5,0l6.9-4c0.5-0.3,0.7-0.8,0.7-1.3s-0.3-1-0.7-1.3l-6.9-4
			c-0.5-0.3-1-0.3-1.5,0c-0.5,0.3-0.7,0.8-0.7,1.3v3.1h-9.4V15h9.4V18.1z M55.8,10.5l6.3,3.7l-6.3,3.7V10.5z"/>
		<path d="M69.7,21.3H42.3V11.2c0-1.4-1.2-2.6-2.6-2.6H11.5c-1.7,0-3,1.4-3,3v18c0,1.7,1.4,3,3,3h16v5c0,1.7,1.4,3.1,3.1,3.1h39
			c1.5,0,2.7-1.2,2.7-2.7V23.9C72.4,22.5,71.2,21.3,69.7,21.3z M27.5,24.4v6.9h-16c-0.9,0-1.7-0.8-1.7-1.7v-18
			c0-0.9,0.8-1.7,1.7-1.7h28.2c0.7,0,1.2,0.6,1.2,1.2v10.1H30.7C28.9,21.3,27.5,22.7,27.5,24.4z M71,38.2c0,0.7-0.6,1.3-1.3,1.3h-39
			c-1,0-1.7-0.8-1.7-1.7v-5v-1.4v-6.9c0-1,0.8-1.7,1.7-1.7h10.3h1.4h27.4c0.7,0,1.3,0.6,1.3,1.3V38.2z"/>
		<path d="M18.7,10.8c-4.4,0-7.9,3.4-7.9,7.6s3.5,7.6,7.9,7.6s7.9-3.4,7.9-7.6S23.1,10.8,18.7,10.8z M18.7,24.5
			c-3.5,0-6.4-2.7-6.4-6.1s2.9-6.1,6.4-6.1s6.4,2.7,6.4,6.1S22.3,24.5,18.7,24.5z"/>
		<path d="M66.1,35.6c-0.2,0.3-0.4,0.7-0.6,0.7c0.1-0.1,0.2-0.2,0.1-0.3l0-0.1l-0.1,0c-0.5-0.1-1.1,0-1.6,0.1c0,0,0,0,0-0.1
			c0-0.1-0.1-0.2-0.3-0.3c-0.2-0.1-0.4-0.1-0.6,0c-0.2,0.1-0.4,0.3-0.5,0.4c-0.4-0.5-1.1-0.8-1.7-0.7l-0.1,0l0,0.1
			c0,0.3-0.3,0.6-0.6,0.6c-0.3,0-0.6-0.2-0.7-0.5l-0.1-0.2l-0.7,0.8c-0.1-0.1-0.2-0.2-0.3-0.5c-0.1-0.3-0.2-0.6-0.6-0.6c0,0,0,0,0,0
			c-0.3,0-0.4,0.3-0.5,0.4c-0.1,0.3-0.2,0.7-0.3,1c-0.1,0.4-0.1,0.9-0.3,0.9c0,0-0.1,0-0.1,0c-0.2-0.2-0.3-0.9-0.4-1.4
			c0-0.1,0-0.3-0.1-0.4c0-0.1,0-0.3,0-0.4c1-0.5,2.3-1.6,2.2-2.1c0-0.1-0.1-0.2-0.2-0.3c-0.4-0.1-1.4,0.3-1.8,0.8
			c-0.3,0.4-0.5,0.9-0.5,1.4c-0.1,0-0.1,0.1-0.2,0.1l0.1,0.3c0,0,0.1,0,0.1,0c0,0.1,0,0.2,0,0.3c0,0.1,0,0.2,0.1,0.4
			c0.1,0.6,0.2,1.3,0.5,1.6c0.1,0,0.1,0.1,0.2,0.1c0,0,0,0,0.1,0c0.4-0.1,0.5-0.6,0.6-1.1c0.1-0.3,0.1-0.7,0.2-1
			c0.1-0.2,0.2-0.3,0.3-0.3c0.1,0,0.2,0.1,0.3,0.5c0.1,0.3,0.2,0.6,0.5,0.7l0.1,0l0.5-0.5c0.2,0.3,0.5,0.5,0.9,0.5
			c0.4,0,0.7-0.4,0.8-0.7c0.6,0,1.2,0.3,1.5,0.7l0.1,0.2l0.1-0.2c0.2-0.3,0.3-0.4,0.5-0.5c0.1,0,0.2,0,0.3,0c0.1,0,0.1,0.1,0.1,0.2
			c0,0,0,0,0,0.1c-0.1,0-0.3,0.1-0.4,0.2l-0.2,0.1l0.2,0.1c0.1,0.1,0.3,0.1,0.5,0c0.1,0,0.1-0.1,0.1-0.2c0.4-0.1,0.9-0.2,1.3-0.2
			c-0.1,0.1-0.1,0.1-0.1,0.2c0,0.1,0.2,0.2,0.3,0.2c0.3,0.1,0.6-0.3,0.9-0.8c0.3-0.4,0.6-1,1-1.1l-0.1-0.2
			C66.8,34.6,66.5,35.2,66.1,35.6z M56.7,33.9c0.3-0.4,1-0.7,1.4-0.7c0,0,0.1,0,0.1,0c0,0,0.1,0,0.1,0c0,0.3-1,1.2-1.9,1.8
			C56.4,34.6,56.5,34.2,56.7,33.9z"/>
	</g>
</g> -->
</svg>
