<?xml version="1.0" encoding="utf-8"?>
<!-- Generator: Adobe Illustrator 23.0.4, SVG Export Plug-In . SVG Version: 6.00 Build 0)  -->
<svg version="1.1" xmlns="http://www.w3.org/2000/svg" xmlns:xlink="http://www.w3.org/1999/xlink" x="0px" y="0px"
	 viewBox="0 0 57.3 56.2" style="enable-background:new 0 0 57.3 56.2;" xml:space="preserve">
<style type="text/css">
	.st0{fill:#B6CE72;}
	.st1{fill:#88BA46;}
	.st2{fill:#056A37;}
	.st3{fill:#279346;}
	.st4{fill:#FFDC8C;}
	.st5{fill:#FECC8A;}
	.st6{fill:#7C959C;}
	.st7{fill:#DAE3EA;}
	.st8{fill:#ABBED7;}
	.st9{fill:#7F9FC3;}
	.st10{fill:#FFFFFF;}
	.st11{fill:#A5BE95;}
	.st12{fill:#69A0CB;}
</style>
<g id="Layer_1">
	<g>
		<g>
			<g>
				<path class="st0" d="M52.3,54.9H5c-2.1,0-3.8-1.7-3.8-3.8V17.6c0-1.8,1.4-3.2,3.2-3.2H53c1.8,0,3.2,1.4,3.2,3.2v33.5
					C56.1,53.2,54.4,54.9,52.3,54.9z"/>
			</g>
			<g>
				<path class="st1" d="M28.6,54.9h24c1.9,0,3.5-1.6,3.5-3.5V17.3c0-1.6-1.3-2.9-2.9-2.9H28.6V54.9z"/>
			</g>
			<g>
				<path class="st2" d="M10.7,14.4L10.7,14.4c0,5.3-4.3,9.5-9.5,9.5h0v-5.4c0-2.3,1.9-4.2,4.2-4.2H10.7z"/>
			</g>
			<g>
				<path class="st3" d="M56.1,18.4c0-2.2-1.8-4-4-4h-5.6v0c0,5.3,4.3,9.5,9.5,9.5V18.4z"/>
			</g>
			<g>
				<path class="st3" d="M10.7,54.9L10.7,54.9c0-5.3-4.3-9.5-9.5-9.5h0v4.8c0,2.7,2.2,4.9,5,4.9L10.7,54.9z"/>
			</g>
			<g>
				<path class="st3" d="M51.4,54.9h-4.8c0-5.3,4.3-9.7,9.5-9.7l0,5C56.1,52.8,54,54.9,51.4,54.9z"/>
			</g>
			<g>
				<path class="st4" d="M1.6,16.1c-0.2,2.3,0.5,4.8,2.1,6.6c3.7,4.2,10.8,4.1,14.6,0c2.9-3.2,3.1-7.7,1.9-11.6
					c-0.6-2-1.6-4-2.8-5.7c-1-1.4-2.3-3.5-4-4.1c-2.2-0.8-1.6,2.5-1.5,3.6c0.3,2.4,1.5,6.1-0.7,8.1c-0.9,0.8-2.1,0.5-2.6-0.5
					c-0.4-0.9-0.5-2.2-1.6-2.7C5.7,9.2,4,11,3.3,11.9C2.3,13.1,1.8,14.6,1.6,16.1z"/>
			</g>
			<g>
				<path class="st5" d="M5.3,21.5c-0.2,0.1-0.3,0.2-0.5,0.4c-2.1,2.6,4.4,3.9,5.8,3.9c2.8,0.1,5.7-1,7.6-3.1
					c2.9-3.2,3.1-7.7,1.9-11.6c-0.6-2-1.6-4-2.8-5.7c-0.6-0.9-1.2-1.8-2-2.6c-1-1-1.5-1.2-2.9-1.1c0,1,0.6,1.9,1.1,2.7
					c1.6,2.5,2.8,5.3,2.9,8.2s-1.4,6-4,7.3c-1.7,0.8-3.7,0.8-5.6,1.1C6.4,21,5.8,21.2,5.3,21.5z"/>
			</g>
		</g>
	</g>
</g>
<g id="Layer_2">
	<g>
		<path d="M27.4,31.8c0-0.6,0.5-0.9,1.4-0.9c1,0,2.6,0.5,3.9,1.3l1.2-2.4c-1.1-0.7-2.5-1.2-4-1.3v-2.5h-2.3v2.6
			c-2.1,0.4-3.5,1.7-3.5,3.6c0,4.4,6.5,3.1,6.5,5.2c0,0.7-0.6,1.1-1.6,1.1c-1.3,0-3.2-0.7-4.4-1.8l-1.2,2.4c1.1,0.9,2.6,1.6,4.2,1.8
			v2.7h2.3v-2.7c2.3-0.3,4-1.5,4-3.7C33.9,32.7,27.4,33.9,27.4,31.8z"/>
		<path d="M52.2,13.3L52.2,13.3h-6.8H21.8c-0.1-0.8-0.3-1.7-0.6-2.5c-0.6-2.1-1.6-4.1-3-6.1c-1.1-1.6-2.5-3.7-4.5-4.5
			c-1.1-0.4-1.9-0.1-2.3,0.2c-1.2,1-0.9,3-0.7,4.3l0,0.3c0.1,0.5,0.1,1,0.2,1.5c0.3,2.1,0.7,4.4-0.6,5.6c-0.1,0.1-0.3,0.2-0.4,0.2
			c-0.2,0-0.3-0.1-0.4-0.3c-0.1-0.2-0.2-0.4-0.2-0.7c-0.3-0.9-0.6-2.1-1.9-2.6C5.9,8.1,4.1,9,2.4,11.2c-1,1.3-1.7,3-1.9,4.8
			c0,0.1,0,0.1,0,0.2C0.2,16.9,0,17.6,0,18.4v0.2v6.5v19.1v5.9v0.1c0,1.8,0.9,3.5,2.2,4.6c1.1,0.9,2.4,1.4,3.8,1.4c0,0,0.1,0,0.1,0
			l4.6-0.1h34.8h6h0c0,0,0.1,0,0.1,0c0.2,0,0.3,0,0.5,0c0.1,0,0.1,0,0.2,0c0.1,0,0.3,0,0.4-0.1c0.1,0,0.1,0,0.2,0
			c0.1,0,0.3-0.1,0.4-0.1c0,0,0.1,0,0.1,0c0.1,0,0.3-0.1,0.4-0.2c0,0,0.1,0,0.1,0c0.1-0.1,0.3-0.1,0.4-0.2c0,0,0.1-0.1,0.1-0.1
			c0.1-0.1,0.2-0.1,0.3-0.2c0.1-0.1,0.3-0.2,0.4-0.3c0,0,0,0,0,0c1.3-1.1,2.1-2.7,2.1-4.5V18.4C57.3,15.6,55,13.3,52.2,13.3z
			 M55,18.4v4.3c-3.7-0.5-6.7-3.5-7.2-7.2h4.3C53.7,15.6,55,16.9,55,18.4z M4.2,12.6c1-1.2,1.9-1.8,2.3-1.8c0.1,0,0.1,0,0.1,0
			c0.3,0.1,0.4,0.5,0.6,1.1c0.1,0.3,0.2,0.7,0.3,1c0.1,0.1,0.2,0.3,0.2,0.4c0.4,0.6,1,1.1,1.8,1.2c0.8,0.2,1.6-0.1,2.3-0.6
			c0.1,0,0.1-0.1,0.2-0.1c0.2-0.2,0.3-0.3,0.5-0.5c1.7-2,1.2-5,0.8-7.2c-0.1-0.5-0.2-0.9-0.2-1.4l0-0.3c-0.1-1-0.2-1.7-0.1-2.1
			c0,0,0,0,0.1,0c1.3,0.5,2.5,2.3,3.5,3.7c1.2,1.7,2,3.5,2.6,5.4c0.1,0.5,0.3,1.1,0.4,1.9c0.1,0.7,0.2,1.5,0.2,2.3
			c0,2.1-0.5,4.4-2.3,6.4c-1.6,1.7-4,2.7-6.5,2.7c0,0-0.1,0-0.1,0c-1.5,0-3-0.4-4.2-1.1c-0.7-0.4-1.4-0.9-2-1.5c0,0-0.1-0.1-0.1-0.1
			c-1.2-1.3-1.8-3.1-1.8-5c0-0.1,0-0.1,0-0.2c0-0.2,0-0.4,0-0.6v0c0.1-0.9,0.4-1.8,0.8-2.6c0,0,0-0.1,0-0.1
			C3.7,13.2,3.9,12.9,4.2,12.6z M5.8,53.8c-0.7,0-1.4-0.2-1.9-0.6c-0.2-0.1-0.3-0.2-0.5-0.4c-0.7-0.7-1.1-1.7-1.1-2.7v-3.5
			C6,47.1,9,50.1,9.5,53.8H5.8z M11.8,53.8c-0.5-5-4.5-9-9.5-9.5V25.1c0.6-0.1,1.3-0.2,1.9-0.4C6,26.1,8.3,27,10.8,27
			c0,0,0.1,0,0.1,0c3.2,0,6.2-1.3,8.2-3.5c1.9-2.1,2.9-4.8,2.9-7.9h23.5c0.5,5,4.5,8.9,9.5,9.5v19.1c-5,0.5-9,4.6-9.5,9.6H11.8z
			 M47.8,53.8c0.5-3.8,3.5-6.8,7.2-7.3l0,3.8c0,1-0.4,1.8-1,2.5c-0.2,0.2-0.3,0.3-0.5,0.4c-0.1,0-0.1,0.1-0.2,0.1
			c-0.1,0.1-0.3,0.2-0.4,0.2c-0.1,0-0.2,0.1-0.4,0.1c-0.1,0-0.2,0.1-0.3,0.1c-0.2,0-0.4,0.1-0.6,0.1c0,0-0.1,0-0.1,0H47.8z"/>
		<ellipse transform="matrix(0.9203 -0.3912 0.3912 0.9203 -9.2687 19.5528)" cx="43.4" cy="32.5" rx="2" ry="2.7"/>
		<path d="M14.6,29.6c-1.2-0.3-2.5,0.8-2.8,2.4c-0.4,1.6,0.3,3.1,1.5,3.4s2.5-0.8,2.8-2.4C16.5,31.4,15.8,29.9,14.6,29.6z"/>
	</g>
</g>
</svg>
