<?xml version="1.0" encoding="utf-8"?>
<!-- Generator: Adobe Illustrator 23.0.4, SVG Export Plug-In . SVG Version: 6.00 Build 0)  -->
<svg version="1.1" xmlns="http://www.w3.org/2000/svg" xmlns:xlink="http://www.w3.org/1999/xlink" x="0px" y="0px"
	 viewBox="0 0 51.2 49.3" style="enable-background:new 0 0 51.2 49.3;" xml:space="preserve">
<style type="text/css">
	.st0{fill:#B6CE72;}
	.st1{fill:#88BA46;}
	.st2{fill:#056A37;}
	.st3{fill:#279346;}
	.st4{fill:#FFDC8C;}
	.st5{fill:#FECC8A;}
	.st6{fill:#7C959C;}
	.st7{fill:#DAE3EA;}
	.st8{fill:#ABBED7;}
	.st9{fill:#7F9FC3;}
	.st10{fill:#FFFFFF;}
	.st11{fill:#A5BE95;}
	.st12{fill:#69A0CB;}
</style>
<g id="Layer_1">
	<g>
		<g>
			<path class="st7" d="M37.2,48.4H6c-2.8,0-5.1-2.3-5.1-5.1V12.1C0.9,9.3,3.1,7,6,7h31.2c2.8,0,5.1,2.3,5.1,5.1v31.2
				C42.3,46.2,40,48.4,37.2,48.4z"/>
		</g>
		<path class="st10" d="M8.2,22.2c-0.8,0-1.5,0.7-1.5,1.5v17.9c0,0.8,0.7,1.5,1.5,1.5h26.6c0.8,0,1.5-0.7,1.5-1.5V23.7
			c0-0.8-0.7-1.5-1.5-1.5H8.2z"/>
		<g>
			<path class="st6" d="M42.3,14.3H0.9v-1.7C0.9,9.6,3.4,7,6.5,7h30.2c3.1,0,5.6,2.5,5.6,5.6L42.3,14.3z"/>
		</g>
		<g>
			<path class="st11" d="M34.9,21.4H8.3c-1.3,0-2.4,1.1-2.4,2.4v5.1h31.3v-5.1C37.2,22.4,36.2,21.4,34.9,21.4z"/>
		</g>
		<g>
			<path class="st12" d="M9.6,9.9V4.2c0-0.8-0.6-1.4-1.4-1.4H6.9c-0.8,0-1.4,0.6-1.4,1.4v5.7c0,0.7,0.6,1.3,1.3,1.3h1.4
				C9,11.3,9.6,10.7,9.6,9.9z"/>
		</g>
		<g>
			<path class="st12" d="M17.6,9.9V4.2c0-0.8-0.6-1.4-1.4-1.4h-1.3c-0.8,0-1.4,0.6-1.4,1.4v5.7c0,0.7,0.6,1.3,1.3,1.3h1.4
				C17,11.3,17.6,10.7,17.6,9.9z"/>
		</g>
		<g>
			<path class="st12" d="M29.5,9.9V4.2c0-0.8-0.6-1.4-1.4-1.4h-1.3c-0.8,0-1.4,0.6-1.4,1.4v5.7c0,0.7,0.6,1.3,1.3,1.3h1.4
				C28.9,11.3,29.5,10.7,29.5,9.9z"/>
		</g>
		<g>
			<circle class="st10" cx="42.3" cy="8.9" r="8.1"/>
		</g>
	</g>
</g>
<g id="Layer_2">
	<g>
		<path d="M8.2,20.5c-1.8,0-3.2,1.4-3.2,3.2v17.9c0,1.8,1.4,3.2,3.2,3.2h26.6c1.8,0,3.2-1.4,3.2-3.2V23.7c0-1.8-1.4-3.2-3.2-3.2H8.2
			z M25.9,35.4h-8.7v-5.7h8.7V35.4z M27.7,29.7h8.7v5.7h-8.7V29.7z M25.9,37.2v5.9h-8.7v-5.9H25.9z M15.5,35.4H6.8v-5.7h8.7V35.4z
			 M17.2,28v-5.7h8.7V28H17.2z M8.2,22.2h7.2V28H6.8v-4.3C6.8,22.9,7.4,22.2,8.2,22.2z M6.8,41.6v-4.4h8.7v5.9H8.2
			C7.4,43.1,6.8,42.4,6.8,41.6z M34.9,43.1h-7.2v-5.9h8.7v4.4C36.4,42.4,35.7,43.1,34.9,43.1z M36.4,23.7V28h-8.7v-5.7h7.2
			C35.7,22.2,36.4,22.9,36.4,23.7z"/>
		<path d="M42.3,0c-4,0-7.3,2.6-8.5,6.2h-3.4V4.3c0-1.3-1.1-2.3-2.3-2.3h-1.1c-1.3,0-2.3,1.1-2.3,2.3v1.9h-6.1V4.3
			c0-1.3-1.1-2.3-2.3-2.3h-1.1c-1.3,0-2.3,1.1-2.3,2.3v1.9h-2.2V4.3c0-1.3-1.1-2.3-2.3-2.3H7C5.7,1.9,4.6,3,4.6,4.3v2.1
			C2,7.1,0,9.5,0,12.4v0.2c0-0.3,0-0.6,0.1-1C0,12,0,12.3,0,12.6v2.5v27.9c0,3.4,2.8,6.2,6.2,6.2h30.7c3.4,0,6.2-2.8,6.2-6.2V17.8
			c4.5-0.4,8.1-4.3,8.1-8.9C51.2,4,47.2,0,42.3,0z M26.2,4.3c0-0.3,0.3-0.6,0.6-0.6H28c0.3,0,0.6,0.3,0.6,0.6v1.9v1.7v2
			c0,0.3-0.2,0.5-0.5,0.5h-1.3c-0.3,0-0.5-0.2-0.5-0.5v-2V6.2V4.3z M14.3,4.3c0-0.3,0.3-0.6,0.6-0.6h1.1c0.3,0,0.6,0.3,0.6,0.6v1.9
			v1.7v2c0,0.3-0.2,0.5-0.5,0.5h-1.3c-0.3,0-0.5-0.2-0.5-0.5v-2V6.2V4.3z M12.6,7.9v2c0,1.3,1,2.3,2.3,2.3h1.3c1.3,0,2.3-1,2.3-2.3
			v-2h6.1v2c0,1.3,1,2.3,2.3,2.3h1.3c1.3,0,2.3-1,2.3-2.3v-2h3.1c0,0.3-0.1,0.7-0.1,1c0,1.6,0.5,3.2,1.2,4.5H1.7v-0.8
			c0-2,1.2-3.6,2.9-4.4v1.6c0,1.3,1,2.3,2.3,2.3h1.3c1.3,0,2.3-1,2.3-2.3v-2H12.6z M2.8,7.3C3,7.2,3.3,7,3.6,6.9
			C3.3,7,3,7.2,2.8,7.3z M3.7,6.8C4,6.7,4.3,6.5,4.6,6.5C4.3,6.5,4,6.7,3.7,6.8z M4.2,8.4C4.1,8.5,4,8.5,3.9,8.6
			C4,8.5,4.1,8.5,4.2,8.4z M3.5,8.8C3.5,8.9,3.4,9,3.3,9C3.4,9,3.5,8.9,3.5,8.8z M3,9.3C2.8,9.5,2.7,9.7,2.5,9.9
			C2.7,9.7,2.8,9.5,3,9.3z M1.7,12.4c0-0.3,0-0.6,0.1-0.8C1.8,11.9,1.7,12.1,1.7,12.4z M1.9,11.3C1.9,11.2,2,11,2,10.8
			C2,11,1.9,11.2,1.9,11.3z M2.2,10.6c0.1-0.2,0.2-0.3,0.2-0.5C2.3,10.2,2.2,10.4,2.2,10.6z M7,3.7h1.1c0.3,0,0.6,0.3,0.6,0.6v1.9
			v1.7v2c0,0.3-0.2,0.5-0.5,0.5H6.9c-0.3,0-0.5-0.2-0.5-0.5V7.9c0,0,0.1,0,0.1,0H6.3V6.2l0,0c0,0,0.1,0,0.1,0H6.3V4.3
			C6.3,3.9,6.6,3.7,7,3.7z M2.7,7.4C2.5,7.6,2.2,7.7,2,8C2.2,7.7,2.5,7.6,2.7,7.4z M2,8C1.7,8.2,1.5,8.5,1.4,8.7
			C1.5,8.5,1.7,8.2,2,8z M0.3,10.6c-0.1,0.3-0.2,0.6-0.2,0.9C0.2,11.2,0.2,10.9,0.3,10.6z M1.3,8.8C1.1,9.1,0.9,9.3,0.8,9.6
			C0.9,9.3,1.1,9.1,1.3,8.8z M0.7,9.7c-0.1,0.3-0.3,0.5-0.4,0.8C0.5,10.2,0.6,9.9,0.7,9.7z M41.4,43.1c0,2.5-2,4.5-4.5,4.5H6.2
			c-2.5,0-4.5-2-4.5-4.5V15.2h34.2c1.4,1.5,3.4,2.4,5.5,2.6V43.1z M43.1,16.1c-0.3,0-0.6,0.1-0.9,0.1c-0.3,0-0.6,0-0.9-0.1
			c-1-0.1-1.9-0.4-2.7-0.9c-0.8-0.4-1.5-1-2-1.7c-1-1.2-1.6-2.8-1.6-4.5c0-0.3,0-0.7,0.1-1c0.1-0.6,0.2-1.2,0.5-1.7
			c1.1-2.6,3.7-4.4,6.6-4.4c4,0,7.2,3.2,7.2,7.2C49.5,12.6,46.7,15.6,43.1,16.1z"/>
		<polygon points="43.2,4.7 41.5,4.7 41.5,9.2 44.1,13.6 45.6,12.8 43.2,8.8 		"/>
	</g>
</g>
</svg>
