<?xml version="1.0" encoding="utf-8"?>
<!-- Generator: Adobe Illustrator 23.0.4, SVG Export Plug-In . SVG Version: 6.00 Build 0)  -->
<svg version="1.1" xmlns="http://www.w3.org/2000/svg" xmlns:xlink="http://www.w3.org/1999/xlink" x="0px" y="0px"
	 viewBox="0 0 61.9 43.7" style="enable-background:new 0 0 61.9 43.7;" xml:space="preserve">
<style type="text/css">
	.st0{fill:#B6CE72;}
	.st1{fill:#88BA46;}
	.st2{fill:#056A37;}
	.st3{fill:#279346;}
	.st4{fill:#FFDC8C;}
	.st5{fill:#FECC8A;}
	.st6{fill:#7C959C;}
	.st7{fill:#DAE3EA;}
	.st8{fill:#ABBED7;}
	.st9{fill:#7F9FC3;}
	.st10{fill:#FFFFFF;}
	.st11{fill:#A5BE95;}
	.st12{fill:#69A0CB;}
</style>
<g id="Layer_1">
	<g>
		<g>
			<path class="st0" d="M42.2,31.9H21.2c-2.2,0-4-1.8-4-4V13.8c0-1.8,1.5-3.3,3.3-3.3h22.4c1.8,0,3.3,1.5,3.3,3.3v14.1
				C46.2,30.1,44.5,31.9,42.2,31.9z"/>
			<path class="st1" d="M41.3,31.9h-9.6V10.5h10.4c2.3,0,4.1,1.8,4.1,4.1V27C46.2,29.7,44,31.9,41.3,31.9z"/>
			<circle class="st0" cx="31.7" cy="21.2" r="6.6"/>
		</g>
		<g>
			<path class="st7" d="M15.7,8.5h5.4c1.1,0,2.1,0.9,2.1,2.1v2.2c0,0.5-0.4,0.9-0.9,0.9h-14v-7V2.6C8.3,1.7,9,1,9.9,1h13.3
				c2.4,0,4.8,0.8,6.7,2.4l5.3,4.2C36,8.1,36.5,9,36.5,9.9v0c0,2.4-2.7,3.9-4.8,2.5L31,12c-2.4-1.7-5.3-2.5-8.2-2.5h0"/>
			<path class="st6" d="M6.6,1h-4C1.7,1,1,1.7,1,2.6v11.8C1,15.3,1.7,16,2.6,16h4c0.9,0,1.6-0.7,1.6-1.6V2.6C8.3,1.7,7.5,1,6.6,1z"
				/>
		</g>
		<g>
			<path class="st7" d="M46.2,35.2h-5.4c-1.1,0-2.1-0.9-2.1-2.1V31c0-0.5,0.4-0.9,0.9-0.9h14v7v3.9c0,0.9-0.7,1.7-1.7,1.7H38.7
				c-2.4,0-4.8-0.8-6.7-2.4l-5.3-4.2c-0.7-0.6-1.1-1.4-1.1-2.4v0c0-2.4,2.7-3.9,4.8-2.5l0.7,0.5c2.4,1.7,5.3,2.5,8.2,2.5h0"/>
			<path class="st6" d="M55.3,42.8h4c0.9,0,1.6-0.7,1.6-1.6V29.4c0-0.9-0.7-1.6-1.6-1.6h-4c-0.9,0-1.6,0.7-1.6,1.6v11.8
				C53.7,42,54.4,42.8,55.3,42.8z"/>
		</g>
	</g>
</g>
<g id="Layer_2">
	<g>
		<path d="M31.2,17.1v1.2c-1,0.2-1.6,0.8-1.6,1.7c0,2,3,1.4,3,2.4c0,0.3-0.3,0.5-0.7,0.5c-0.6,0-1.5-0.3-2.1-0.9l-0.6,1.1
			c0.5,0.4,1.2,0.7,1.9,0.9v1.3h1.1V24c1.1-0.1,1.8-0.7,1.8-1.7c0-2.1-3-1.5-3-2.5c0-0.3,0.3-0.4,0.6-0.4c0.5,0,1.2,0.2,1.8,0.6
			l0.5-1.1c-0.5-0.3-1.2-0.5-1.8-0.6v-1.2H31.2z"/>
		<path d="M59.3,26.8h-4c-1.4,0-2.5,1.1-2.6,2.4H47c0.1-0.4,0.2-0.8,0.2-1.3V13.8c0-2.4-1.9-4.3-4.3-4.3h-5.5
			c-0.1-1.1-0.6-2-1.5-2.7l-5.3-4.2C28.5,0.9,25.9,0,23.2,0H9.9C9.3,0,8.7,0.2,8.3,0.6C7.8,0.2,7.3,0,6.6,0h-4C1.2,0,0,1.2,0,2.6
			v11.8C0,15.8,1.2,17,2.6,17h4c1.4,0,2.5-1.1,2.6-2.4h7v13.4c0,2.7,2.2,5,5,5h3.4c-0.1,0.3-0.1,0.6-0.1,0.9c0,1.2,0.6,2.4,1.5,3.1
			l5.3,4.2c2.1,1.7,4.7,2.6,7.3,2.6H52c0.6,0,1.2-0.2,1.7-0.6c0.4,0.4,1,0.6,1.6,0.6h4c1.4,0,2.6-1.2,2.6-2.6V29.4
			C61.9,27.9,60.8,26.8,59.3,26.8z M6.6,15h-4c-0.4,0-0.7-0.3-0.7-0.7V2.6c0-0.4,0.3-0.7,0.7-0.7h4c0.4,0,0.7,0.3,0.7,0.7v0v11.7
			C7.3,14.7,7,15,6.6,15z M9.2,12.6v-10c0-0.4,0.3-0.7,0.7-0.7h13.3c2.2,0,4.4,0.8,6.1,2.1l5.3,4.2c0.4,0.3,0.6,0.7,0.7,1.2
			c0,0.1,0,0.3,0,0.4c0,0.6-0.3,1.1-0.7,1.5c-0.1,0.1-0.3,0.2-0.4,0.3c-0.7,0.4-1.5,0.3-2.1-0.1L32,11.5l-0.5-0.3
			c-1-0.7-2-1.2-3-1.6c-1.7-0.7-3.4-1-5.2-1.1c-0.6-0.6-1.3-0.9-2.2-0.9h-5.4v1.9h5.4c0.1,0,0.3,0,0.4,0.1c0.4,0.2,0.7,0.5,0.7,1
			v0.9v1.1h-3.6h-2.1H9.2z M21.2,30.9c-1.7,0-3-1.4-3-3V14.5h4.1c1,0,1.8-0.8,1.8-1.8v-1.2h3.9c0.8,0.4,1.6,0.8,2.4,1.3l0.7,0.5
			c0.2,0.2,0.5,0.3,0.8,0.4c-0.1,0-0.1,0-0.2,0c-4.2,0-7.6,3.4-7.6,7.6s3.4,7.6,7.6,7.6s7.6-3.4,7.6-7.6c0-3.5-2.3-6.4-5.5-7.3
			c0.5,0,1-0.2,1.5-0.4c0.8-0.4,1.5-1.2,1.8-2h5.8c1.3,0,2.4,1.1,2.4,2.4v14.1c0,0.5-0.1,0.9-0.3,1.3h-5.3c-1,0-1.8,0.8-1.8,1.7
			h-6.4l-0.6-0.4c-1.2-0.8-2.8-0.9-4.1-0.2c-0.3,0.2-0.7,0.4-0.9,0.7H21.2z M37.3,21.2c0,3.1-2.5,5.6-5.6,5.6
			c-3.1,0-5.6-2.5-5.6-5.6s2.5-5.6,5.6-5.6C34.8,15.6,37.3,18.1,37.3,21.2z M37.8,33.3c-0.7-0.1-1.5-0.2-2.2-0.4h2.2L37.8,33.3
			C37.8,33.2,37.8,33.2,37.8,33.3z M52,41.8H38.7c-2.2,0-4.4-0.8-6.1-2.1l-5.3-4.2c-0.5-0.4-0.8-1-0.8-1.6c0-0.3,0.1-0.6,0.2-0.9
			c0.2-0.4,0.5-0.7,0.9-0.9c0.3-0.2,0.6-0.2,1-0.2c0.4,0,0.8,0.1,1.2,0.4l0.7,0.5c0.1,0.1,0.3,0.2,0.5,0.3c2.3,1.5,5,2.3,7.8,2.4
			c0.6,0.6,1.3,0.9,2.2,0.9h5.4v-1.9h-5.4c-0.6,0-1.1-0.5-1.1-1.1v-0.3v-1.7H46h6.7v10C52.7,41.5,52.4,41.8,52,41.8z M60,41.1
			c0,0.4-0.3,0.7-0.7,0.7h-4c-0.4,0-0.7-0.3-0.7-0.7v0V29.4c0-0.4,0.3-0.7,0.7-0.7h4c0.4,0,0.7,0.3,0.7,0.7V41.1z"/>
	</g>
</g>
</svg>
