<?xml version="1.0" encoding="utf-8"?>
<!-- Generator: Adobe Illustrator 23.0.4, SVG Export Plug-In . SVG Version: 6.00 Build 0)  -->
<svg version="1.1" xmlns="http://www.w3.org/2000/svg" xmlns:xlink="http://www.w3.org/1999/xlink" x="0px" y="0px"
	 viewBox="0 0 50.5 43.2" style="enable-background:new 0 0 50.5 43.2;" xml:space="preserve">
<style type="text/css">
	.st0{fill:#B6CE72;}
	.st1{fill:#88BA46;}
	.st2{fill:#056A37;}
	.st3{fill:#279346;}
	.st4{fill:#FFDC8C;}
	.st5{fill:#FECC8A;}
	.st6{fill:#7C959C;}
	.st7{fill:#DAE3EA;}
	.st8{fill:#ABBED7;}
	.st9{fill:#7F9FC3;}
	.st10{fill:#FFFFFF;}
	.st11{fill:#A5BE95;}
	.st12{fill:#69A0CB;}
</style>
<g id="Layer_1">
	<g>
		<g>
			<g>
				<path class="st0" d="M47.3,16.6c-2-5-7.1-8.2-12.5-8.2l-10.7,0c-1,0-1.9-0.5-2.4-1.4l-3.1-5.4c-0.5-0.8-1.6-0.8-2.1,0l-3.6,6.2
					c-0.5,0.9-1.3,1.6-2.3,2.1c-3,1.6-5.4,4.2-6.7,7.4H1.9c-1.1,0-1.9,0.9-1.9,1.9v3.9c0,0.5,0.2,0.9,0.5,1.3l4,4.5
					c0.4,0.5,0.8,1,1.2,1.6c1.5,2,3.5,3.7,5.9,4.7c0.8,0.4,1.4,1.2,1.4,2.1l0,1.9c0,1.7,1.4,3.1,3.1,3.1H19c1.7,0,3.1-1.4,3.1-3.1
					v-2.9h7.6v2.9c0,1.7,1.4,3.1,3.1,3.1h2.9c1.7,0,3.1-1.4,3.1-3.1v-1.9c0-0.9,0.5-1.7,1.3-2.1C46.6,32.3,50.5,24.6,47.3,16.6z"/>
			</g>
			<g>
				<path class="st1" d="M17.1,42.2H20c1.7,0,3.1-1.4,3.1-3.1v-2.9h7.6v2.9c0,1.7,1.4,3.1,3.1,3.1h2.9c1.7,0,3.1-1.4,3.1-3.1l0-1.9
					c0-0.9,0.5-1.7,1.3-2.1c6.5-2.8,10.4-10.5,7.2-18.5c-2-5-7.1-8.2-12.5-8.2v10.9c0,5.8-4.7,10.5-10.5,10.5h0
					c-3.4,0-6.2,2.8-6.2,6.2v0c0,0.5-1,1-1,1c-0.5,0-1,0.4-1,1C17.1,39.3,17.1,41.5,17.1,42.2z"/>
			</g>
		</g>
	</g>
</g>
<g id="Layer_2">
	<g>
		<path d="M26.7,20.2c0-0.4,0.4-0.6,1-0.6c0.7,0,1.9,0.4,2.8,0.9l0.8-1.8c-0.8-0.5-1.8-0.8-2.9-1V16h-1.7v1.9
			c-1.5,0.3-2.5,1.2-2.5,2.6c0,3.1,4.7,2.2,4.7,3.8c0,0.5-0.4,0.8-1.1,0.8c-0.9,0-2.3-0.5-3.2-1.3l-0.9,1.7c0.8,0.7,1.9,1.1,3,1.3v2
			h1.7v-1.9c1.7-0.2,2.9-1.1,2.9-2.7C31.4,20.9,26.7,21.8,26.7,20.2z"/>
		<path d="M49.3,16.3c-2.1-5.3-7.5-8.9-13.4-8.9H25.1c-0.6,0-1.2-0.3-1.6-0.9l-3.1-5.4C20.1,0.4,19.4,0,18.6,0c0,0,0,0,0,0
			c-0.8,0-1.5,0.4-1.9,1.1l-3.6,6.2C12.7,8,12,8.6,11.2,9c-3.1,1.6-5.5,4.1-6.9,7.3H2.9c-1.6,0-2.9,1.3-2.9,2.9v3.9
			c0,0.7,0.3,1.4,0.7,1.9l4,4.5c0.4,0.4,0.7,0.9,1.2,1.5c1.6,2.2,3.8,3.9,6.3,5c0.5,0.2,0.8,0.7,0.8,1.2v1.9c0,2.3,1.8,4.1,4.1,4.1
			H20c2.3,0,4.1-1.8,4.1-4.1v-1.8h5.5v1.8c0,2.3,1.8,4.1,4.1,4.1h2.9c2.3,0,4.1-1.8,4.1-4.1v-1.9c0-0.5,0.3-0.9,0.7-1.1
			C48,33.2,52.9,25.3,49.3,16.3z M40.7,34.2c-1.2,0.5-1.9,1.7-1.9,3v1.9c0,1.1-0.9,2.1-2.1,2.1h-2.9c-1.1,0-2.1-0.9-2.1-2.1v-3.9
			h-9.6v3.9c0,1.1-0.9,2.1-2.1,2.1h-2.9c-1.1,0-2.1-0.9-2.1-2.1v-1.9c0-1.3-0.8-2.5-2-3c-2.2-0.9-4.1-2.4-5.5-4.4
			c-0.4-0.5-0.8-1.1-1.2-1.6l-4-4.5C2.1,23.6,2,23.3,2,23.1v-3.9c0-0.5,0.4-0.9,0.9-0.9h2.8l0.2-0.6c1.2-3,3.4-5.4,6.2-6.9
			c1.1-0.6,2.1-1.4,2.7-2.5l3.6-6.2C18.4,2,18.5,2,18.6,2s0.1,0,0.2,0.1l3.1,5.4c0.7,1.2,2,1.9,3.3,1.9h10.7c5.1,0,9.7,3.1,11.6,7.6
			C50.6,24.9,46.3,31.7,40.7,34.2z"/>
		<rect x="25.8" y="10.4" width="8.5" height="1.7"/>
		<path d="M12.8,18.6C12.7,18.6,12.7,18.6,12.8,18.6c-1.4,0-1.8-0.9-1.8-0.9l-0.6,0.3l-0.6,0.3c0,0.1,0.8,1.6,2.9,1.6c0,0,0,0,0,0
			c2.1,0,2.8-1.4,2.9-1.5l-1.1-0.5C14.5,17.8,14.1,18.6,12.8,18.6z"/>
	</g>
</g>
</svg>
