<?xml version="1.0" encoding="utf-8"?>
<!-- Generator: Adobe Illustrator 23.0.4, SVG Export Plug-In . SVG Version: 6.00 Build 0)  -->
<svg version="1.1" xmlns="http://www.w3.org/2000/svg" xmlns:xlink="http://www.w3.org/1999/xlink" x="0px" y="0px"
	 viewBox="0 0 57.6 58" style="enable-background:new 0 0 57.6 58;" xml:space="preserve">
<style type="text/css">
	.st0{fill:#B6CE72;}
	.st1{fill:#88BA46;}
	.st2{fill:#056A37;}
	.st3{fill:#279346;}
	.st4{fill:#FFDC8C;}
	.st5{fill:#FECC8A;}
	.st6{fill:#7C959C;}
	.st7{fill:#DAE3EA;}
	.st8{fill:#ABBED7;}
	.st9{fill:#7F9FC3;}
	.st10{fill:#FFFFFF;}
	.st11{fill:#A5BE95;}
	.st12{fill:#69A0CB;}
</style>
<g id="Layer_1">
	<g>
		<g>
			<circle class="st0" cx="28.8" cy="12.4" r="11.3"/>
		</g>
		<g>
			<path class="st1" d="M28.8,23.7c6.2,0,11.3-5.1,11.3-11.3S35,1.1,28.8,1.1V23.7z"/>
		</g>
		<g>
			<path class="st8" d="M49.6,41.4v-3.3c0-0.8-0.6-1.4-1.4-1.4h-4.1c-0.8,0-1.4-0.6-1.4-1.4v-5c0-0.8-0.6-1.4-1.4-1.4H16.5
				c-0.8,0-1.4,0.6-1.4,1.4v5c0,0.8-0.6,1.4-1.4,1.4H9.4c-0.8,0-1.4,0.6-1.4,1.4v3.3c0,0.8-0.6,1.4-1.4,1.4h-4
				c-0.8,0-1.4,0.6-1.4,1.4v11.2c0,0.8,0.6,1.4,1.4,1.4H55c0.8,0,1.4-0.6,1.4-1.4V44.3c0-0.8-0.6-1.4-1.4-1.4h-4
				C50.3,42.8,49.6,42.2,49.6,41.4z"/>
		</g>
		<g>
			<path class="st9" d="M28.8,56.9H55c0.8,0,1.4-0.6,1.4-1.4V44.3c0-0.8-0.6-1.4-1.4-1.4h-4c-0.8,0-1.4-0.6-1.4-1.4v-3.3
				c0-0.8-0.6-1.4-1.4-1.4h-4.1c-0.8,0-1.4-0.6-1.4-1.4v-5c0-0.8-0.6-1.4-1.4-1.4H28.8V56.9z"/>
		</g>
	</g>
</g>
<g id="Layer_2">
	<g>
		<path d="M29.1,15.4c-1,0-2.5-0.6-3.5-1.5l-1,1.9c0.9,0.7,2.1,1.3,3.3,1.5v2.2h1.8v-2.1c1.8-0.2,3.2-1.2,3.2-2.9
			c0-3.5-5.1-2.6-5.1-4.2c0-0.5,0.4-0.7,1.1-0.7c0.8,0,2.1,0.4,3.1,1l0.9-1.9c-0.8-0.5-2-0.9-3.1-1.1v-2H28v2.1
			c-1.7,0.3-2.7,1.3-2.7,2.8c0,3.5,5.1,2.4,5.1,4.1C30.4,15.1,29.9,15.4,29.1,15.4z"/>
		<path d="M55,41.7h-4c-0.1,0-0.3-0.1-0.3-0.3v-3.3c0-1.4-1.1-2.6-2.6-2.6h-4.1c-0.1,0-0.3-0.1-0.3-0.3v-5c0-1.4-1.1-2.6-2.6-2.6
			H16.5c-1.4,0-2.6,1.1-2.6,2.6v5c0,0.1-0.1,0.3-0.3,0.3H9.4c-1.4,0-2.6,1.1-2.6,2.6v3.3c0,0.1-0.1,0.3-0.3,0.3h-4
			c-1.4,0-2.6,1.1-2.6,2.6v11.2C0,56.9,1.1,58,2.6,58H55c1.4,0,2.6-1.1,2.6-2.6V44.3C57.6,42.8,56.4,41.7,55,41.7z M55.3,55.5
			c0,0.1-0.1,0.3-0.3,0.3H2.6c-0.1,0-0.3-0.1-0.3-0.3V44.3c0-0.1,0.1-0.3,0.3-0.3h4c1.4,0,2.6-1.1,2.6-2.6v-3.3
			c0-0.1,0.1-0.3,0.3-0.3h4.3c1.4,0,2.6-1.1,2.6-2.6v-5c0-0.1,0.1-0.3,0.3-0.3h24.8c0.1,0,0.3,0.1,0.3,0.3v5c0,1.4,1.1,2.6,2.6,2.6
			h4.1c0.1,0,0.3,0.1,0.3,0.3v3.3c0,1.4,1.1,2.6,2.6,2.6h4c0.1,0,0.3,0.1,0.3,0.3V55.5z"/>
		<path d="M28.8,24.9c6.9,0,12.4-5.6,12.4-12.4S35.7,0,28.8,0S16.4,5.6,16.4,12.4S21.9,24.9,28.8,24.9z M28.8,2.3
			c5.6,0,10.1,4.6,10.1,10.1s-4.6,10.1-10.1,10.1c-5.6,0-10.1-4.6-10.1-10.1S23.2,2.3,28.8,2.3z"/>
		<path d="M28.8,32.4c-2.1,0-3.9,2.8-5.2,4.1c-1,1.1,0.6,2.7,1.6,1.6c0.5-0.5,1.1-1.1,1.6-1.6c0.2-0.2,0.5-0.7,0.9-1.1
			c0,6,0,12.1,0,18.1c0,1.5,2.3,1.5,2.3,0c0-6,0-12,0-18c0.3,0.3,0.6,0.6,0.7,0.8c0.6,0.6,1.2,1.2,1.8,1.8c1.1,1,2.7-0.6,1.6-1.6
			C32.8,35.2,30.9,32.4,28.8,32.4z"/>
	</g>
</g>
</svg>
