<?xml version="1.0" encoding="utf-8"?>
<!-- Generator: Adobe Illustrator 23.0.4, SVG Export Plug-In . SVG Version: 6.00 Build 0)  -->
<svg version="1.1" xmlns="http://www.w3.org/2000/svg" xmlns:xlink="http://www.w3.org/1999/xlink" x="0px" y="0px"
	 viewBox="0 0 40.4 47.3" style="enable-background:new 0 0 40.4 47.3;" xml:space="preserve">
<style type="text/css">
	.st0{fill:#B6CE72;}
	.st1{fill:#88BA46;}
	.st2{fill:#056A37;}
	.st3{fill:#279346;}
	.st4{fill:#FFDC8C;}
	.st5{fill:#FECC8A;}
	.st6{fill:#7C959C;}
	.st7{fill:#DAE3EA;}
	.st8{fill:#ABBED7;}
	.st9{fill:#7F9FC3;}
	.st10{fill:#FFFFFF;}
	.st11{fill:#A5BE95;}
	.st12{fill:#69A0CB;}
</style>
<g id="Layer_1">
	<g>
		<g>
			<path class="st8" d="M2.3,14.6L1,18.3c-0.1,0.4-0.1,0.9,0.2,1.3l18.6,26.6c0.2,0.3,0.6,0.3,0.8,0l18.6-26.4
				c0.2-0.3,0.3-0.8,0.2-1.2l-1.3-3.9c-0.4-1.2-1.4-2-2.5-2H4.8C3.7,12.6,2.7,13.4,2.3,14.6z"/>
		</g>
		<g>
			<path class="st9" d="M35.6,12.6c1.1,0,2.1,0.8,2.5,2l1.3,3.9c0.1,0.4,0.1,0.9-0.2,1.2L20.6,46.1c-0.2,0.3-0.6,0.3-0.8,0l-2.2-3.2
				c1.8-2.4,5.4-13.7,7.2-17.8c1.4-3.2,2.7-7.3,3.9-12.5C29.7,12.5,34.4,12.5,35.6,12.6z"/>
		</g>
	</g>
</g>
<g id="Layer_2">
	<g>
		<path d="M40.3,18.2L39,14.3c-0.5-1.6-1.9-2.6-3.4-2.6H4.8c-1.5,0-2.8,1-3.4,2.6L0.1,18c-0.2,0.7-0.1,1.5,0.3,2.1L19,46.7
			c0.3,0.4,0.7,0.6,1.2,0.6c0,0,0,0,0,0c0.5,0,0.9-0.2,1.2-0.6L40,20.3C40.4,19.7,40.5,18.9,40.3,18.2z M9.6,19.7
			c0,0.1,0,0.2,0.1,0.3l7.5,20.8L2.4,19.7H9.6z M11.4,17.8v-4.2H29v4.2H11.4z M28.8,19.7l-8.6,23.9l-8.6-23.9H28.8z M30.8,19.9
			c0-0.1,0-0.2,0.1-0.3h7.3L23.2,40.8L30.8,19.9z M37.2,14.9l0.9,2.9h-7.3v-4.2h4.7C36.3,13.6,37,14.1,37.2,14.9z M3.2,14.9
			c0.3-0.8,0.9-1.3,1.6-1.3h4.8v4.2H2.2L3.2,14.9z"/>
		<path d="M21.2,6.7c0-1.9,0-3.9,0-5.8c0-1.2-1.9-1.2-1.9,0c0,1.9,0,3.9,0,5.8C19.3,7.9,21.2,7.9,21.2,6.7z"/>
		<path d="M24.3,8.4c1.4-1.4,2.7-2.7,4.1-4.1C29.3,3.5,28,2.1,27.1,3c-1.4,1.4-2.7,2.7-4.1,4.1C22.1,8,23.5,9.3,24.3,8.4z"/>
		<path d="M15.9,9c0.9,0.9,2.2-0.5,1.3-1.3c-1.4-1.4-2.7-2.7-4.1-4.1c-0.9-0.9-2.2,0.5-1.3,1.3C13.1,6.3,14.5,7.7,15.9,9z"/>
	</g>
</g>
</svg>
