<?xml version="1.0" encoding="utf-8"?>
<!-- Generator: Adobe Illustrator 23.0.4, SVG Export Plug-In . SVG Version: 6.00 Build 0)  -->
<svg version="1.1" xmlns="http://www.w3.org/2000/svg" xmlns:xlink="http://www.w3.org/1999/xlink" x="0px" y="0px"
	 viewBox="0 0 40.3 40.3" style="enable-background:new 0 0 40.3 40.3;" xml:space="preserve">
<style type="text/css">
	.st0{fill:#DAE3EA;}
	.st1{fill:#69A0CB;}
	.st2{fill:#FFFFFF;}
	.st3{fill:#CFD0D3;}
	.st4{fill:#88BA46;}
	.st5{fill:#4892C3;}
	.st6{fill:#7B8A8F;}
	.st7{fill:#A5BE95;}
	.st8{fill:#C9C5BD;}
	.st9{fill:#6DA86A;}
	.st10{fill:#B6CE72;}
	.st11{fill:#A9CF49;}
	.st12{fill:#ABBED7;}
	.st13{fill:#7F9FC3;}
</style>
<g id="Layer_2">
	<g>
		<g>
			<path class="st0" d="M10.6,27.7V12.6c0-1.2,1-2.1,2.1-2.1h24.6c1.2,0,2.1,1,2.1,2.1v15.1c0,1.2-1,2.1-2.1,2.1H12.7
				C11.5,29.8,10.6,28.9,10.6,27.7z"/>
		</g>
		<g>
			
				<rect x="23.1" y="0.9" transform="matrix(-1.836970e-16 1 -1 -1.836970e-16 40.3447 -9.7012)" class="st1" width="3.7" height="28.9"/>
		</g>
		<g>
			<path class="st2" d="M0.8,37.4V22.3c0-1.2,1-2.1,2.1-2.1h24.6c1.2,0,2.1,1,2.1,2.1v15.1c0,1.2-1,2.1-2.1,2.1H2.9
				C1.8,39.5,0.8,38.5,0.8,37.4z"/>
		</g>
		<g>
			<circle class="st3" cx="20.8" cy="26.5" r="3.2"/>
		</g>
		<g>
			<circle class="st1" cx="24" cy="26.5" r="3.2"/>
		</g>
	</g>
</g>
<g id="Layer_1">
	<g>
		<path d="M40.3,12.6c0-1.7-1.4-3-3.1-3H12.8c-1.7,0-3,1.3-3.1,3h0V18l0,0v1.3H3.1c-1.7,0-3.1,1.4-3.1,3.1v14.8
			c0,1.7,1.4,3.1,3.1,3.1h24.4c1.7,0,3.1-1.4,3.1-3.1v-6.6h6.7c1.7,0,3.1-1.4,3.1-3.1V18L40.3,12.6L40.3,12.6L40.3,12.6z M38.7,14.3
			v2.1H11.4v-2.1H38.7z M12.8,11.3h24.4c0.8,0,1.4,0.6,1.5,1.4H11.4C11.4,11.9,12.1,11.3,12.8,11.3z M28.9,37.2
			c0,0.8-0.7,1.5-1.5,1.5H3.1c-0.8,0-1.5-0.7-1.5-1.5V22.4c0-0.8,0.7-1.5,1.5-1.5h6.7h1.6h16c0.8,0,1.5,0.7,1.5,1.5V29v1.6V37.2z
			 M38.7,27.5c0,0.8-0.7,1.5-1.5,1.5h-6.7v-6.6c0-1.7-1.4-3.1-3.1-3.1h-16V18h27.3V27.5z"/>
		<path d="M7.2,7.7c0.7,0.7,1.9-0.4,1.1-1.1C7.2,5.4,6,4.3,4.8,3.1C4.1,2.3,2.9,3.5,3.7,4.2C4.9,5.4,6,6.6,7.2,7.7z"/>
		<path d="M11.3,5.8c0-1.7,0-3.3,0-5c0-1-1.6-1-1.6,0c0,1.7,0,3.3,0,5C9.7,6.8,11.3,6.8,11.3,5.8z"/>
		<path d="M1.5,11.3c1.7,0,3.3,0,5,0c1,0,1-1.6,0-1.6c-1.7,0-3.3,0-5,0C0.5,9.6,0.5,11.3,1.5,11.3z"/>
		<rect x="5.3" y="28.9" width="10.5" height="1.6"/>
		<rect x="5.3" y="35.4" width="5.2" height="1.6"/>
		<rect x="5.3" y="32.1" width="10.5" height="1.6"/>
		<path d="M24,22.5c-0.6,0-1.1,0.1-1.6,0.3c-0.5-0.2-1-0.3-1.6-0.3c-2.2,0-4,1.8-4,4c0,2.2,1.8,4,4,4c0.6,0,1.1-0.1,1.6-0.3
			c0.5,0.2,1,0.3,1.6,0.3c2.2,0,4-1.8,4-4C28.1,24.3,26.3,22.5,24,22.5z M20.8,28.9c-1.3,0-2.4-1.1-2.4-2.4s1.1-2.4,2.4-2.4
			c0,0,0,0,0,0c-0.5,0.7-0.8,1.5-0.8,2.4C20,27.4,20.3,28.2,20.8,28.9C20.8,28.9,20.8,28.9,20.8,28.9z M24,28.9
			C24,28.9,24,28.9,24,28.9c-0.6,0-1.2-0.2-1.6-0.6c-0.5-0.4-0.8-1.1-0.8-1.8s0.3-1.3,0.8-1.8c0.4-0.4,1-0.6,1.6-0.6c0,0,0,0,0,0
			c1.3,0,2.4,1.1,2.4,2.4S25.4,28.9,24,28.9z"/>
	</g>
</g>
</svg>
