<?xml version="1.0" encoding="utf-8"?>
<!-- Generator: Adobe Illustrator 23.0.4, SVG Export Plug-In . SVG Version: 6.00 Build 0)  -->
<svg version="1.1" xmlns="http://www.w3.org/2000/svg" xmlns:xlink="http://www.w3.org/1999/xlink" x="0px" y="0px"
	 viewBox="0 0 42.1 86.7" style="enable-background:new 0 0 42.1 86.7;" xml:space="preserve">
<style type="text/css">
	.st0{fill:#010101;stroke:#231F20;stroke-width:1.2253;stroke-miterlimit:10;}
	.st1{fill:#7C959C;}
	.st2{fill:#1A1A1A;}
</style>
<g id="Layer_2">
</g>
<g id="Layer_1">
	<g>
		<line class="st0" x1="21" y1="60.6" x2="21" y2="0.5"/>
		<g>
			<g>
				<g>
					<circle class="st1" cx="21" cy="69.7" r="9.3"/>
				</g>
				<g>
					<path class="st2" d="M21,79.5c-5.4,0-9.8-4.4-9.8-9.8c0-5.4,4.4-9.8,9.8-9.8s9.8,4.4,9.8,9.8C30.8,75.1,26.4,79.5,21,79.5z
						 M21,61c-4.8,0-8.7,3.9-8.7,8.7c0,4.8,3.9,8.7,8.7,8.7s8.7-3.9,8.7-8.7C29.7,64.9,25.8,61,21,61z"/>
				</g>
				<g>
					<path class="st2" d="M3.1,64.5l-0.2-0.6c-0.1-0.2,0-0.5,0.2-0.6l5.2-3.2c0.2-0.1,0.4-0.1,0.5,0l4.5,3c0.2,0.1,0.3,0.4,0.1,0.7
						l-0.3,0.4c-0.1,0.2-0.4,0.3-0.7,0.1l-3.8-2.6c-0.2-0.1-0.4-0.1-0.5,0l-4.6,2.9C3.4,64.8,3.2,64.7,3.1,64.5z"/>
				</g>
				<g>
					<path class="st2" d="M7.2,85.1L6.6,85c-0.2-0.1-0.4-0.3-0.3-0.5l1.4-6.8c0-0.1,0.1-0.2,0.2-0.3l5.1-2.9c0.2-0.1,0.5,0,0.6,0.2
						l0.3,0.6c0.1,0.2,0,0.4-0.2,0.5l-4.5,2.4C9.1,78.3,9,78.4,9,78.6l-1.3,6.3C7.7,85,7.4,85.2,7.2,85.1z"/>
				</g>
				<g>
					<path class="st2" d="M0.8,74.3l-0.4-0.4c-0.2-0.2-0.1-0.4,0-0.6l4.8-4.4c0.1-0.1,0.2-0.1,0.4-0.1l5.3,0.7
						c0.2,0,0.4,0.2,0.4,0.4l0.1,0.7c0,0.2-0.1,0.3-0.3,0.3l-4.8-0.6c-0.1,0-0.3,0-0.3,0.1l-4.5,4.1C1.3,74.5,1,74.5,0.8,74.3z"/>
				</g>
				<g>
					<path class="st2" d="M38.7,64.5l0.2-0.6c0.1-0.2,0-0.5-0.2-0.6l-5.2-3.2c-0.2-0.1-0.4-0.1-0.5,0l-4.5,3
						c-0.2,0.1-0.3,0.4-0.1,0.7l0.3,0.4c0.1,0.2,0.4,0.3,0.7,0.1l3.8-2.6c0.2-0.1,0.4-0.1,0.5,0l4.6,2.9
						C38.4,64.8,38.6,64.7,38.7,64.5z"/>
				</g>
				<g>
					<path class="st2" d="M34.6,85.1l0.6-0.1c0.2-0.1,0.4-0.3,0.3-0.5L34,77.7c0-0.1-0.1-0.2-0.2-0.3l-5.1-2.9
						c-0.2-0.1-0.5,0-0.6,0.2l-0.3,0.6c-0.1,0.2,0,0.4,0.2,0.5l4.5,2.4c0.1,0.1,0.2,0.2,0.2,0.3l1.3,6.3
						C34.1,85,34.4,85.2,34.6,85.1z"/>
				</g>
				<g>
					<path class="st2" d="M41,74.3l0.4-0.4c0.2-0.2,0.1-0.4,0-0.6l-4.8-4.4c-0.1-0.1-0.2-0.1-0.4-0.1l-5.3,0.7
						c-0.2,0-0.4,0.2-0.4,0.4l-0.1,0.7c0,0.2,0.1,0.3,0.3,0.3l4.8-0.6c0.1,0,0.3,0,0.3,0.1l4.5,4.1C40.5,74.5,40.8,74.5,41,74.3z"/>
				</g>
			</g>
			<g>
				<rect x="18.4" y="68.5" class="st2" width="1.1" height="2"/>
			</g>
			<g>
				<rect x="22.4" y="68.5" class="st2" width="1.1" height="2"/>
			</g>
		</g>
	</g>
</g>
</svg>
