<?xml version="1.0" encoding="utf-8"?>
<!-- Generator: Adobe Illustrator 23.0.4, SVG Export Plug-In . SVG Version: 6.00 Build 0)  -->
<svg version="1.1" xmlns="http://www.w3.org/2000/svg" xmlns:xlink="http://www.w3.org/1999/xlink" x="0px" y="0px"
	 viewBox="0 0 41.7 41.7" style="enable-background:new 0 0 41.7 41.7;" xml:space="preserve">
<style type="text/css">
	.st0{fill:#D0D2D3;}
	.st1{fill:#C9C5BD;}
	.st2{fill:#A8A193;}
	.st3{fill:#69A0CB;}
	.st4{fill:#B6CE72;}
	.st5{fill:#ABBED7;}
	.st6{fill:#FFFFFF;}
	.st7{fill:#4892C3;}
	.st8{fill:#88BA46;}
	.st9{fill:#7F9FC3;}
	.st10{fill:#A5BE95;}
	.st11{fill:#DAE3EA;}
</style>
<g id="Layer_1">
	<g>
		<path class="st1" d="M8.1,1.7C8,1.7,7.9,1.8,7.9,1.8S7.8,2,7.8,2.1L10.5,8c0.5,1.2,0.1,2.6-1.1,3.3c-4.9,2.8-7.9,8-7.8,13.7
			c0.1,8,6.7,14.8,14.7,15.1c4.3,0.2,8.3-1.3,11.4-4.3c3.1-2.9,4.8-6.9,4.8-11.2c0-5.3-2.7-10.2-7.2-13c-1-0.6-1.4-1.8-1-3l2.2-6.5
			c0-0.1,0-0.2,0-0.3c0-0.1-0.1-0.1-0.3-0.1H8.1z"/>
		<path class="st2" d="M16.4,40c4.3,0.2,8.3-1.3,11.4-4.3c3.1-2.9,4.8-6.9,4.8-11.2c0-5.3-2.7-10.2-7.2-13c-1-0.6-1.4-1.8-1-3
			l2.2-6.5c0-0.1,0-0.2,0-0.3c0-0.1-0.1-0.1-0.3-0.1h-9L16.4,40z"/>
		<circle class="st3" cx="33.4" cy="14.4" r="7.5"/>
		<path class="st4" d="M18.1,31.9v3.3h-1.6v-3.4l-0.6-0.1c-1.7-0.3-3.3-0.9-4.7-1.9l0.9-1.8c1.7,1.2,3.8,2,5.5,2
			c1.7,0,2.7-0.8,2.7-2.1c0-1.7-1.8-2.2-3.6-2.7C14.4,24.7,12,24,12,21.2c0-2,1.4-3.5,3.9-3.9l0.6-0.1V14h1.6v3.2l0.6,0.1
			c1.5,0.2,3.1,0.6,4.3,1.3L22,20.4c-1.6-0.8-3.5-1.4-4.7-1.4c-1.8,0-2.4,1-2.4,1.8c0,1.6,1.8,2.1,3.5,2.6c2.4,0.7,4.8,1.4,4.8,4.2
			c0,2.2-1.7,3.8-4.5,4.1L18.1,31.9z"/>
	</g>
</g>
<g id="Layer_2">
	<g>
		<path d="M17.3,20.4c1.2,0,3.2,0.7,4.7,1.6l0.6,0.4l2.1-4.3l-0.5-0.3c-1.3-0.8-3-1.5-4.8-1.7v-3.3h-4.3v3.5
			c-2.8,0.7-4.4,2.6-4.4,5.1c0,3.8,3.5,4.7,5.7,5.4C18,27.1,19,27.4,19,28c0,0.6-0.9,0.7-1.4,0.7c-1.6,0-3.8-0.9-5.3-2.2l-0.7-0.6
			l-2.2,4.4l0.4,0.3c1.4,1.2,3.2,2,5.2,2.4v3.6h4.3v-3.5c3.2-0.6,5.1-2.6,5.1-5.4c0-3.9-3.5-4.9-5.8-5.6c-1.5-0.4-2.5-0.8-2.5-1.3
			C16.2,20.5,17,20.4,17.3,20.4z M18.4,23.5c2.4,0.7,4.8,1.4,4.8,4.2c0,2.2-1.7,3.8-4.5,4.1l-0.6,0.1v3.3h-1.6v-3.4l-0.6-0.1
			c-1.7-0.3-3.3-0.9-4.7-1.9l0.9-1.8c1.7,1.2,3.8,2,5.5,2c1.7,0,2.7-0.8,2.7-2.1c0-1.7-1.8-2.2-3.6-2.7C14.4,24.7,12,24,12,21.2
			c0-2,1.4-3.5,3.9-3.9l0.6-0.1V14h1.6v3.2l0.6,0.1c1.5,0.2,3.1,0.6,4.3,1.3L22,20.4c-1.6-0.8-3.5-1.4-4.7-1.4c-1.8,0-2.4,1-2.4,1.8
			C14.9,22.5,16.7,23,18.4,23.5z"/>
		<path d="M41.7,14.4C41.7,9.8,38,6,33.4,6c-3.1,0-5.7,1.7-7.2,4.1c-0.3-0.2-0.4-0.6-0.3-0.9l2.2-6.5c0.2-0.6,0.1-1.3-0.3-1.8
			c-0.4-0.5-1-0.8-1.6-0.8H8.1C7.5,0,6.8,0.3,6.5,0.9C6.1,1.5,6,2.2,6.3,2.8L9,8.7c0.2,0.4,0,0.9-0.4,1.1C3.2,12.9-0.1,18.7,0,24.9
			c0.2,8.8,7.5,16.4,16.3,16.8c0.3,0,0.5,0,0.8,0c4.4,0,8.6-1.7,11.8-4.7c3.4-3.3,5.3-7.7,5.3-12.4c0-0.7,0-1.3-0.1-1.9
			C38.4,22.3,41.7,18.7,41.7,14.4z M27.8,35.8c-3.1,2.9-7.1,4.4-11.4,4.3c-8-0.4-14.5-7.2-14.7-15.1c-0.1-5.6,2.9-10.9,7.8-13.7
			c1.1-0.7,1.6-2.1,1.1-3.3L7.8,2.1c-0.1-0.1,0-0.3,0-0.3S8,1.7,8.1,1.7h18.1c0.1,0,0.2,0.1,0.3,0.1c0,0.1,0.1,0.2,0,0.3l-2.2,6.5
			c-0.4,1.1,0,2.3,1,3c0,0,0.1,0.1,0.1,0.1c-0.3,0.8-0.5,1.8-0.5,2.7c0,4.3,3.2,7.8,7.4,8.3c0.1,0.6,0.1,1.3,0.1,2
			C32.5,28.9,30.8,32.9,27.8,35.8z M33.8,21c-0.2,0-0.3,0-0.5,0c-0.4,0-0.9,0-1.3-0.1c-3.1-0.6-5.4-3.3-5.4-6.6
			c0-0.6,0.1-1.1,0.2-1.7c0.1-0.6,0.4-1.1,0.6-1.6c1.1-2,3.3-3.4,5.8-3.4c3.7,0,6.7,3,6.7,6.7C40.1,17.9,37.3,20.8,33.8,21z"/>
		<polygon points="32.2,16.3 30.7,14.9 29.5,16.1 32.4,19 37.3,11.6 35.9,10.6 		"/>
	</g>
</g>
</svg>
