<?xml version="1.0" encoding="utf-8"?>
<!-- Generator: Adobe Illustrator 23.0.4, SVG Export Plug-In . SVG Version: 6.00 Build 0)  -->
<svg version="1.1" xmlns="http://www.w3.org/2000/svg" xmlns:xlink="http://www.w3.org/1999/xlink" x="0px" y="0px"
	 viewBox="0 0 45.3 42.1" style="enable-background:new 0 0 45.3 42.1;" xml:space="preserve">
<style type="text/css">
	.st0{fill:#D0D2D3;}
	.st1{fill:#C9C5BD;}
	.st2{fill:#A8A193;}
	.st3{fill:#69A0CB;}
	.st4{fill:#B6CE72;}
	.st5{fill:#ABBED7;}
	.st6{fill:#FFFFFF;}
	.st7{fill:#4892C3;}
	.st8{fill:#88BA46;}
	.st9{fill:#7F9FC3;}
	.st10{fill:#A5BE95;}
	.st11{fill:#DAE3EA;}
</style>
<g id="Layer_1">
	<g>
		<g>
			<g>
				<circle class="st3" cx="34.4" cy="31.2" r="10"/>
				<g>
					<path class="st7" d="M34.3,41.3c5.6,0,10.1-4.5,10.1-10.1s-4.5-10.1-10.1-10.1c0,0,4.8,4.6,4.8,10.1
						C39.1,37,34.3,41.3,34.3,41.3z"/>
				</g>
			</g>
		</g>
		<g>
			<g>
				<circle class="st5" cx="10.9" cy="31.2" r="10"/>
				<g>
					<path class="st9" d="M10.8,41.3c5.6,0,10.1-4.5,10.1-10.1s-4.5-10.1-10.1-10.1c0,0,4.8,4.6,4.8,10.1
						C15.6,37,10.8,41.3,10.8,41.3z"/>
				</g>
			</g>
		</g>
		<g>
			<g>
				<circle class="st4" cx="22.9" cy="10.9" r="10"/>
				<g>
					<path class="st8" d="M22.7,21c5.6,0,10.1-4.5,10.1-10.1S28.3,0.9,22.7,0.9c0,0,4.8,4.6,4.8,10.1C27.5,16.7,22.7,21,22.7,21z"/>
				</g>
			</g>
		</g>
	</g>
</g>
<g id="Layer_2">
	<g>
		<path d="M34.4,20.3c-6,0-10.9,4.9-10.9,10.9s4.9,10.9,10.9,10.9s10.9-4.9,10.9-10.9S40.4,20.3,34.4,20.3z M34.4,40.3
			c-5,0-9.1-4.1-9.1-9.1s4.1-9.1,9.1-9.1s9.1,4.1,9.1,9.1S39.4,40.3,34.4,40.3z"/>
		<path d="M10.9,20.3C4.9,20.3,0,25.2,0,31.2s4.9,10.9,10.9,10.9s10.9-4.9,10.9-10.9S16.9,20.3,10.9,20.3z M10.9,40.3
			c-5,0-9.1-4.1-9.1-9.1s4.1-9.1,9.1-9.1s9.1,4.1,9.1,9.1S15.9,40.3,10.9,40.3z"/>
		<path d="M33.8,10.9c0-6-4.9-10.9-10.9-10.9S12,4.9,12,10.9s4.9,10.9,10.9,10.9S33.8,16.9,33.8,10.9z M22.9,20
			c-5,0-9.1-4.1-9.1-9.1c0-5,4.1-9.1,9.1-9.1S32,5.9,32,10.9C32,15.9,27.9,20,22.9,20z"/>
		<path d="M36.3,27.1l-1,2.2c-0.3,0.7-0.5,1.2-0.8,1.8h0c-0.2-0.6-0.4-1.1-0.7-1.8l-1-2.2h-2.8l2.6,4.3h-2.1v1.3h2.7v0.9h-2.7v1.3
			h2.7v1.9h2.5v-1.9h2.7v-1.3h-2.7v-0.9h2.7v-1.3h-2.1l2.7-4.3H36.3z"/>
		<path d="M12.9,34.4c-0.8,0-1.4-0.2-1.9-0.7c-0.2-0.2-0.3-0.4-0.4-0.7h3.7v-1.2h-4c0-0.2,0-0.3,0-0.4c0-0.1,0-0.3,0-0.4h4v-1.2
			h-3.7c0.1-0.3,0.3-0.6,0.4-0.8c0.5-0.5,1.1-0.7,1.9-0.7c0.8,0,1.3,0.2,1.6,0.3l0.5-1.8c-0.4-0.2-1.3-0.5-2.4-0.5
			c-1.4,0-2.7,0.5-3.7,1.4c-0.5,0.5-0.9,1.2-1.1,2H6.7V31h1c0,0.2,0,0.3,0,0.4c0,0.1,0,0.2,0,0.4h-1V33h1.2c0.2,0.8,0.6,1.5,1.1,2
			c0.9,0.9,2.1,1.3,3.4,1.3c1.1,0,2.1-0.3,2.6-0.6L14.9,34C14.5,34.2,13.7,34.4,12.9,34.4z"/>
		<path d="M23.7,10.1c-1.4-0.4-1.6-0.6-1.6-1c0-0.4,0.5-0.7,1.3-0.7c0.9,0,1.8,0.3,2.2,0.6l0.5-1.8c-0.5-0.3-1.4-0.5-2.4-0.6V5.1
			h-1.6v1.7C20.4,7,19.4,8,19.4,9.2c0,1.3,0.8,2,2.8,2.6c1.2,0.4,1.5,0.7,1.5,1.1c0,0.5-0.6,0.7-1.4,0.7c-0.9,0-2-0.3-2.6-0.7
			l-0.6,1.8c0.7,0.4,1.8,0.8,2.9,0.8V17h1.6v-1.6c1.9-0.3,2.9-1.5,2.9-2.7C26.6,11.6,25.8,10.7,23.7,10.1z"/>
	</g>
</g>
</svg>
