<?xml version="1.0" encoding="utf-8"?>
<!-- Generator: Adobe Illustrator 24.0.1, SVG Export Plug-In . SVG Version: 6.00 Build 0)  -->
<svg version="1.1" id="Layer_1" xmlns="http://www.w3.org/2000/svg" xmlns:xlink="http://www.w3.org/1999/xlink" x="0px" y="0px"
	 viewBox="0 0 41.7 54.4" style="enable-background:new 0 0 41.7 54.4;" xml:space="preserve">
<style type="text/css">
	.fila2grap{fill:#A5BE95;}
	.fila1grap{fill:#B6CE72;}
	.fila3grap{fill:#69A0CB;}
	.fila4grap{fill:#ABBED7;}
</style>
<g id="color-grafica">
	<g>
		<g>
			<rect x="0.8" y="40.6" class="fila1grap" width="10" height="13"/>
		</g>
		<g>
			<rect x="10.9" y="26.7" class="fila2grap" width="10" height="26.9"/>
		</g>
		<g>
			<rect x="20.9" y="13.2" class="fila3grap" width="9.9" height="40.4"/>
		</g>
		<g>
			<rect x="30.8" class="fila4grap" width="10.1" height="53.6"/>
		</g>
	</g>
</g>
<g id="fill-grafica">
	<g>
		<path d="M30,0v12.8h-9.9V26H10v13.5H0v14.9h10h1.7h8.4h1.7H30h1.7h10.1V0H30z M10,52.3H1.7V41.7H10V52.3z M20.1,52.3h-8.4V39.5
			V28.2h8.4V52.3z M30,52.3h-8.3V26.1v-11H30V52.3z M40.1,52.3h-8.4V12.8V2.2h8.4V52.3z"/>
	</g>
</g>
</svg>
