<?xml version="1.0" encoding="utf-8"?>
<!-- Generator: Adobe Illustrator 23.0.4, SVG Export Plug-In . SVG Version: 6.00 Build 0)  -->
<svg version="1.1" xmlns="http://www.w3.org/2000/svg" xmlns:xlink="http://www.w3.org/1999/xlink" x="0px" y="0px"
	 viewBox="0 0 49.3 44.1" style="enable-background:new 0 0 49.3 44.1;" xml:space="preserve">
<style type="text/css">
	.st0{fill:#D0D2D3;}
	.st1{fill:#C9C5BD;}
	.st2{fill:#A8A193;}
	.st3{fill:#69A0CB;}
	.st4{fill:#B6CE72;}
	.mitadIz{fill:#ABBED7;}
	.st6{fill:#FFFFFF;}
	.st7{fill:#4892C3;}
	.st8{fill:#88BA46;}
	.mitadDr{fill:#7F9FC3;}
	.circulo-redito{fill:#A5BE95;}
	.st11{fill:#DAE3EA;}
</style>
<g id="Layer_1">
	<g>
		<g>
			<g>
				<path class="mitadIz" d="M4.1,39.5C4.1,28.2,13.3,19,24.6,19c11.3,0,20.5,9.2,20.5,20.5H4.1z"/>
			</g>
		</g>
		<g>
			<path class="st9" d="M24.6,19c11.3,0,20.5,9.2,20.5,20.5H24.6V19z"/>
		</g>
		<g>
			<circle class="circulo-redito" cx="24.5" cy="39.5" r="3.5"/>
		</g>
	</g>
</g>
<g id="Layer_2">
	<g>
		<path d="M24.6,2.1c6.1,0,11.7,2.8,15.4,7.6c-0.4,0-0.7-0.1-1-0.1c-0.8,0-1.5,0-2.3,0c-1.3,0-1.3,2.1,0,2.1c1,0,1.9,0,2.9,0
			c1.2,0,2.4,0.1,3.2-0.9c0.8-0.9,0.7-2,0.7-3.1c0-1,0-1.9,0-2.9c0-1.3-2.1-1.3-2.1,0c0,0.7,0,1.4,0,2.1c0,0.3,0.1,0.7,0.1,1.2
			C37.4,3,31.3,0,24.6,0C17.2,0,10.4,3.8,6.4,10.1l1.8,1.1C11.7,5.5,17.9,2.1,24.6,2.1z"/>
		<path d="M46.1,38.4c-0.3-5.1-2.3-9.8-5.6-13.3l2.2-2.2l-1.5-1.5l-2.2,2.2c-3.6-3.3-8.3-5.3-13.4-5.6v-3.1h-2.1V18
			c-5.1,0.2-9.8,2.3-13.4,5.5L8,21.3l-1.5,1.5L8.8,25c-3.3,3.6-5.3,8.2-5.6,13.4H0v2.2h3.1h17c0.5,2,2.3,3.5,4.4,3.5
			c2.1,0,3.9-1.5,4.4-3.5h17.3h3.1v-2.2H46.1z M26.7,40.6c-0.4,0.8-1.2,1.4-2.2,1.4s-1.8-0.6-2.2-1.4c-0.2-0.3-0.2-0.7-0.2-1
			s0.1-0.7,0.2-1c0.4-0.8,1.2-1.4,2.2-1.4c1,0,1.8,0.6,2.2,1.4c0.2,0.3,0.2,0.7,0.2,1S26.8,40.3,26.7,40.6z M28.9,38.4
			c-0.1-0.4-0.3-0.8-0.5-1.2l6.3-6.3l-1.5-1.5l-6.2,6.2c-0.7-0.5-1.5-0.7-2.4-0.7c-2.1,0-3.9,1.5-4.4,3.4H5.2
			c0.3-4.6,2.1-8.7,5-11.9l2.5,2.5l1.5-1.5L11.7,25c3.2-2.9,7.3-4.7,11.9-4.9v3.6h2.1v-3.6c4.6,0.2,8.7,2.1,11.9,5l-2.5,2.5l1.5,1.5
			l2.5-2.5c2.9,3.2,4.7,7.3,5,11.9H28.9z"/>
	</g>
</g>
</svg>
