<?xml version="1.0" encoding="utf-8"?>
<!-- Generator: Adobe Illustrator 24.0.1, SVG Export Plug-In . SVG Version: 6.00 Build 0)  -->
<svg version="1.1" xmlns="http://www.w3.org/2000/svg" xmlns:xlink="http://www.w3.org/1999/xlink" x="0px" y="0px"
	 viewBox="0 0 89.9 86.6" style="enable-background:new 0 0 89.9 86.6;" xml:space="preserve">
<style type="text/css">
	.verde-cash1{fill:#88BA46;}
	.verde-cash2{fill:#279346;}
	.verde-cash3{fill:#B6CE72;}
	.verde-cash4{fill:none;stroke:#000000;stroke-width:0.5;stroke-linecap:round;stroke-linejoin:round;}
</style>
<g id="billetealto">
	<g id="Layer_65">
		<path d="M56.2,47h19c0.8-5.7,5.2-10.2,10.9-11c0-5.3,0-15.5,0-21v-0.2c-5-0.4-10.7-6.4-10.8-10.9h-2.1c-5.4,0-11.2,0-17,0
			c-6.4,0-12.8,0-18.8,0c-0.9,5.6-5.4,10-11,10.8v21.5c5.6,0.8,10,5.2,10.8,10.8H56.2z M89.6,43c-0.1,4-3.2,7.1-7.2,7.2
			c-11.1,0-40.2-0.1-52.1,0.1c-4.1,0-7.4-3.2-7.5-7.3c0,0,0-0.1,0-0.1V6.8c0-3.6,2.9-6.5,6.5-6.4c17.1,0,36.1,0.2,53.8,0.2
			c3.5,0,6.4,2.8,6.4,6.3c0,0,0,0,0,0.1C89.5,8.8,89.6,41.6,89.6,43z M86.1,41.8v-2.3c-3.7,0.8-6.6,3.7-7.3,7.5h1.8
			C83.6,46.9,86,44.7,86.1,41.8z M86.1,11.2v-3c0-2.4-1.9-4.3-4.2-4.3c0,0,0,0-0.1,0h-3.1C80.4,7.5,81.8,10.2,86.1,11.2z M33.8,3.8
			h-3.1c-2.4,0-4.3,1.9-4.3,4.2c0,0,0,0,0,0.1v3C30.6,10.4,32.2,7.3,33.8,3.8z M31.9,46.9l1.8-0.1c-0.7-3.7-3.6-6.6-7.3-7.3v1.9
			C26.3,44.5,28.8,46.9,31.9,46.9C31.8,47,31.8,47,31.9,46.9L31.9,46.9z"/>
	</g>
	<g id="Layer_64">
		<path class="verde-cash1" d="M86.1,14.9c0,5.5,0,15.7,0,21c-5.7,0.8-10.1,5.3-10.9,11h-19v-6.7c8.3-0.6,14.5-7.8,13.9-16.1
			c-0.5-7.4-6.4-13.3-13.9-13.9V3.8c5.8,0,11.6,0,17,0h2.1c0.1,4.5,5.8,10.4,10.8,10.9V14.9z"/>
	</g>
	<g id="Layer_63">
		<path class="verde-cash2" d="M86.1,39.5v2.3c-0.2,2.9-2.6,5.2-5.5,5.2h-1.8C79.5,43.2,82.4,40.2,86.1,39.5z"/>
	</g>
	<g id="Layer_62">
		<path class="verde-cash2" d="M86.1,8.1v3c-4.3-0.9-5.8-3.6-7.4-7.3h3.1C84.2,3.8,86.1,5.7,86.1,8.1C86.1,8.1,86.1,8.1,86.1,8.1z"/>
	</g>
	<g id="Layer_61">
		<path d="M56.2,10.3c8.3,0,15,6.7,15,15s-6.7,15-15,15s-15-6.7-15-15S48,10.3,56.2,10.3z M67.4,25.3c0-6.2-5-11.1-11.2-11.1
			s-11.1,5-11.1,11.2s5,11.1,11.2,11.1l0,0C62.4,36.5,67.4,31.5,67.4,25.3z"/>
	</g>
	<g id="Layer_60">
		<path class="verde-cash3" d="M56.2,14.2c6.2,0,11.1,5,11.1,11.1s-5,11.2-11.1,11.2s-11.2-5-11.2-11.2S50.1,14.2,56.2,14.2L56.2,14.2z
			 M60.7,21.3l0.3-0.6c-1-0.5-2-0.9-3.1-1.1c-0.2,0-0.3-0.1-0.5-0.1v-2.2h-2.1v2.4c-1.9,0.4-3.1,1.5-3.1,3.2c0,2.5,2.4,2.9,4.1,3.4
			c1,0.3,1.8,0.6,1.8,1.3s-0.6,1-1.4,1h-0.4c-1.4-0.2-2.6-0.7-3.7-1.6l-1.1,2.2c0.2,0.1,0.4,0.2,0.5,0.4c1,0.7,2.1,1.1,3.3,1.3v2.5
			h2.1V31c1.1,0,2.2-0.5,2.9-1.4c0.5-0.5,0.7-1.3,0.7-2c0-2.9-3.1-3.2-4.8-3.8c-0.7-0.2-1.1-0.5-1.1-1.1s0.4-0.8,1.1-0.8h0.1
			c1.3,0.1,2.5,0.5,3.6,1.2L60.7,21.3z"/>
	</g>
	<g id="Layer_59">
		<path d="M61,20.8l-0.3,0.6l-0.8,1.7c-1.1-0.7-2.3-1.1-3.6-1.2h-0.1c-0.7,0-1.1,0.3-1.1,0.8s0.4,0.9,1.1,1.1
			c1.7,0.6,4.8,0.9,4.8,3.8c0,0.7-0.2,1.5-0.7,2c-0.7,0.9-1.8,1.4-2.9,1.4v2.4h-2.1v-2.5c-1.2-0.2-2.3-0.6-3.3-1.3
			c-0.1-0.2-0.3-0.3-0.5-0.4l1.1-2.2c1.1,0.9,2.3,1.4,3.7,1.6h0.4c0.8,0,1.4-0.4,1.4-1s-0.8-1-1.8-1.3c-1.7-0.5-4.1-0.9-4.1-3.4
			c0-1.7,1.2-2.8,3.1-3.2v-2.4h2.1v2.3c0.2,0,0.3,0.1,0.5,0.1C59,19.9,60,20.2,61,20.8z"/>
	</g>
	<g id="Layer_58">
		<path class="verde-cash3" d="M56.2,40.3V47h-19c-0.8-5.6-5.2-10-10.8-10.8V14.7c5.6-0.8,10.1-5.2,11-10.8c6-0.1,12.4,0,18.8,0v6.4
			c-8.3,0.6-14.5,7.8-13.9,16.1C42.9,33.8,48.8,39.7,56.2,40.3L56.2,40.3z"/>
	</g>
	<g id="Layer_57">
		<path class="verde-cash2" d="M30.6,3.8h3.1c-1.5,3.5-3.2,6.6-7.4,7.3v-3C26.3,5.8,28.2,3.9,30.6,3.8C30.6,3.8,30.6,3.8,30.6,3.8z"/>
	</g>
	<g id="Layer_56">
		<path class="verde-cash2" d="M33.6,46.8l-1.8,0.1c-3,0-5.5-2.4-5.5-5.5c0,0,0,0,0,0v-1.9C30,40.3,32.9,43.1,33.6,46.8z"/>
	</g>
	<g id="Layer_55">
		<path class="verde-cash4" d="M89.5,6.9c0-3.5-2.8-6.4-6.3-6.4c0,0,0,0-0.1,0c-17.7,0-36.6-0.2-53.8-0.2c-3.6,0-6.5,2.9-6.5,6.5
			c0,0,0,0,0,0V43c0,4.1,3.3,7.4,7.4,7.4c0,0,0.1,0,0.1,0c11.9-0.2,41-0.1,52.1-0.1c4-0.1,7.1-3.2,7.2-7.2
			C89.6,41.6,89.5,8.8,89.5,6.9z"/>
	</g>
	<g id="Layer_54">
		<path class="verde-cash4" d="M26.3,8.1c0-2.4,1.9-4.3,4.2-4.3c0,0,0,0,0.1,0h3.1c-1.5,3.5-3.2,6.6-7.4,7.3L26.3,8.1z"/>
	</g>
	<g id="Layer_53">
		<path class="verde-cash4" d="M31.8,47c-3,0-5.5-2.4-5.5-5.5c0,0,0,0,0,0v-1.9c3.7,0.7,6.6,3.6,7.3,7.3L31.8,47z"/>
	</g>
	<g id="Layer_52">
		<path class="verde-cash4" d="M86.1,41.8c-0.2,2.9-2.6,5.2-5.5,5.2h-1.8c0.7-3.8,3.6-6.7,7.3-7.5V41.8z"/>
	</g>
	<g id="Layer_51">
		<path class="verde-cash4" d="M56.2,3.8c5.8,0,11.6,0,17,0h2.1c0.1,4.5,5.8,10.4,10.8,10.9v0.2c0,5.5,0,15.7,0,21
			c-5.7,0.8-10.1,5.3-10.9,11h-38c-0.8-5.6-5.2-10-10.8-10.8V14.7c5.6-0.8,10.1-5.2,11-10.8C43.4,3.8,49.8,3.8,56.2,3.8z"/>
	</g>
	<g id="Layer_50">
		<path class="verde-cash4" d="M86.1,11.2c-4.3-0.9-5.8-3.6-7.4-7.3h3.1c2.4,0,4.3,1.9,4.3,4.2c0,0,0,0,0,0.1V11.2z"/>
	</g>
	<g id="Layer_49">
		<path class="verde-cash4" d="M56.2,21.8L56.2,21.8c1.4,0.1,2.6,0.5,3.7,1.2l0.8-1.7l0.3-0.6c-1-0.5-2-0.9-3.1-1.1c-0.2,0-0.3-0.1-0.5-0.1
			v-2.2h-2.1v2.4c-1.9,0.4-3.1,1.5-3.1,3.2c0,2.5,2.4,2.9,4.1,3.4c1,0.3,1.8,0.6,1.8,1.3s-0.6,1-1.4,1h-0.4
			c-1.4-0.2-2.6-0.7-3.7-1.6l-1.1,2.2c0.2,0.1,0.4,0.2,0.5,0.4c1,0.7,2.1,1.1,3.3,1.3v2.5h2.1V31c1.1,0,2.2-0.5,2.9-1.4
			c0.5-0.5,0.7-1.3,0.7-2c0-2.9-3.1-3.2-4.8-3.8c-0.7-0.2-1.1-0.5-1.1-1.1S55.5,21.8,56.2,21.8z"/>
	</g>
	<g id="Layer_48">
		<circle class="verde-cash4" cx="56.3" cy="25.3" r="15"/>
	</g>
	<g id="Layer_47">
		<circle class="verde-cash4" cx="56.3" cy="25.3" r="11.1"/>
	</g>
	<g id="Layer_46">
		<line class="verde-cash4" x1="56.3" y1="10.3" x2="56.3" y2="3.8"/>
	</g>
	<g id="Layer_45">
		<polyline class="verde-cash4" points="56.3,40.3 56.3,47 56.3,47 		"/>
	</g>
</g>
<g id="billetemedio">
	<g id="Layer_44">
		<path class="verde-cash2" d="M74.8,57.6v2.3c-0.2,2.9-2.6,5.2-5.5,5.2h-1.8C68.1,61.4,71,58.4,74.8,57.6z"/>
	</g>
	<g id="Layer_42">
		<path class="verde-cash1" d="M44.8,65.2v-6.7c8.3-0.6,14.5-7.7,13.9-16c-0.5-7.5-6.5-13.4-13.9-13.9V22l0,0c5.8,0,11.6,0,17,0h2.1
			C64,26.6,69.8,32.5,74.8,33v0.2c0,5.5,0,15.7,0,21c-5.7,0.8-10.1,5.3-10.9,11L44.8,65.2z"/>
	</g>
	<g id="Layer_41">
		<path d="M43.8,51.4v-2.3c-1.2-0.2-2.3-0.6-3.3-1.3c-0.1-0.2-0.3-0.3-0.5-0.4l1.1-2.2c1.1,0.9,2.3,1.4,3.7,1.6h0.4
			c0.8,0,1.4-0.4,1.4-1s-0.8-1-1.8-1.3c-1.7-0.5-4.1-0.9-4.1-3.4c0-1.7,1.2-2.8,3.1-3.2v-2.4H46v2.3c0.2,0,0.3,0.1,0.5,0.1
			c1.1,0.2,2.1,0.6,3.1,1.1l-0.3,0.6l-0.8,1.7c-1.1-0.7-2.3-1.1-3.6-1.2h-0.1c-0.7,0-1.1,0.3-1.1,0.8s0.4,0.9,1.1,1.1
			c1.7,0.6,4.8,0.9,4.8,3.8c0,0.7-0.2,1.5-0.7,2c-0.7,0.9-1.8,1.4-2.9,1.4v2.4h-2.1V51.4z"/>
	</g>
	<g id="Layer_40">
		<path class="verde-cash3" d="M49.5,45.8c0-2.9-3.1-3.2-4.8-3.8c-0.7-0.2-1.1-0.5-1.1-1.1s0.4-0.8,1.1-0.8h0.1c1.3,0.1,2.5,0.6,3.6,1.2
			l0.8-1.7l0.3-0.6c-1-0.5-2-0.9-3.1-1.1c-0.2,0-0.3-0.1-0.5-0.1v-2.3h-2.1v2.4c-1.9,0.4-3.1,1.5-3.1,3.2c0,2.5,2.4,2.9,4.1,3.4
			c1,0.3,1.8,0.6,1.8,1.3s-0.6,1-1.4,1h-0.4c-1.4-0.2-2.6-0.7-3.7-1.6L40,47.4c0.2,0.1,0.4,0.2,0.5,0.4c1,0.7,2.1,1.1,3.3,1.3v2.5
			h2.1v-2.4c1.1,0,2.2-0.5,2.9-1.4C49.4,47.2,49.6,46.5,49.5,45.8z M44.8,54.7c-6.2,0-11.1-5-11.1-11.2s5-11.1,11.2-11.1
			S56,37.4,56,43.5S51,54.7,44.8,54.7L44.8,54.7z"/>
	</g>
	<g id="Layer_39">
		<path d="M33.7,43.5c0,6.2,5,11.2,11.1,11.2s11.2-5,11.2-11.1c0-6.2-5-11.2-11.1-11.2c0,0,0,0,0,0C38.6,32.4,33.7,37.4,33.7,43.5z
			 M29.8,43.5c0-8.3,6.7-15,15-15s15,6.7,15,15s-6.7,15-15,15S29.8,51.8,29.8,43.5z"/>
	</g>
	<g id="Layer_38">
		<path class="verde-cash3" d="M44.8,28.5c-8.3,0.6-14.5,7.7-13.9,16C31.4,52,37.3,58,44.8,58.5v6.7c-7.1,0-14.1,0-19,0
			c-0.8-5.6-5.2-10-10.8-10.8V32.8C20.6,32,25.1,27.7,26,22c6,0,12.4,0,18.8,0l0,0V28.5z"/>
	</g>
	<g id="Layer_37">
		<path d="M11.4,61.1V24.9c0-3.6,2.9-6.5,6.5-6.5c0,0,0,0,0,0c17.1,0,36.1,0.2,53.8,0.2c3.5,0,6.4,2.8,6.4,6.3c0,0,0,0,0,0.1
			c0,1.9,0.1,34.8,0.1,36.2c-0.1,4-3.2,7.1-7.2,7.2c-11.1,0-40.2-0.1-52.1,0.1c-4.1,0.1-7.4-3.2-7.5-7.3
			C11.4,61.2,11.4,61.2,11.4,61.1z M15,54.3c5.6,0.8,10,5.2,10.8,10.8c4.9,0,11.9,0,19,0h19c0.8-5.7,5.2-10.2,10.9-11
			c0-5.3,0-15.5,0-21v-0.2c-5-0.5-10.7-6.4-10.8-10.9h-2.1c-5.4,0-11.2,0-17,0C38.4,22,32,22,26,22c-0.9,5.6-5.4,10-11,10.8V54.3z
			 M22.2,65.1c-0.7-3.7-3.6-6.6-7.3-7.3v1.9c0,3,2.4,5.5,5.5,5.5c0,0,0,0,0,0L22.2,65.1z M22.3,22c-0.3,0-2.8,0-3.1,0
			c-2.4,0-4.3,1.9-4.3,4.2c0,0,0,0,0,0.1v3C19.1,28.6,20.8,25.5,22.3,22z M74.8,60v-2.3c-3.7,0.8-6.6,3.7-7.3,7.5h1.8
			C72.2,65.1,74.6,62.9,74.8,60z M74.8,29.4v-3c0-2.4-1.9-4.3-4.2-4.3c0,0,0,0-0.1,0c-0.8,0-2.3,0-3.1,0
			C68.9,25.7,70.4,28.4,74.8,29.4z"/>
	</g>
	<g id="Layer_35">
		<path class="verde-cash2" d="M14.9,57.8c3.7,0.7,6.6,3.6,7.3,7.3l-1.8,0.1c-3,0-5.5-2.4-5.5-5.5c0,0,0,0,0,0L14.9,57.8z"/>
	</g>
	<g id="Layer_34">
		<path class="verde-cash4" d="M78.1,25c0-3.5-2.8-6.4-6.3-6.4c0,0,0,0-0.1,0c-17.7,0-36.7-0.2-53.8-0.2c-3.6,0-6.5,2.9-6.5,6.5c0,0,0,0,0,0
			v36.2c0,4.1,3.3,7.4,7.4,7.4c0,0,0.1,0,0.1,0c11.9-0.2,41-0.1,52.1-0.1c4-0.1,7.1-3.2,7.2-7.2C78.2,59.8,78.1,27,78.1,25z"/>
	</g>
	<g id="Layer_32">
		<path class="verde-cash4" d="M20.4,65.2c-3,0-5.5-2.4-5.5-5.5c0,0,0,0,0,0v-1.9c3.7,0.7,6.6,3.6,7.3,7.3L20.4,65.2z"/>
	</g>
	<g id="Layer_31">
		<path class="verde-cash4" d="M74.8,60c-0.2,2.9-2.6,5.2-5.5,5.2h-1.8c0.7-3.8,3.6-6.7,7.3-7.5V60z"/>
	</g>
	<g id="Layer_30">
		<path class="verde-cash4" d="M44.8,22c5.8,0,11.6,0,17,0h2.1C64,26.6,69.8,32.5,74.8,33v0.2c0,5.5,0,15.7,0,21c-5.7,0.8-10.1,5.3-10.9,11
			h-19c-7.1,0-14.1,0-19,0c-0.8-5.6-5.2-10-10.8-10.8V32.8C20.7,32,25.1,27.7,26,22C32,22,38.4,22,44.8,22z"/>
	</g>
	<g id="Layer_28">
		<path class="verde-cash4" d="M44.8,40.1L44.8,40.1c1.4,0.1,2.6,0.6,3.7,1.2l0.8-1.7l0.3-0.6c-1-0.5-2-0.9-3.1-1.1c-0.2,0-0.3-0.1-0.5-0.1
			v-2.3h-2.1v2.4c-1.9,0.4-3.1,1.5-3.1,3.2c0,2.5,2.4,2.9,4.1,3.4c1,0.3,1.8,0.6,1.8,1.3s-0.6,1-1.4,1h-0.4
			c-1.4-0.2-2.6-0.7-3.7-1.6L40,47.4c0.2,0.1,0.4,0.2,0.5,0.4c1,0.7,2.1,1.1,3.3,1.3v2.5h2.1v-2.4c1.1,0,2.2-0.5,2.9-1.4
			c0.5-0.5,0.7-1.3,0.7-2c0-2.9-3.1-3.2-4.8-3.8c-0.7-0.2-1.1-0.5-1.1-1.1S44,40.1,44.8,40.1z"/>
	</g>
	<g id="Layer_27">
		<path class="verde-cash4" d="M44.8,58.5c8.3,0,15-6.7,15-15s-6.7-15-15-15s-15,6.7-15,15S36.5,58.5,44.8,58.5z"/>
	</g>
	<g id="Layer_26">
		<circle class="verde-cash4" cx="44.8" cy="43.5" r="11.1"/>
	</g>
	<g id="Layer_24">
		<line class="verde-cash4" x1="44.8" y1="58.5" x2="44.8" y2="65.2"/>
	</g>
	<g id="Layer_43">
		<path class="verde-cash2" d="M74.8,26.3v3c-4.3-1-5.8-3.6-7.4-7.3c0.8,0,2.3,0,3.1,0C72.8,22,74.7,23.9,74.8,26.3
			C74.8,26.3,74.8,26.3,74.8,26.3z"/>
	</g>
	<g id="Layer_36">
		<path class="verde-cash2" d="M19.2,22c0.4,0,2.8,0,3.1,0c-1.5,3.5-3.2,6.6-7.4,7.3v-3C14.9,24,16.8,22.1,19.2,22C19.2,22,19.2,22,19.2,22z
			"/>
	</g>
	<g id="Layer_33">
		<path class="verde-cash4" d="M14.9,26.3c0-2.4,1.9-4.3,4.2-4.3c0,0,0,0,0.1,0c0.4,0,2.8,0,3.1,0c-1.5,3.5-3.2,6.6-7.4,7.3L14.9,26.3z"/>
	</g>
	<g id="Layer_29">
		<path class="verde-cash4" d="M74.8,29.3c-4.3-1-5.8-3.6-7.4-7.3c0.8,0,2.3,0,3.1,0c2.4,0,4.3,1.9,4.3,4.2c0,0,0,0,0,0.1V29.3z"/>
	</g>
	<g id="Layer_25">
		<line class="verde-cash4" x1="44.8" y1="28.5" x2="44.8" y2="22"/>
	</g>
</g>
<g id="billetebajo">
	<g id="Layer_23">
		<path d="M67.1,79.1c0,4-3.2,7.2-7.2,7.2c-11.1,0-40.2-0.1-52.1,0.1c-4.1,0.1-7.4-3.2-7.5-7.3c0,0,0-0.1,0-0.1V42.8
			c0-3.6,2.9-6.5,6.5-6.5c17.1,0,36.1,0.2,53.8,0.2c3.5,0,6.4,2.8,6.4,6.3c0,0,0,0,0,0.1C66.9,44.8,67,77.6,67.1,79.1z M63.6,72
			c0-5.3,0-15.5,0-21v-0.2c-5-0.5-10.7-6.4-10.8-10.9h-2.1c-5.4,0-11.2,0-17,0c-6.4,0-12.8,0-18.8,0c-0.9,5.6-5.4,10-11,10.8v21.5
			c5.6,0.8,10,5.2,10.8,10.8c4.9,0,11.9,0,19,0h19C53.4,77.3,57.9,72.8,63.6,72z M63.6,77.8v-2.3c-3.7,0.8-6.6,3.7-7.3,7.5h1.8
			C61,82.9,63.4,80.7,63.6,77.8z M63.6,47.2v-3c0-2.4-1.9-4.3-4.2-4.3c0,0,0,0-0.1,0h-3.1C57.8,43.5,59.2,46.2,63.6,47.2z
			 M11.1,39.9H8.1c-2.4,0-4.3,1.9-4.3,4.2c0,0,0,0,0,0.1v3C8,46.4,9.6,43.3,11.1,39.9z M9.3,83l1.8-0.1c-0.7-3.7-3.6-6.6-7.3-7.3
			v1.9C3.7,80.5,6.2,82.9,9.3,83C9.2,83,9.2,83,9.3,83z"/>
	</g>
	<g id="Layer_12">
		<path class="verde-cash4" d="M3.8,44.2c0-2.4,1.9-4.3,4.2-4.3c0,0,0,0,0.1,0h3.1c-1.5,3.4-3.2,6.6-7.4,7.3V44.2z"/>
	</g>
	<g id="Layer_8">
		<path class="verde-cash4" d="M63.5,47.2c-4.3-1-5.8-3.6-7.4-7.3h3.1c2.4,0,4.3,1.9,4.3,4.2c0,0,0,0,0,0.1L63.5,47.2z"/>
	</g>
	<g id="Layer_22">
		<path class="verde-cash1" d="M63.5,51c0,5.5,0,15.7,0,21c-5.7,0.8-10.1,5.3-10.9,11h-19v-6.7c8.3-0.6,14.5-7.7,13.9-16
			c-0.5-7.5-6.5-13.4-13.9-13.9v-6.5l0,0c5.8,0,11.6,0,17,0h2.1c0.1,4.5,5.8,10.5,10.8,10.9V51z"/>
	</g>
	<g id="Layer_21">
		<path class="verde-cash2" d="M63.5,75.5v2.3C63.4,80.7,61,82.9,58,83h-1.8C56.9,79.2,59.8,76.2,63.5,75.5z"/>
	</g>
	<g id="Layer_20">
		<path class="verde-cash2" d="M63.5,44.2v3c-4.3-1-5.8-3.6-7.4-7.3h3.1C61.6,39.8,63.5,41.7,63.5,44.2C63.6,44.1,63.6,44.1,63.5,44.2z"/>
	</g>
	<g id="Layer_15">
		<path class="verde-cash2" d="M8.1,39.9h3.1c-1.5,3.4-3.2,6.6-7.4,7.3v-3C3.7,41.8,5.6,39.9,8.1,39.9C8,39.9,8,39.9,8.1,39.9z"/>
	</g>
	<g id="Layer_19">
		<path d="M33.7,46.3c8.3,0,15,6.7,15,15s-6.7,15-15,15s-15-6.7-15-15S25.4,46.3,33.7,46.3z M44.8,61.3c0-6.2-5-11.1-11.2-11.1
			c-6.2,0-11.1,5-11.1,11.2c0,6.2,5,11.1,11.1,11.1C39.8,72.5,44.8,67.5,44.8,61.3C44.8,61.3,44.8,61.3,44.8,61.3z"/>
	</g>
	<g id="Layer_18">
		<path class="verde-cash3" d="M33.7,50.2c6.2,0,11.1,5,11.1,11.2c0,6.2-5,11.1-11.2,11.1s-11.1-5-11.1-11.2c0,0,0,0,0,0
			C22.5,55.1,27.5,50.2,33.7,50.2z M38.1,57.4l0.3-0.6c-1-0.5-2-0.9-3.1-1.1c-0.2,0-0.3-0.1-0.5-0.1v-2.3h-2v2.4
			c-1.9,0.4-3.1,1.5-3.1,3.2c0,2.5,2.4,2.9,4.1,3.4c1,0.3,1.8,0.6,1.8,1.3s-0.6,1-1.4,1h-0.4c-1.4-0.2-2.6-0.7-3.7-1.6l-1.1,2.2
			c0.2,0.1,0.4,0.2,0.5,0.4c1,0.7,2.1,1.1,3.3,1.3v2.5h2.1V67c1.1,0,2.2-0.5,2.9-1.4c0.5-0.5,0.7-1.3,0.7-2c0-2.9-3.1-3.2-4.8-3.8
			c-0.7-0.2-1.1-0.5-1.1-1.1s0.4-0.8,1.1-0.8h0.1c1.3,0.1,2.5,0.5,3.6,1.2L38.1,57.4z"/>
	</g>
	<g id="Layer_17">
		<path d="M38.4,56.8l-0.3,0.6l-0.8,1.7c-1.1-0.7-2.3-1.1-3.6-1.2h-0.1c-0.7,0-1.1,0.3-1.1,0.8s0.4,0.9,1.1,1.1
			c1.7,0.6,4.8,0.9,4.8,3.8c0,0.7-0.2,1.5-0.7,2c-0.7,0.9-1.8,1.4-2.9,1.4v2.4h-2v-2.5c-1.2-0.2-2.3-0.6-3.3-1.3
			c-0.1-0.2-0.3-0.3-0.5-0.4l1.1-2.2c1.1,0.9,2.3,1.4,3.7,1.6h0.4c0.8,0,1.4-0.4,1.4-1c0-0.6-0.8-1-1.8-1.3
			c-1.7-0.5-4.1-0.9-4.1-3.4c0-1.7,1.2-2.8,3.1-3.2v-2.4h2.1v2.3c0.2,0,0.3,0.1,0.5,0.1C36.4,55.9,37.5,56.2,38.4,56.8z"/>
	</g>
	<g id="Layer_16">
		<path class="verde-cash3" d="M33.7,76.3V83c-7.1,0-14.1,0-19,0c-0.8-5.6-5.2-10.1-10.8-10.8V50.7c5.6-0.8,10.1-5.2,11-10.8
			c6,0,12.4,0,18.8,0l0,0v6.5c-8.3,0.5-14.6,7.6-14.1,15.8C20,69.8,26,75.9,33.7,76.3z"/>
	</g>
	<g id="Layer_14">
		<path class="verde-cash2" d="M11.1,82.9L9.3,83c-3,0-5.5-2.4-5.5-5.5c0,0,0,0,0,0v-1.9C7.5,76.3,10.3,79.2,11.1,82.9z"/>
	</g>
	<g id="Layer_13">
		<path class="verde-cash4" d="M66.9,42.9c0-3.5-2.8-6.4-6.3-6.4c0,0,0,0-0.1,0c-17.7,0-36.6-0.2-53.8-0.2c-3.6,0-6.5,2.9-6.5,6.5
			c0,0,0,0,0,0V79c0,4.1,3.4,7.4,7.4,7.4c0,0,0,0,0.1,0c11.9-0.2,41-0.1,52.1-0.1c4-0.1,7.1-3.2,7.2-7.2
			C67,77.6,66.9,44.8,66.9,42.9z"/>
	</g>
	<g id="Layer_11">
		<path class="verde-cash4" d="M9.3,83c-3,0-5.5-2.4-5.5-5.5c0,0,0,0,0,0v-1.9c3.7,0.7,6.6,3.6,7.3,7.3L9.3,83z"/>
	</g>
	<g id="Layer_10">
		<path class="verde-cash4" d="M63.5,77.8C63.4,80.7,61,82.9,58,83h-1.8c0.7-3.8,3.6-6.7,7.3-7.5V77.8z"/>
	</g>
	<g id="Layer_9">
		<path class="verde-cash4" d="M33.7,39.8c5.8,0,11.6,0,17,0h2.1c0.1,4.5,5.8,10.5,10.8,10.9v0.2c0,5.5,0,15.7,0,21
			c-5.7,0.8-10.1,5.3-10.9,11h-19c-7.1,0-14.1,0-19,0c-0.8-5.6-5.2-10-10.8-10.8V50.7c5.6-0.8,10.1-5.2,11-10.8
			C20.8,39.8,27.2,39.8,33.7,39.8z"/>
	</g>
	<g id="Layer_7">
		<path class="verde-cash4" d="M33.6,57.9h0.2c1.3,0.1,2.5,0.5,3.6,1.2l0.8-1.7l0.3-0.6c-1-0.5-2-0.9-3.1-1.1c-0.2,0-0.3-0.1-0.5-0.1v-2.3
			h-2.1v2.4c-1.9,0.4-3.1,1.5-3.1,3.2c0,2.5,2.4,2.9,4.1,3.4c1,0.3,1.8,0.6,1.8,1.3s-0.6,1-1.4,1h-0.4c-1.4-0.2-2.6-0.7-3.7-1.6
			l-1.1,2.2c0.2,0.1,0.4,0.2,0.5,0.4c1,0.7,2.1,1.1,3.3,1.3v2.5h2.1V67c1.1,0,2.2-0.5,2.9-1.4c0.5-0.5,0.7-1.3,0.7-2
			c0-2.9-3.1-3.2-4.8-3.8c-0.7-0.2-1.1-0.5-1.1-1.1S32.9,57.9,33.6,57.9z"/>
	</g>
	<g id="Layer_6">
		<path class="verde-cash4" d="M33.7,76.3c8.3,0,15-6.7,15-15s-6.7-15-15-15s-15,6.7-15,15S25.4,76.3,33.7,76.3L33.7,76.3z"/>
	</g>
	<g id="Layer_5">
		<circle class="verde-cash4" cx="33.7" cy="61.3" r="11.1"/>
	</g>
	<g id="Layer_3">
		<line class="verde-cash4" x1="33.7" y1="76.3" x2="33.7" y2="83"/>
	</g>
	<g id="Layer_4">
		<line class="verde-cash4" x1="33.7" y1="46.3" x2="33.7" y2="39.8"/>
	</g>
</g>
</svg>
