<?xml version="1.0" encoding="utf-8"?>
<!-- Generator: Adobe Illustrator 23.0.4, SVG Export Plug-In . SVG Version: 6.00 Build 0)  -->
<svg version="1.1" id="Layer_1" xmlns="http://www.w3.org/2000/svg" xmlns:xlink="http://www.w3.org/1999/xlink" x="0px" y="0px"
	 viewBox="0 0 48.2 48.3" style="enable-background:new 0 0 48.2 48.3;" xml:space="preserve">
<style type="text/css">
	.st0{fill:#A4BE95;}
	.st1{fill:#68A0CB;}
	.st2{fill:#7B959C;}
</style>
<g>
	<path class="st0" d="M46,24.8H35.6V12.8H46c0.5,0,0.7,0.6,0.4,0.9l-4.4,5.1l4.4,5.1C46.7,24.2,46.5,24.8,46,24.8z"/>
	<rect x="1" y="0.9" class="st0" width="6.4" height="46.4"/>
	<path class="st1" d="M21.5,18.8h-6.3c-1.5,0-2.6-1.2-2.6-2.6V9.9c0-1.5,1.2-2.6,2.6-2.6h6.3c1.5,0,2.6,1.2,2.6,2.6v6.3
		C24.1,17.6,22.9,18.8,21.5,18.8z"/>
	<path class="st2" d="M28.5,24.1H14.1c-0.9,0-1.6,0.7-1.6,1.6v1.9c0,0.9,0.7,1.6,1.6,1.6h14.4c0.9,0,1.6-0.7,1.6-1.6v-1.9
		C30.1,24.8,29.4,24.1,28.5,24.1z"/>
	<path class="st2" d="M28.5,32.4H14.1c-0.9,0-1.6,0.7-1.6,1.6v1.9c0,0.9,0.7,1.6,1.6,1.6h14.4c0.9,0,1.6-0.7,1.6-1.6V34
		C30.1,33.1,29.4,32.4,28.5,32.4z"/>
</g>
<g>
	<path d="M15.1,19.5h6.4c2,0,3.6-1.6,3.6-3.6v-6c0-2-1.6-3.6-3.6-3.6h-6.4c-2,0-3.6,1.6-3.6,3.6V16C11.5,17.9,13.1,19.5,15.1,19.5z
		 M13.4,9.9c0-0.9,0.7-1.6,1.6-1.6h6.4C22.3,8.3,23,9,23,9.9V16c0,0.9-0.7,1.6-1.6,1.6H15c-0.9,0-1.6-0.7-1.6-1.6V9.9z"/>
	<path d="M43.3,18.7l3.8-4.3c0.4-0.4,0.5-1.1,0.2-1.6c-0.2-0.5-0.8-0.9-1.4-0.9h-9.5V0.1h-28H0v48.1h8.4h28.1V25.5H46
		c0.6,0,1.1-0.3,1.4-0.9s0.2-1.2-0.2-1.6L43.3,18.7z M1.9,46.3V2h4.5v44.3H1.9z M34.6,46.3H8.4V2h26.2v9.9v13.6V46.3z M36.5,23.6
		v-9.7h8.6l-4.3,4.9l4.3,4.9h-8.6V23.6z"/>
	<path d="M28.5,23.2H14c-1.4,0-2.5,1.1-2.5,2.5v1.9c0,1.4,1.1,2.5,2.5,2.5h14.5c1.4,0,2.5-1.1,2.5-2.5v-1.9
		C31,24.3,29.9,23.2,28.5,23.2z M29.1,27.6c0,0.3-0.3,0.6-0.6,0.6H14c-0.3,0-0.6-0.3-0.6-0.6v-1.9c0-0.3,0.3-0.6,0.6-0.6h14.5
		c0.3,0,0.6,0.3,0.6,0.6V27.6z"/>
	<path d="M28.5,31.5H14c-1.4,0-2.5,1.1-2.5,2.5v1.9c0,1.4,1.1,2.5,2.5,2.5h14.5c1.4,0,2.5-1.1,2.5-2.5V34
		C31,32.7,29.9,31.5,28.5,31.5z M29.1,35.9c0,0.3-0.3,0.6-0.6,0.6H14c-0.3,0-0.6-0.3-0.6-0.6V34c0-0.3,0.3-0.6,0.6-0.6h14.5
		c0.3,0,0.6,0.3,0.6,0.6V35.9z"/>
</g>
</svg>
