<?xml version="1.0" encoding="utf-8"?>
<!-- Generator: Adobe Illustrator 23.0.4, SVG Export Plug-In . SVG Version: 6.00 Build 0)  -->
<svg version="1.1" id="Layer_1" xmlns="http://www.w3.org/2000/svg" xmlns:xlink="http://www.w3.org/1999/xlink" x="0px" y="0px"
	 viewBox="0 0 57.7 57.9" style="enable-background:new 0 0 57.7 57.9;" xml:space="preserve">
<style type="text/css">
	.inversion{fill:#BBBDBF;}
	.inversion1{fill:#808184;}
</style>
<g>
	<g>
		<path class="inversion" d="M29.1,56.7H1.6V4.1c0-1.5,1.2-2.7,2.7-2.7h22.1c1.5,0,2.7,1.2,2.7,2.7L29.1,56.7z"/>
	</g>
	<g>
		<path class="inversion1" d="M23.2,56.7h5.8l0-52.5c0-1.5-1.2-2.7-2.7-2.7h-3.2L23.2,56.7z"/>
	</g>
	<g>
		<path class="inversion1" d="M29.1,56.7h27.5V25.5c0-1.5-1.2-2.7-2.7-2.7H31.7c-1.5,0-2.7,1.2-2.7,2.7L29.1,56.7z"/>
	</g>
</g>
<g>
	<rect x="6.3" y="27.9" width="4.8" height="2.3"/>
	<rect x="6.3" y="34.8" width="4.8" height="2.3"/>
	<rect x="6.3" y="41.7" width="4.8" height="2.3"/>
	<rect x="45.3" y="27.9" width="6.7" height="2.3"/>
	<rect x="45.3" y="34.8" width="6.7" height="2.3"/>
	<rect x="45.3" y="41.7" width="6.7" height="2.3"/>
	<rect x="35.2" y="27.9" width="6.7" height="2.3"/>
	<rect x="35.2" y="34.8" width="6.7" height="2.3"/>
	<rect x="35.2" y="41.7" width="6.7" height="2.3"/>
	<rect x="45.3" y="48.6" width="6.7" height="2.3"/>
	<rect x="35.2" y="48.6" width="6.7" height="2.3"/>
	<rect x="6.3" y="48.6" width="4.8" height="2.3"/>
	<rect x="6.3" y="7.4" width="4.8" height="2.3"/>
	<rect x="6.3" y="14.3" width="4.8" height="2.3"/>
	<rect x="6.3" y="21.2" width="4.8" height="2.3"/>
	<rect x="13.1" y="27.9" width="4.8" height="2.3"/>
	<rect x="13.1" y="34.8" width="4.8" height="2.3"/>
	<rect x="13.1" y="41.7" width="4.8" height="2.3"/>
	<rect x="13.1" y="48.6" width="4.8" height="2.3"/>
	<rect x="13.1" y="7.4" width="4.8" height="2.3"/>
	<rect x="13.1" y="14.3" width="4.8" height="2.3"/>
	<rect x="13.1" y="21.2" width="4.8" height="2.3"/>
	<rect x="20" y="27.9" width="4.8" height="2.3"/>
	<rect x="20" y="34.8" width="4.8" height="2.3"/>
	<rect x="20" y="41.7" width="4.8" height="2.3"/>
	<rect x="20" y="48.6" width="4.8" height="2.3"/>
	<rect x="20" y="7.4" width="4.8" height="2.3"/>
	<rect x="20" y="14.3" width="4.8" height="2.3"/>
	<rect x="20" y="21.2" width="4.8" height="2.3"/>
	<path d="M53.9,21.7H31.7c-0.5,0-1,0.1-1.5,0.3V4.1c0-2.1-1.7-3.8-3.8-3.8H4.3C2.2,0.3,0.4,2,0.4,4.1v53.7h27.5h2.3h27.5V25.5
		C57.7,23.4,56,21.7,53.9,21.7z M2.7,55.5V4.1c0-0.8,0.7-1.5,1.5-1.5h22.1c0.8,0,1.5,0.7,1.5,1.5v21c0,0.1,0,0.2,0,0.3l0,30H2.7z
		 M55.4,55.5H30.2V25.2c0.1-0.3,0.2-0.6,0.4-0.8c0.3-0.3,0.7-0.4,1.1-0.4h22.2c0.8,0,1.5,0.7,1.5,1.5V55.5z"/>
</g>
</svg>
