<?xml version="1.0" encoding="utf-8"?>
<!-- Generator: Adobe Illustrator 23.0.4, SVG Export Plug-In . SVG Version: 6.00 Build 0)  -->
<svg version="1.1" xmlns="http://www.w3.org/2000/svg" xmlns:xlink="http://www.w3.org/1999/xlink" x="0px" y="0px"
	 viewBox="0 0 40.1 40.3" style="enable-background:new 0 0 40.1 40.3;" xml:space="preserve">
<style type="text/css">
	.st0{fill:#69A0CB;}
	.st1{fill:#FFFFFF;}
	.st2{fill:#E0E1E1;}
	.st3{fill:#7C959C;}
	.st4{fill:#7B8A8F;}
	.st5{fill:#DAE3EA;}
	.st6{fill:#C9C5BD;}
	.st7{fill:#4892C3;}
	.st8{fill:#ABBED7;}
	.st9{fill:#7F9FC3;}
	.st10{fill:#A5BE95;}
	.st11{fill:#B6CE72;}
</style>
<g id="Layer_1">
	<g>
		<g>
			<rect x="0.9" y="1.1" class="st1" width="38.1" height="28.8"/>
		</g>
		<g>
			<path class="st8" d="M20.1,11.6c-4.7,0-8.4,4.7-6.5,9.7c0.7,1.7,2.1,3.1,3.8,3.8c5,1.9,9.7-1.8,9.7-6.5l-7,0L20.1,11.6z"/>
			<path class="st0" d="M23.9,9.7c2.5,0.6,4.5,2.6,5.1,5.2c0.1,0.2-0.1,0.5-0.4,0.5h-4.8c-0.2,0-0.4-0.2-0.4-0.4v-4.9
				C23.5,9.8,23.7,9.6,23.9,9.7z"/>
			<rect x="0.8" y="0.8" class="st3" width="38.5" height="4.6"/>
		</g>
	</g>
</g>
<g id="Layer_2">
	<g>
		<path d="M12.8,21.6c0.7,2,2.3,3.5,4.3,4.3c1,0.4,2,0.6,3,0.6c1.6,0,3.1-0.5,4.4-1.4c2.1-1.5,3.4-3.9,3.4-6.4v-0.8h-7v-7h-0.8
			c-2.6,0-5,1.3-6.4,3.4C12.2,16.3,11.9,19,12.8,21.6z M15,15.1c1-1.5,2.6-2.4,4.3-2.6v6.9h6.9c-0.2,1.7-1.2,3.3-2.6,4.3
			c-1.7,1.2-3.9,1.4-5.9,0.6c-1.5-0.6-2.7-1.8-3.3-3.3C13.6,19,13.8,16.8,15,15.1z"/>
		<path d="M23.8,16.1h4.8c0.4,0,0.7-0.2,0.9-0.5c0.2-0.3,0.3-0.6,0.2-1c-0.7-2.9-2.9-5.1-5.7-5.8h0c-0.4-0.1-0.7,0-1,0.2
			c-0.3,0.2-0.5,0.6-0.5,0.9v4.9C22.7,15.6,23.2,16.1,23.8,16.1z M24.3,10.6c1.8,0.6,3.2,2.1,3.8,3.9h-3.8V10.6z"/>
		<path d="M0,0v6.2v24.4h19.2v8.1h-8.8v1.6h19.3v-1.6h-8.8v-8.1h19.3V6.2V0H0z M1.6,1.6h36.9v3H1.6V1.6z M38.5,29H1.6V6.2h36.9V29z"
			/>
	</g>
</g>
</svg>
