<?xml version="1.0" encoding="utf-8"?>
<!-- Generator: Adobe Illustrator 23.0.4, SVG Export Plug-In . SVG Version: 6.00 Build 0)  -->
<svg version="1.1" xmlns="http://www.w3.org/2000/svg" xmlns:xlink="http://www.w3.org/1999/xlink" x="0px" y="0px"
	 viewBox="0 0 36.5 36.4" style="enable-background:new 0 0 36.5 36.4;" xml:space="preserve">
<style type="text/css">
	.st0{fill:#69A0CB;}
	.st1{fill:#FFFFFF;}
	.st2{fill:#E0E1E1;}
	.st3{fill:#7C959C;}
	.st4{fill:#7B8A8F;}
	.st5{fill:#DAE3EA;}
	.st6{fill:#C9C5BD;}
	.st7{fill:#4892C3;}
	.st8{fill:#ABBED7;}
	.st9{fill:#7F9FC3;}
	.st10{fill:#A5BE95;}
	.st11{fill:#B6CE72;}
</style>
<g id="Layer_1">
	<g>
		<g>
			<polygon class="st1" points="34.6,35.5 7.9,35.5 7.9,1.3 27.8,1.3 31.9,5.7 35.1,8.4 			"/>
		</g>
		<g>
			<path class="st3" d="M35.2,8h-6.6c-0.1,0-0.1-0.1-0.1-0.1V1.2c0-0.1,0.1-0.2,0.2-0.1l6.6,6.6C35.4,7.9,35.4,8,35.2,8z"/>
			<path class="st0" d="M9.6,26.9H1c-0.1,0-0.1-0.1-0.1-0.1V5.6h8.8v21.2C9.7,26.8,9.6,26.9,9.6,26.9z"/>
			<path class="st7" d="M9.6,26.9H5.4c-0.1,0-0.1-0.1-0.1-0.1V5.6h4.4v21.2C9.7,26.8,9.6,26.9,9.6,26.9z"/>
			<path class="st10" d="M8.4,0.9H2.2c-0.7,0-1.3,0.6-1.3,1.3v3.4h8.8V2.2C9.7,1.5,9.1,0.9,8.4,0.9z"/>
		</g>
	</g>
	<path class="st1" d="M9.6,27l-4.3,7.4c0,0-0.1,0-0.1,0L1,27c0,0,0-0.1,0.1-0.1h8.5C9.6,26.9,9.7,26.9,9.6,27z"/>
</g>
<g id="Layer_2">
	<g>
		<rect x="13.9" y="11.8" width="15" height="1.8"/>
		<rect x="13.9" y="17.2" width="15" height="1.8"/>
		<rect x="13.9" y="21.6" width="15" height="1.8"/>
		<rect x="20.2" y="25.9" width="8.6" height="1.8"/>
		<path d="M35.9,7l-2.7-2.7l-3.8-3.8c-0.2-0.2-0.5-0.3-0.7-0.3c-0.2,0-0.3-0.1-0.5-0.1h-19C8.9,0.1,8.6,0,8.4,0H2.2C1,0,0,1,0,2.2
			v2.5v1.8v20.2c0,0,0,0,0,0L-0.1,27l4.5,7.8c0.2,0.3,0.5,0.5,0.9,0.5l0.6,0L6.6,34v0.5c0,1,0.8,1.9,1.9,1.9h26.1
			c1,0,1.9-0.8,1.9-1.9V8.3C36.5,7.8,36.3,7.3,35.9,7z M33.3,7.1h-3.9V3.2l2.7,2.7L33.3,7.1z M1.8,2.2C1.8,2,2,1.8,2.2,1.8h4.4h1.7
			c0.1,0,0.2,0,0.3,0.1C8.7,2,8.8,2.1,8.8,2.2v2.5H8.5H6.6H1.8V2.2z M1.8,6.5h4.8h1.9h0.3v19.4H8.5H6.6H1.8V6.5z M5.3,32.6l-2.8-4.8
			h4.1h1.5l-1.5,2.5L5.3,32.6z M34.6,34.6l-26.1,0l0-3.7l1.9-3.4l0,0c0.1-0.1,0.1-0.2,0.1-0.3c0-0.1,0.1-0.2,0.1-0.4V6.5V4.7V2.2
			c0-0.1,0-0.2,0-0.3l17,0v5.9c0,0.6,0.5,1,1,1h6L34.6,34.6C34.6,34.6,34.6,34.6,34.6,34.6z"/>
	</g>
</g>
</svg>
