<?xml version="1.0" encoding="utf-8"?>
<!-- Generator: Adobe Illustrator 23.0.4, SVG Export Plug-In . SVG Version: 6.00 Build 0)  -->
<svg version="1.1" xmlns="http://www.w3.org/2000/svg" xmlns:xlink="http://www.w3.org/1999/xlink" x="0px" y="0px"
	 viewBox="0 0 42.1 42.1" style="enable-background:new 0 0 42.1 42.1;" xml:space="preserve">
<style type="text/css">
	.st0{fill:#69A0CB;}
	.st1{fill:#FFFFFF;}
	.st2{fill:#E0E1E1;}
	.st3{fill:#7C959C;}
	.st4{fill:#7B8A8F;}
	.st5{fill:#DAE3EA;}
	.st6{fill:#C9C5BD;}
	.st7{fill:#4892C3;}
	.st8{fill:#ABBED7;}
	.st9{fill:#7F9FC3;}
	.st10{fill:#A5BE95;}
	.st11{fill:#B6CE72;}
</style>
<g id="Layer_1">
	<g>
		<path class="st0" d="M41.1,23.7c0,0.3-0.3,0.6-0.6,0.6h-2.9l-0.1,0.6c-0.4,1.8-1.1,3.5-2.1,5.1L35,30.6l2,2c0.2,0.2,0.2,0.6,0,0.9
			l-3.7,3.7c-0.2,0.2-0.6,0.2-0.9,0l-2-2l-0.5,0.3c-1.6,1-3.3,1.7-5.1,2.1l-0.6,0.1v2.9c0,0.3-0.3,0.6-0.6,0.6h-5.2
			c-0.3,0-0.6-0.3-0.6-0.6v-2.9l-0.6-0.1c-1.8-0.4-3.5-1.1-5.1-2.1l-0.5-0.3l-2,2c-0.2,0.2-0.6,0.2-0.9,0L5,33.5
			c-0.2-0.2-0.2-0.6,0-0.9l2-2L6.7,30c-1-1.6-1.7-3.3-2.1-5.1l-0.1-0.6H1.5c-0.3,0-0.6-0.3-0.6-0.6v-5.2c0-0.3,0.3-0.6,0.6-0.6h2.9
			l0.1-0.6c0.4-1.8,1.1-3.5,2.1-5.1L7,11.6l-2-2C4.7,9.3,4.7,8.9,5,8.7L8.6,5c0.2-0.2,0.6-0.2,0.9,0l2,2l0.5-0.3
			c1.6-1,3.3-1.7,5.1-2.1l0.6-0.1V1.6c0-0.3,0.3-0.6,0.6-0.6h5.2c0.3,0,0.6,0.3,0.6,0.6v2.9l0.6,0.1c1.8,0.4,3.5,1.1,5.1,2.1
			l0.5,0.3l2-2c0.2-0.2,0.6-0.2,0.9,0l3.7,3.7c0.2,0.2,0.2,0.6,0,0.9l-2,2l0.3,0.5c1,1.6,1.7,3.3,2.1,5.1l0.1,0.6h2.9
			c0.3,0,0.6,0.3,0.6,0.6V23.7z"/>
		<g>
			<g>
				<path class="st1" d="M29.3,17.2c0-4.9-4.5-8.8-9.7-7.8c-3.2,0.7-5.6,3.3-6.1,6.5c-0.5,3,0.8,5.7,2.8,7.3c0.6,0.5,0.9,1.2,0.9,2
					l0,0.7c0,0.8,0.7,1.5,1.5,1.5H24c0.8,0,1.5-0.7,1.5-1.5l0-0.7c0-0.8,0.3-1.5,0.9-2C28.2,21.8,29.3,19.7,29.3,17.2z"/>
			</g>
			<g>
				<path class="st2" d="M21.4,27.5H24c0.8,0,1.5-0.7,1.5-1.5l0-0.7c0-0.8,0.3-1.5,0.9-2c1.8-1.5,2.9-3.6,2.9-6.1
					c0-4.4-3.6-7.9-7.9-7.9c0.4,0.7,1,1.2,1.6,1.8c1.3,1.2,2,3,2.1,4.8c0,1.8-0.6,3.6-1.5,5.1c-0.4,0.7-1,1.3-1.4,2
					C21.3,24.3,21.1,26,21.4,27.5z"/>
			</g>
			<g>
				<path class="st3" d="M23.2,30.2h-3.7c-0.5,0-1-0.4-1-1V28c0-0.3,0.2-0.5,0.5-0.5h4.6c0.3,0,0.5,0.2,0.5,0.5v1.2
					C24.2,29.7,23.8,30.2,23.2,30.2z"/>
			</g>
			<g>
				<path class="st4" d="M23.2,32.8h-3.7c-0.5,0-1-0.4-1-1v-1.2c0-0.3,0.2-0.5,0.5-0.5h4.6c0.3,0,0.5,0.2,0.5,0.5v1.2
					C24.2,32.4,23.8,32.8,23.2,32.8z"/>
			</g>
		</g>
	</g>
</g>
<g id="Layer_2">
	<g>
		<path d="M26.7,10.6c-2-1.6-4.6-2.2-7.2-1.7c-3.4,0.7-6,3.5-6.6,7c-0.5,3,0.7,5.9,3,7.9c0.5,0.4,0.7,0.9,0.7,1.5V26
			c0,0.9,0.5,1.6,1.3,1.9c0,0,0,0.1,0,0.1v1.1c0,0.3,0.1,0.6,0.3,0.9c-0.2,0.2-0.3,0.4-0.3,0.7v1.1c0,0.9,0.7,1.6,1.6,1.6h3.6
			c0.9,0,1.6-0.7,1.6-1.6v-1.1c0-0.3-0.1-0.5-0.3-0.7c0.2-0.3,0.3-0.6,0.3-0.9V28c0,0,0-0.1,0-0.1c0.8-0.3,1.3-1,1.3-1.9l0-0.7
			c0-0.6,0.3-1.2,0.7-1.6c2-1.6,3.1-4,3.1-6.5C29.9,14.6,28.7,12.2,26.7,10.6z M23.6,31.8c0,0.3-0.2,0.5-0.5,0.5h-3.6
			c-0.3,0-0.5-0.2-0.5-0.5l0-1.1l0.5,0c0,0,0,0,0,0h3.6c0,0,0.1,0,0.1,0l0.4,0V31.8z M23.6,29.1c0,0.3-0.2,0.5-0.5,0.5h-3.6
			c-0.3,0-0.5-0.2-0.5-0.5l0-1.1h4.5V29.1z M26,22.9c-0.7,0.6-1.1,1.5-1.1,2.4l0,0.7c0,0.5-0.4,0.9-0.9,0.9h-0.3h-4.5h-0.3
			c-0.5,0-0.9-0.4-0.9-0.9v-0.7c0-0.9-0.4-1.8-1.1-2.4c-2-1.7-3-4.2-2.6-6.8c0.5-3,2.8-5.4,5.7-6.1c0.5-0.1,1.1-0.2,1.6-0.2
			c1.7,0,3.3,0.6,4.7,1.6c1.7,1.4,2.7,3.5,2.7,5.7C28.7,19.4,27.8,21.5,26,22.9z"/>
		<path d="M39.9,16.4h-1.6c-0.4-1.5-1-2.9-1.8-4.3l1.1-1.1c0.4-0.4,0.6-1,0.6-1.5c0-0.6-0.2-1.1-0.6-1.5l-3.6-3.6
			c-0.8-0.8-2.2-0.8-3.1,0L30,5.5c-1.3-0.8-2.8-1.4-4.3-1.8V2.2c0-1.2-1-2.2-2.2-2.2h-5c-1.2,0-2.2,1-2.2,2.2v1.6
			c-1.5,0.4-2.9,1-4.3,1.8L11,4.4c-0.8-0.8-2.2-0.8-3.1,0L4.4,7.9C4,8.4,3.8,8.9,3.8,9.5c0,0.6,0.2,1.1,0.6,1.5l1.1,1.1
			c-0.8,1.3-1.4,2.8-1.8,4.3H2.2c-1.2,0-2.2,1-2.2,2.2v5c0,1.2,1,2.2,2.2,2.2h1.6c0.4,1.5,1,2.9,1.8,4.3l-1.1,1.1
			c-0.4,0.4-0.6,1-0.6,1.5c0,0.6,0.2,1.1,0.6,1.5l3.6,3.6c0.8,0.8,2.2,0.8,3.1,0l1.1-1.1c1.3,0.8,2.8,1.4,4.3,1.8v1.6
			c0,1.2,1,2.2,2.2,2.2h5c1.2,0,2.2-1,2.2-2.2v-1.6c1.5-0.4,2.9-1,4.3-1.8l1.1,1.1c0.8,0.8,2.2,0.8,3.1,0l3.6-3.6
			c0.4-0.4,0.6-1,0.6-1.5c0-0.6-0.2-1.1-0.6-1.5L36.6,30c0.8-1.3,1.4-2.8,1.8-4.3h1.6c1.2,0,2.2-1,2.2-2.2v-5
			C42.1,17.4,41.1,16.4,39.9,16.4z M40.6,23.6c0,0.3-0.3,0.6-0.6,0.6h-2.8L37,24.8c-0.4,1.7-1.1,3.4-2,4.9l-0.3,0.5l2,2
			c0.2,0.2,0.2,0.6,0,0.9l-3.6,3.6c-0.2,0.2-0.6,0.2-0.9,0l-2-2L29.7,35c-1.5,0.9-3.2,1.6-4.9,2l-0.6,0.1v2.8c0,0.3-0.3,0.6-0.6,0.6
			h-5c-0.3,0-0.6-0.3-0.6-0.6v-2.8L17.3,37c-1.7-0.4-3.4-1.1-4.9-2l-0.5-0.3l-2,2c-0.2,0.2-0.6,0.2-0.9,0l-3.6-3.6
			c-0.2-0.2-0.2-0.6,0-0.9l2-2l-0.3-0.5c-0.9-1.5-1.6-3.2-2-4.9L5,24.2H2.2c-0.3,0-0.6-0.3-0.6-0.6v-5c0-0.3,0.3-0.6,0.6-0.6H5
			l0.1-0.6c0.4-1.7,1.1-3.4,2-4.9l0.3-0.5l-2-2C5.3,9.7,5.3,9.3,5.5,9L9,5.5c0.2-0.2,0.6-0.2,0.9,0l2,2l0.5-0.3
			c1.5-0.9,3.2-1.6,4.9-2L17.9,5V2.2c0-0.3,0.3-0.6,0.6-0.6h5c0.3,0,0.6,0.3,0.6,0.6V5l0.6,0.1c1.7,0.4,3.4,1.1,4.9,2l0.5,0.3l2-2
			c0.2-0.2,0.6-0.2,0.9,0L36.6,9c0.2,0.2,0.2,0.6,0,0.9l-2,2l0.3,0.5c0.9,1.5,1.6,3.2,2,4.9l0.1,0.6h2.8c0.3,0,0.6,0.3,0.6,0.6V23.6
			z"/>
	</g>
</g>
</svg>
