<?xml version="1.0" encoding="utf-8"?>
<!-- Generator: Adobe Illustrator 23.0.4, SVG Export Plug-In . SVG Version: 6.00 Build 0)  -->
<svg version="1.1" xmlns="http://www.w3.org/2000/svg" xmlns:xlink="http://www.w3.org/1999/xlink" x="0px" y="0px"
	 viewBox="0 0 48.3 49.3" style="enable-background:new 0 0 48.3 49.3;" xml:space="preserve">
<style type="text/css">
	.st0{fill:#69A0CB;}
	.st1{fill:#FFFFFF;}
	.st2{fill:#E0E1E1;}
	.st3{fill:#7C959C;}
	.st4{fill:#7B8A8F;}
	.st5{fill:#DAE3EA;}
	.st6{fill:#C9C5BD;}
	.st7{fill:#4892C3;}
	.st8{fill:#ABBED7;}
	.st9{fill:#7F9FC3;}
	.st10{fill:#A5BE95;}
	.st11{fill:#B6CE72;}
</style>
<g id="Layer_1">
	<g>
		<g>
			<path class="st1" d="M30.9,48.7H5.6c-2.9,0-5.3-2.4-5.3-5.3V12.6c0-2.9,2.4-5.3,5.3-5.3h25.3c2.9,0,5.3,2.4,5.3,5.3v30.9
				C36.2,46.3,33.8,48.7,30.9,48.7z"/>
		</g>
		<g>
			<g>
				<path class="st5" d="M32.5,48.3h-4.9v-2.9V10.7V7.7h4.9c1.6,0,2.9,1.3,2.9,2.9v34.7C35.4,47,34.1,48.3,32.5,48.3z"/>
			</g>
			<g>
				<rect x="7.6" y="7.7" class="st6" width="20" height="5.4"/>
			</g>
			<g>
				<circle class="st0" cx="38.4" cy="25" r="8.8"/>
			</g>
			<g>
				<g>
					<path class="st7" d="M39.2,33.6c4.3,0,7.8-3.9,7.8-8.8s-3.5-8.8-7.8-8.8c0,0,3.7,4,3.7,8.8C42.9,29.9,39.2,33.6,39.2,33.6z"/>
				</g>
			</g>
		</g>
	</g>
</g>
<g id="Layer_2">
	<g>
		<rect x="6.4" y="20.1" width="16.9" height="2"/>
		<rect x="6.4" y="28" width="16.9" height="2"/>
		<rect x="6.4" y="24" width="16.9" height="2"/>
		<rect x="6.4" y="39.8" width="8.4" height="2"/>
		<rect x="6.4" y="35.9" width="8.4" height="2"/>
		<path d="M38.4,15.2c-0.7,0-1.4,0.1-2,0.2v-4.7c0-2.2-1.8-3.9-3.9-3.9h-3.9h-4.3V2.9C24.3,1.3,23,0,21.3,0h-7.6
			c-1.6,0-2.9,1.3-2.9,2.9v3.8H6.6H3.9C1.8,6.8,0,8.5,0,10.7v34.7c0,2.2,1.8,3.9,3.9,3.9h28.6c2.2,0,3.9-1.8,3.9-3.9V34.6
			c0.7,0.1,1.3,0.2,2,0.2c5.4,0,9.8-4.4,9.8-9.8S43.8,15.2,38.4,15.2z M12.8,2.9c0-0.5,0.4-1,1-1h7.6c0.5,0,1,0.4,1,1v3.8h-9.5V2.9z
			 M10.8,8.7h13.5h2.3v3.4h-18V8.7H10.8z M34.4,45.4c0,1.1-0.9,2-2,2H3.9c-1.1,0-2-0.9-2-2V10.7c0-1.1,0.9-2,2-2h2.7v5.4h22V8.7h3.9
			c1.1,0,2,0.9,2,2v5.4c-3.4,1.5-5.8,5-5.8,9s2.4,7.4,5.8,9V45.4z M38.4,32.9c-0.7,0-1.4-0.1-2-0.3c-0.7-0.2-1.4-0.5-2-0.8
			c-2.3-1.4-3.9-3.9-3.9-6.8c0-2.9,1.6-5.4,3.9-6.8c0.6-0.4,1.3-0.6,2-0.8c0.6-0.2,1.3-0.3,2-0.3c4.3,0,7.9,3.5,7.9,7.9
			C46.3,29.4,42.8,32.9,38.4,32.9z"/>
		<polygon points="37,27.3 35.3,25.6 33.9,27 37.3,30.4 43.1,21.7 41.4,20.6 		"/>
	</g>
</g>
</svg>
