<?xml version="1.0" encoding="utf-8"?>
<!-- Generator: Adobe Illustrator 23.0.4, SVG Export Plug-In . SVG Version: 6.00 Build 0)  -->
<svg version="1.1" xmlns="http://www.w3.org/2000/svg" xmlns:xlink="http://www.w3.org/1999/xlink" x="0px" y="0px"
	 viewBox="0 0 39.9 39.7" style="enable-background:new 0 0 39.9 39.7;" xml:space="preserve">
<style type="text/css">
	.st0{fill:#69A0CB;}
	.st1{fill:#FFFFFF;}
	.st2{fill:#E0E1E1;}
	.st3{fill:#7C959C;}
	.st4{fill:#7B8A8F;}
	.st5{fill:#DAE3EA;}
	.st6{fill:#C9C5BD;}
	.st7{fill:#4892C3;}
	.st8{fill:#ABBED7;}
	.st9{fill:#7F9FC3;}
	.st10{fill:#A5BE95;}
	.st11{fill:#B6CE72;}
</style>
<g id="Layer_1">
	<g>
		<g>
			<circle class="st0" cx="34.4" cy="10.7" r="4.7"/>
		</g>
		<g>
			<circle class="st8" cx="19.8" cy="5.5" r="4.7"/>
		</g>
		<g>
			<path class="st8" d="M23.8,38.9h-8c-3,0-5.5-2.5-5.5-5.5v-8c0-3,2.5-5.5,5.5-5.5h8c3,0,5.5,2.5,5.5,5.5v8
				C29.3,36.5,26.8,38.9,23.8,38.9z"/>
		</g>
		<path class="st9" d="M23.3,20c1.8,0,4-0.2,5.1,1.1c0.9,1,0.9,3.4,0.9,4.9V33c0,1.6,0,4-0.9,5c-1.1,1.2-3.3,0.9-5,0.9
			c0,0,3-2.7,3-5s0-8.6,0-10.5S23.3,20,23.3,20z"/>
		<g>
			<circle class="st10" cx="5.5" cy="15.3" r="4.7"/>
		</g>
	</g>
</g>
<g id="Layer_2">
	<g>
		<path d="M23.7,31.9c0,0.9-0.7,1.7-1.7,1.7h-4.7c-0.9,0-1.7-0.7-1.7-1.7v-2.3h-1.6v2.3c0,1.8,1.5,3.2,3.2,3.2h4.7
			c1.8,0,3.2-1.5,3.2-3.2v-2.3h-1.6V31.9z"/>
		<rect x="16.5" y="24.9" width="1.6" height="2.4"/>
		<rect x="21.3" y="24.9" width="1.6" height="2.4"/>
		<path d="M39.9,10.7c0-3-2.5-5.5-5.5-5.5c-3,0-5.5,2.5-5.5,5.5c0,2.7,2,5,4.7,5.4v8H30c-0.4-2.8-2.8-4.9-5.7-4.9h-3.8v-8.3
			c2.6-0.4,4.7-2.7,4.7-5.4c0-3-2.5-5.5-5.5-5.5c-3,0-5.5,2.5-5.5,5.5c0,2.7,2,5,4.7,5.4v8.3h-3.8c-3.2,0-5.7,2.6-5.7,5.7v3.8H6.3
			v-8C8.9,20.3,11,18,11,15.3c0-3-2.5-5.5-5.5-5.5c-3,0-5.5,2.5-5.5,5.5c0,2.7,2,5,4.7,5.4v8.2c0,0.7,0.6,1.3,1.3,1.3h3.5V34
			c0,3.2,2.6,5.7,5.7,5.7h9.1c3.2,0,5.7-2.6,5.7-5.7v-8.3h3.8c0.7,0,1.3-0.6,1.3-1.3v-8.2C37.8,15.8,39.9,13.5,39.9,10.7z M15.9,5.5
			c0-2.1,1.7-3.9,3.9-3.9c2.1,0,3.9,1.7,3.9,3.9s-1.7,3.9-3.9,3.9C17.7,9.4,15.9,7.6,15.9,5.5z M1.6,15.3c0-2.1,1.7-3.9,3.9-3.9
			c2.1,0,3.9,1.7,3.9,3.9s-1.7,3.9-3.9,3.9C3.3,19.2,1.6,17.4,1.6,15.3z M28.5,34c0,2.3-1.9,4.1-4.1,4.1h-9.1
			c-2.3,0-4.1-1.9-4.1-4.1v-9.1c0-2.3,1.9-4.1,4.1-4.1h9.1c2.3,0,4.1,1.9,4.1,4.1V34z M34.4,14.6c-2.1,0-3.9-1.7-3.9-3.9
			s1.7-3.9,3.9-3.9c2.1,0,3.9,1.7,3.9,3.9S36.5,14.6,34.4,14.6z"/>
	</g>
</g>
</svg>
