<?xml version="1.0" encoding="utf-8"?>
<!-- Generator: Adobe Illustrator 23.0.4, SVG Export Plug-In . SVG Version: 6.00 Build 0)  -->
<svg version="1.1" id="Layer_1" xmlns="http://www.w3.org/2000/svg" xmlns:xlink="http://www.w3.org/1999/xlink" x="0px" y="0px"
	 viewBox="0 0 98.3 58.4" style="enable-background:new 0 0 98.3 58.4;" xml:space="preserve">
<style type="text/css">
	.st0{fill:#D9E3EA;}
	.st1{fill:#7B959C;}
</style>
<g>
	<g>
		<path class="st0" d="M46.4,40.3V18c0-4,3.3-7.3,7.3-7.3h29.7v37H53.7C49.7,47.7,46.4,44.4,46.4,40.3z"/>
	</g>
	<rect x="35.8" y="18.8" class="st1" width="10.5" height="20.8"/>
</g>
<path d="M98.5,21.8v-3.1H85V9.1H55.4c-4.8,0-8.9,3.3-10.2,7.7H33.9v10.8H-0.2v3.1h34.1v10.8h11.3c1.2,4.5,5.3,7.7,10.2,7.7H85v-9.6
	h13.5v-3.1H85V21.8H98.5z M44.4,37.6h-6.7v-17h6.7V37.6z M81.9,46.1H55.4c-3.4,0-6.3-2.3-7.2-5.5V17.7c0.9-3.2,3.8-5.5,7.2-5.5h26.5
	V46.1z"/>
</svg>
