<svg id="Capa_3" data-name="Capa 3" xmlns="http://www.w3.org/2000/svg" viewBox="0 0 339 309">
<defs>
<style>.cls-1{fill:#588fcd;}.cls-2{fill:#fff;}</style>
</defs>
<g id="Grupo_449" data-name="Grupo 449">
    <path id="Trazado_449" data-name="Trazado 449" class="cls-1" d="M99.05,149.15l62.48-107.5a10.45,10.45,0,0,1,18.13,0l61.42,107.6,61.41,107.6a10.52,10.52,0,0,1-9.14,15.73l-123.9-.1-123.89-.1a10.45,10.45,0,0,1-9-15.74Z"/>
    <g id="Grupo_448" data-name="Grupo 448">
        <path id="Trazado_450" data-name="Trazado 450" class="cls-2" d="M169.72,211.25h0a15.59,15.59,0,0,1-15.54-14.4L147.56,110a15.59,15.59,0,0,1,14.36-16.72c.39,0,.78,0,1.18,0h12.51a15.58,15.58,0,0,1,15.58,15.58c0,.35,0,.7,0,1l-5.88,86.84A15.59,15.59,0,0,1,169.72,211.25Z"/>
        <circle id="Elipse_115" data-name="Elipse 115" class="cls-2" cx="169.28" cy="235.24" r="16"/>
        </g>
    </g>
</svg>