<?xml version="1.0" encoding="utf-8"?>
<!-- Generator: Adobe Illustrator 23.0.4, SVG Export Plug-In . SVG Version: 6.00 Build 0)  -->
<svg version="1.1" id="Layer_1" xmlns="http://www.w3.org/2000/svg" xmlns:xlink="http://www.w3.org/1999/xlink" x="0px" y="0px"
	 viewBox="0 0 57.8 57.9" style="enable-background:new 0 0 57.8 57.9;" xml:space="preserve">
<style type="text/css">
	.st0{fill:#ABBED7;}
	.st1{fill:#7F9FC3;}
	.st2{fill:#A4BE95;}
</style>
<g>
	<g>
		<path class="st0" d="M54.8,43.4H2.9c-1.2,0-2.1-0.9-2.1-2.1v-5.6h56.1v5.6C56.9,42.5,56,43.4,54.8,43.4z"/>
	</g>
	<g>
		<path class="st1" d="M55.3,43.4H27.7c0-1.6,0-7.7,0-7.7h29.2v6C56.9,42.7,56.2,43.4,55.3,43.4z"/>
	</g>
	<circle class="st2" cx="32.4" cy="11.5" r="3.5"/>
	<circle class="st2" cx="25.3" cy="25.5" r="3.5"/>
</g>
<g>
	<path d="M27.9,13L27.9,13c0.5,2,2.3,3.5,4.5,3.5c2.6,0,4.6-2.1,4.6-4.6s-2.1-4.6-4.6-4.6c-2.2,0-4,1.5-4.5,3.5H21
		c-3.9,0-7.1,3.2-7.1,7.1v7.8h2.3v-7.8c0-2.7,2.2-4.8,4.8-4.8h6.9V13z M32.3,9.5c1.3,0,2.3,1,2.3,2.3s-1,2.3-2.3,2.3S30,13,30,11.8
		S31.1,9.5,32.3,9.5z"/>
	<path d="M41.6,19.7c0,2.7-2.2,4.8-4.8,4.8h-6.9c-0.5-2-2.3-3.5-4.5-3.5c-2.6,0-4.6,2.1-4.6,4.6s2.1,4.6,4.6,4.6
		c2.2,0,4-1.5,4.5-3.5h6.9c3.9,0,7.1-3.2,7.1-7.1v-7.9h-2.3V19.7z M25.4,28c-1.3,0-2.3-1.1-2.3-2.3c0-1.3,1-2.3,2.3-2.3
		s2.3,1,2.3,2.3C27.7,26.9,26.7,28,25.4,28z"/>
	<path d="M53.8,0H4C1.8,0,0,1.8,0,4v30.7v6.5c0,1.8,1.5,3.3,3.3,3.3h16l-5.1,11.1H1.1v2.3h12.1h31.3h12.3v-2.3H43.5l-5.1-11.1h16.1
		c1.8,0,3.3-1.5,3.3-3.3v-6.5V4C57.8,1.8,56,0,53.8,0z M40.9,55.6H16.8l5.1-11.1h13.9L40.9,55.6z M55.5,41.2c0,0.6-0.5,1-1,1H37.3
		H20.4H3.3c-0.6,0-1-0.5-1-1V37h53.1v4.2H55.5z M55.5,34.6H2.3V4C2.3,3,3,2.3,4,2.3h49.8c0.9,0,1.7,0.7,1.7,1.7V34.6z"/>
</g>
</svg>
