<?xml version="1.0" encoding="utf-8"?>
<!-- Generator: Adobe Illustrator 23.0.4, SVG Export Plug-In . SVG Version: 6.00 Build 0)  -->
<svg version="1.1" xmlns="http://www.w3.org/2000/svg" xmlns:xlink="http://www.w3.org/1999/xlink" x="0px" y="0px"
	 viewBox="0 0 37.3 36" style="enable-background:new 0 0 37.3 36;" xml:space="preserve">
<style type="text/css">
	.st0{fill:#B6CE72;}
	.st1{fill:#88BA46;}
	.st2{fill:#056A37;}
	.st3{fill:#279346;}
	.st4{fill:#FFDC8C;}
	.st5{fill:#FECC8A;}
	.st6{fill:#7C959C;}
	.st7{fill:#DAE3EA;}
	.st8{fill:#ABBED7;}
	.st9{fill:#7F9FC3;}
	.st10{fill:#FFFFFF;}
	.st11{fill:#A5BE95;}
	.st12{fill:#69A0CB;}
</style>
<g id="Layer_1">
	<g>
		<path class="st6" d="M10.6,0.7H2C1.3,0.7,0.7,1.3,0.7,2v20.4c0,0.7,0.6,1.2,1.2,1.2h8.6c0.7,0,1.2-0.6,1.2-1.2V2
			C11.8,1.3,11.3,0.7,10.6,0.7z"/>
		<path class="st7" d="M11.8,4.4h21.8c1.7,0,3,1.4,3,3v12.8c0,1.7-1.4,3-3,3h-6.1V32c0,1.8-1.5,3.3-3.3,3.3h0c-1.3,0-2.5-0.8-3-2
			l-0.7-1.7c-1.4-3.2-3.4-6-6-8.4l-2.6-2.3V4.4z"/>
	</g>
</g>
<g id="Layer_2">
	<path d="M33.6,3.7h-21V2c0-1.1-0.9-2-2-2H2C0.9,0,0,0.9,0,2v20.4c0,1.1,0.9,2,2,2h8.6c1,0,1.8-0.7,1.9-1.7l1.4,1.2
		c2.5,2.3,4.5,5,5.8,8.1l0.7,1.7c0.6,1.5,2.1,2.4,3.7,2.4c2.2,0,4.1-1.8,4.1-4.1v-8h5.3c2.1,0,3.7-1.7,3.7-3.7V7.4
		C37.3,5.3,35.6,3.7,33.6,3.7z M11.1,22.3c0,0.3-0.2,0.5-0.5,0.5H2c-0.3,0-0.5-0.2-0.5-0.5V2c0-0.3,0.2-0.5,0.5-0.5h8.6
		c0.3,0,0.5,0.2,0.5,0.5v1.7v17.6V22.3z M35.9,20.2c0,1.3-1,2.3-2.3,2.3h-6.8V32c0,1.4-1.2,2.6-2.6,2.6c-1,0-2-0.6-2.4-1.5l-0.7-1.7
		c-1.4-3.3-3.5-6.2-6.2-8.6l-2.3-2.1V5.1h21c1.3,0,2.3,1,2.3,2.3V20.2z"/>
</g>
</svg>
