<?xml version="1.0" encoding="utf-8"?>
<!-- Generator: Adobe Illustrator 23.0.4, SVG Export Plug-In . SVG Version: 6.00 Build 0)  -->
<svg version="1.1" id="Layer_1" xmlns="http://www.w3.org/2000/svg" xmlns:xlink="http://www.w3.org/1999/xlink" x="0px" y="0px"
	 viewBox="0 0 53.3 53.3" style="enable-background:new 0 0 53.3 53.3;" xml:space="preserve">
<style type="text/css">
	.st0{fill:#ABBED7;}
	.st1{fill:#7F9FC3;}
	.st2{fill:#D9E3EA;}
	.st3{fill:#7B959C;}
</style>
<g>
	<g>
		<path class="st0" d="M31.9,19.9H21.3c-2.1,0-3.8-1.7-3.8-3.8V5c0-2.1,1.7-3.8,3.8-3.8l10.6,0C34,1.3,35.7,3,35.7,5v11.1
			C35.7,18.3,34,19.9,31.9,19.9z"/>
	</g>
	<g>
		<path class="st1" d="M31.9,19.9h-5.1V1.3l5.1,0C34,1.3,35.7,3,35.7,5v11.1C35.7,18.3,34,19.9,31.9,19.9z"/>
	</g>
	<g>
		<path class="st2" d="M44.8,52.1H26.6H8.5V32.2c0-3.6,3-6.5,6.6-6.5h23c3.7,0,6.6,2.9,6.6,6.5V52.1z"/>
	</g>
	<g>
		<path class="st3" d="M44.8,52.1H26.6l0,0V25.7h11.5c3.7,0,6.6,2.9,6.6,6.5V52.1z"/>
	</g>
</g>
<g>
	<g>
		<path d="M22.1,21.3h9.2c3.3,0,6-2.7,6-6V6c0-3.3-2.7-6-6-6h-9.2c-3.3,0-6,2.7-6,6v9.2C16,18.6,18.7,21.3,22.1,21.3z M18.7,6
			c0-1.9,1.5-3.4,3.4-3.4h9.2c1.9,0,3.4,1.5,3.4,3.4v9.2c0,1.9-1.5,3.4-3.4,3.4h-9.2c-1.9,0-3.4-1.5-3.4-3.4
			C18.7,15.2,18.7,6,18.7,6z"/>
		<path d="M38.5,24.3H14.9c-4.5,0-8.1,3.5-8.1,7.8v21.2h39.9V32.2C46.6,27.9,43,24.3,38.5,24.3z M44,50.7H9.4V32.2
			c0-2.9,2.5-5.2,5.5-5.2h23.6c3,0,5.5,2.3,5.5,5.2V50.7z"/>
	</g>
</g>
</svg>
