<?xml version="1.0" encoding="utf-8"?>
<!-- Generator: Adobe Illustrator 23.0.4, SVG Export Plug-In . SVG Version: 6.00 Build 0)  -->
<svg version="1.1" id="Layer_1" xmlns="http://www.w3.org/2000/svg" xmlns:xlink="http://www.w3.org/1999/xlink" x="0px" y="0px"
	 viewBox="0 0 95.8 95.8" style="enable-background:new 0 0 95.8 95.8;" xml:space="preserve">
<style type="text/css">
	.st0{fill:#B6CE72;}
	.st1{fill:#7B959C;}
	.st2{fill:#D9E3EA;}
	.st3{fill:#010101;}
</style>
<g>
	<path class="st0" d="M17.3,7.6L14.7,3c-0.8-1.5-2.9-1.5-3.7,0L8.5,7.6C8.3,8,8,8.3,7.7,8.5L3,11c-1.5,0.8-1.5,2.9,0,3.7l4.6,2.5
		c0.4,0.2,0.6,0.5,0.8,0.8l2.5,4.6c0.8,1.5,2.9,1.5,3.7,0l2.5-4.6c0.2-0.4,0.5-0.6,0.8-0.8l4.6-2.5c1.5-0.8,1.5-2.9,0-3.7l-4.6-2.5
		C17.8,8.3,17.5,8,17.3,7.6z"/>
	<path class="st0" d="M52.3,7.6L49.8,3C49,1.6,46.8,1.6,46,3l-2.5,4.6C43.3,8,43,8.3,42.7,8.5L38.1,11c-1.5,0.8-1.5,2.9,0,3.7
		l4.6,2.5c0.4,0.2,0.6,0.5,0.8,0.8l2.5,4.6c0.8,1.5,2.9,1.5,3.7,0l2.5-4.6c0.2-0.4,0.5-0.6,0.8-0.8l4.6-2.5c1.5-0.8,1.5-2.9,0-3.7
		l-4.6-2.5C52.8,8.3,52.5,8,52.3,7.6z"/>
	<path class="st0" d="M87.3,7.6L84.8,3c-0.8-1.5-2.9-1.5-3.7,0l-2.5,4.6C78.3,8,78,8.3,77.7,8.5L73.1,11c-1.5,0.8-1.5,2.9,0,3.7
		l4.6,2.5c0.4,0.2,0.6,0.5,0.8,0.8l2.5,4.6c0.8,1.5,2.9,1.5,3.7,0l2.5-4.6c0.2-0.4,0.5-0.6,0.8-0.8l4.6-2.5c1.5-0.8,1.5-2.9,0-3.7
		l-4.6-2.5C87.8,8.3,87.5,8,87.3,7.6z"/>
	<path class="st1" d="M7.6,93.9c-1.8,0-3.2-1.4-3.2-3.2v-9.7c0-1.8,1.4-3.2,3.2-3.2h37c1.8,0,3.2,1.4,3.2,3.2v9.7
		c0,1.8-1.4,3.2-3.2,3.2H7.6z"/>
	<path class="st2" d="M8.3,77.7V35.3c0-2.5,2-4.6,4.6-4.6h3.3c2.5,0,4.6,2,4.6,4.6v13.7H35c4.8,0,8.8,3.9,8.8,8.8v20H8.3z"/>
</g>
<g>
	<path class="st3" d="M45.7,76V57.7C45.7,51.8,40.9,47,35,47H22.7V35.2c0-3.6-2.9-6.5-6.5-6.5h-3.3c-3.6,0-6.5,2.9-6.5,6.5V76
		c-2.3,0.5-4,2.5-4,5v9.7c0,2.8,2.3,5.1,5.1,5.1h37c2.8,0,5.1-2.3,5.1-5.1V81C49.7,78.5,48,76.5,45.7,76z M10.3,35.2
		c0-1.5,1.2-2.7,2.7-2.7h3.3c1.5,0,2.7,1.2,2.7,2.7v15.6h16c3.8,0,6.9,3.1,6.9,6.9v18.1H10.3V35.2z M45.9,90.7
		c0,0.7-0.6,1.3-1.3,1.3h-37c-0.7,0-1.3-0.6-1.3-1.3V81c0-0.7,0.6-1.3,1.3-1.3h37c0.7,0,1.3,0.6,1.3,1.3V90.7z"/>
	<path class="st3" d="M6.9,19l2.5,4.6c0.7,1.3,2.1,2.1,3.5,2.1l0,0c1.5,0,2.8-0.8,3.5-2.1L19,19c0,0,0-0.1,0.1-0.1l4.6-2.5
		c1.3-0.7,2.1-2.1,2.1-3.5c0-1.5-0.8-2.8-2.1-3.5l-4.6-2.5c0,0-0.1,0-0.1-0.1l-2.5-4.6C15.7,0.8,14.4,0,12.9,0s-2.8,0.8-3.5,2.1
		L6.9,6.7c0,0,0,0.1-0.1,0.1L2.2,9.3c-1.3,0.7-2.1,2.1-2.1,3.5c0,1.5,0.8,2.8,2.1,3.5L6.9,19C6.8,18.9,6.8,18.9,6.9,19z M3.9,12.8
		c0-0.1,0.1-0.2,0.1-0.2l4.6-2.5c0.7-0.4,1.2-0.9,1.6-1.6l2.5-4.6c0,0,0.1-0.1,0.2-0.1c0.1,0,0.2,0.1,0.2,0.1l2.5,4.6l0,0
		c0.4,0.7,0.9,1.2,1.6,1.6l4.6,2.5c0,0,0.1,0.1,0.1,0.2c0,0.1-0.1,0.2-0.1,0.2l-4.6,2.5c-0.7,0.4-1.2,0.9-1.6,1.6l-2.5,4.6
		c0,0-0.1,0.1-0.2,0.1c-0.1,0-0.2-0.1-0.2-0.1l-2.5-4.6c-0.4-0.7-0.9-1.2-1.6-1.6L4,13C4,13,3.9,13,3.9,12.8z"/>
	<path class="st3" d="M58.7,9.3l-4.6-2.5c0,0-0.1,0-0.1-0.1l-2.5-4.6C50.8,0.8,49.4,0,47.9,0s-2.8,0.8-3.5,2.1l-2.5,4.6
		c0,0,0,0.1-0.1,0.1l-4.6,2.5c-1.3,0.7-2.1,2.1-2.1,3.5c0,1.5,0.8,2.8,2.1,3.5l4.6,2.5c0,0,0.1,0,0.1,0.1l2.5,4.6
		c0.7,1.3,2.1,2.1,3.5,2.1l0,0c1.5,0,2.8-0.8,3.5-2.1L54,19c0,0,0-0.1,0.1-0.1l4.6-2.5c1.3-0.7,2.1-2.1,2.1-3.5
		C60.8,11.4,60,10,58.7,9.3z M56.9,13l-4.6,2.5c-0.7,0.4-1.2,0.9-1.6,1.6l-2.5,4.6c0,0-0.1,0.1-0.2,0.1c-0.1,0-0.2-0.1-0.2-0.1
		l-2.5-4.6c-0.4-0.7-0.9-1.2-1.6-1.6L39,13c0,0-0.1-0.1-0.1-0.2c0-0.1,0.1-0.2,0.1-0.2l4.6-2.5c0.7-0.4,1.2-0.9,1.6-1.6l2.5-4.6
		c0,0,0.1-0.1,0.2-0.1c0.1,0,0.2,0.1,0.2,0.1l2.5,4.6l0,0c0.4,0.7,0.9,1.2,1.6,1.6l4.6,2.5c0,0,0.1,0.1,0.1,0.2
		C57,13,56.9,13,56.9,13z"/>
	<path class="st3" d="M93.7,9.3l-4.6-2.5c0,0-0.1,0-0.1-0.1l-2.5-4.6C85.8,0.8,84.4,0,83,0l0,0c-1.5,0-2.8,0.8-3.5,2.1L77,6.7
		c0,0,0,0.1-0.1,0.1l-4.6,2.5c-1.3,0.7-2.1,2.1-2.1,3.5s0.8,2.8,2.1,3.5l4.6,2.5c0,0,0.1,0,0.1,0.1l2.5,4.6c0.7,1.3,2.1,2.1,3.5,2.1
		l0,0c1.5,0,2.8-0.8,3.5-2.1L89,19c0,0,0-0.1,0.1-0.1l4.6-2.5c1.3-0.7,2.1-2.1,2.1-3.5C95.8,11.4,95,10,93.7,9.3z M91.9,13l-4.6,2.5
		c-0.7,0.4-1.2,0.9-1.6,1.6l-2.5,4.6c0,0-0.1,0.1-0.2,0.1s-0.2-0.1-0.2-0.1l-2.5-4.6c-0.4-0.7-0.9-1.2-1.6-1.6L74,13
		c0,0-0.1-0.1-0.1-0.2c0-0.1,0.1-0.2,0.1-0.2l4.6-2.5c0.7-0.4,1.2-0.9,1.6-1.6l2.5-4.6c0,0,0.1-0.1,0.2-0.1s0.2,0.1,0.2,0.1l2.5,4.6
		l0,0c0.4,0.7,0.9,1.2,1.6,1.6l4.6,2.5c0,0,0.1,0.1,0.1,0.2C92,13,91.9,13,91.9,13z"/>
</g>
</svg>
