<?xml version="1.0" encoding="utf-8"?>
<!-- Generator: Adobe Illustrator 23.0.4, SVG Export Plug-In . SVG Version: 6.00 Build 0)  -->
<svg version="1.1" id="Layer_1" xmlns="http://www.w3.org/2000/svg" xmlns:xlink="http://www.w3.org/1999/xlink" x="0px" y="0px"
	 viewBox="0 0 57.5 57.5" style="enable-background:new 0 0 57.5 57.5;" xml:space="preserve">
<style type="text/css">
	.st0{fill:#B6CE72;}
	.st1{fill:#A8A193;}
	.st2{fill:#A4BE95;}
</style>
<g>
	<g>
		<path class="st0" d="M56.8,35.9H0.7v12.6c0,4.2,3.4,7.6,7.6,7.6h40.9c4.2,0,7.6-3.4,7.6-7.6V35.9z"/>
	</g>
	<g>
		<rect x="0.7" y="35.9" class="st1" width="56.1" height="6.7"/>
	</g>
	<g>
		<path class="st0" d="M37.6,7.1h9.6c1.2,0,2.1,0.9,2.1,2.1v7.1c0,1.2-0.9,2.1-2.1,2.1h-9.6c-1.2,0-2.1-0.9-2.1-2.1V9.2
			C35.5,8,36.5,7.1,37.6,7.1z"/>
	</g>
	<g>
		<path class="st2" d="M24.7,16.4H11.2c-0.6,0-1.1,0.3-1.4,0.8L7.8,21c-0.5,0.9,0.3,2,1.4,2h17.4c1.1,0,1.9-1.1,1.4-2l-1.9-3.8
			C25.9,16.7,25.3,16.4,24.7,16.4z"/>
	</g>
</g>
<path d="M49.2,0H8.3C3.7,0,0,3.7,0,8.3v27.2v8.9v4.8c0,4.6,3.7,8.3,8.3,8.3h40.8c4.6,0,8.3-3.7,8.3-8.3v-4.8v-8.9V8.3
	C57.5,3.7,53.7,0,49.2,0z M2.3,8.3c0-3.3,2.7-6,6-6h40.8c3.3,0,6,2.7,6,6v27.2H43.5V19.4h3.4c1.8,0,3.3-1.5,3.3-3.3V9.3
	c0-1.8-1.5-3.3-3.3-3.3h-9.2c-1.8,0-3.3,1.5-3.3,3.3V16c0,1.8,1.5,3.3,3.3,3.3h3.4v16.1H29.3c0-0.1,0-0.2,0-0.4v-9.9
	c0-0.6-0.2-1.1-0.5-1.5l0.1-0.1c0.5-0.7,0.5-1.6,0.1-2.4l-1.9-3.7c-0.4-0.9-1.4-1.4-2.4-1.4H11.5c-1,0-1.9,0.5-2.4,1.4l-1.9,3.7
	c-0.4,0.8-0.4,1.7,0.1,2.4l0.1,0.1c-0.3,0.4-0.5,1-0.5,1.5V35c0,0.1,0,0.2,0,0.4H2.3V8.3z M41.2,17.1L41.2,17.1h-3.4
	c-0.6,0-1-0.5-1-1V9.3c0-0.6,0.5-1,1-1H47c0.6,0,1,0.5,1,1V16c0,0.6-0.5,1-1,1h-3.4h-2.4V17.1z M9.6,24.9h17.1
	c0.2,0,0.4,0.2,0.4,0.4v9.9c0,0.2-0.2,0.4-0.4,0.4H9.6c-0.2,0-0.4-0.2-0.4-0.4v-9.9C9.2,25,9.3,24.9,9.6,24.9z M9.2,22.2l1.9-3.7
	c0-0.1,0.2-0.2,0.3-0.2h13.3c0.2,0,0.3,0.1,0.3,0.2l1.9,3.8c0,0-0.1,0.2-0.3,0.2h-17C9.3,22.6,9.2,22.4,9.2,22.2z M49.2,55.2H8.3
	c-2.6,0-4.8-1.7-5.7-4h52.1C54,53.5,51.8,55.2,49.2,55.2z M55.2,48.9H2.3v-4.5h52.8v4.5H55.2z M55.2,42.1L55.2,42.1H2.3v-4.3h7.2
	h17.1h28.5v4.3H55.2z"/>
</svg>
