<?xml version="1.0" encoding="utf-8"?>
<!-- Generator: Adobe Illustrator 23.0.4, SVG Export Plug-In . SVG Version: 6.00 Build 0)  -->
<svg version="1.1" xmlns="http://www.w3.org/2000/svg" xmlns:xlink="http://www.w3.org/1999/xlink" x="0px" y="0px"
	 viewBox="0 0 104.7 104.9" style="enable-background:new 0 0 104.7 104.9;" xml:space="preserve">
<style type="text/css">
	.st0{fill:#ABBED7;}
	.st1{fill:#7F9FC3;}
	.st2{fill:#B6CE72;}
	.st3{fill:#A5BE95;}
</style>
<g id="Layer_1">
	<g>
		<g>
			<circle class="st0" cx="52.4" cy="52.5" r="50.3"/>
		</g>
		<g>
			<path class="st1" d="M77.4,8.9c15.1,8.7,25.3,25,25.3,43.6c0,27.8-22.5,50.3-50.3,50.3c-11.1,0-21.3-3.6-29.6-9.6
				c3.6,0.6,7.3-0.3,10.9-0.9c12.1-2.1,24.1-6.9,32.3-15.9c5.9-6.5,9.5-14.9,11.4-23.4s2.3-17.4,2.4-26.2C80,20.8,80.3,14,77.4,8.9z
				"/>
		</g>
		<g>
			<circle class="st2" cx="52.4" cy="46.2" r="6.3"/>
		</g>
		<g>
			<circle class="st2" cx="75.4" cy="8.4" r="6.3"/>
		</g>
		<g>
			<circle class="st2" cx="19.7" cy="35.3" r="6.3"/>
		</g>
		<g>
			<circle class="st2" cx="65.7" cy="76.8" r="6.3"/>
		</g>
		<g>
			<line class="st3" x1="77.5" y1="77.5" x2="77.5" y2="96"/>
		</g>
		<g>
			<line class="st3" x1="27.2" y1="8.9" x2="27.2" y2="27.4"/>
		</g>
	</g>
</g>
<g id="Layer_2">
	<g>
		<path d="M83.6,10.4c0.2-0.7,0.3-1.3,0.3-2.1c0-4.6-3.8-8.4-8.4-8.4c-2.5,0-4.8,1.1-6.3,2.9c-5.3-1.8-10.9-2.8-16.8-2.8
			C23.5,0.1,0,23.6,0,52.5c0,28.9,23.5,52.4,52.4,52.4c28.9,0,52.4-23.5,52.4-52.4C104.7,35.3,96.4,20,83.6,10.4z M75.4,4.2
			c2.1,0,3.8,1.6,4.2,3.6c0,0.2,0.1,0.4,0.1,0.6c0,1.4-0.7,2.5-1.6,3.3c-0.7,0.6-1.6,0.9-2.6,0.9c-2.3,0-4.2-1.9-4.2-4.2
			c0-0.1,0-0.2,0-0.2c0.1-1.6,1-2.9,2.3-3.5C74.1,4.3,74.8,4.2,75.4,4.2z M79.6,92.2V77.5h-4.2v17.4c-6.9,3.7-14.7,5.9-23.1,5.9
			c-25.9,0-47.1-20.6-48.1-46.3h9v-4.2h-9C5,34.7,13.1,21,25.1,12.7v14.7h4.2V10.2C36.2,6.4,44,4.3,52.4,4.3
			c5.2,0,10.2,0.8,14.9,2.4C67.1,7.2,67,7.8,67,8.4c0,3.9,2.7,7.2,6.3,8.1v7.4h4.2v-7.4c1.6-0.4,2.9-1.2,4-2.4
			c11,8.4,18.3,21.4,19,36.1h-9v4.2h9C99.9,70.1,91.8,83.9,79.6,92.2z"/>
		<path d="M60.8,46.2c0-4.6-3.8-8.4-8.4-8.4S44,41.6,44,46.2c0,3.9,2.7,7.2,6.3,8.1v7.4h4.2v-7.4C58.1,53.4,60.8,50.1,60.8,46.2z
			 M52.4,50.4c-2.3,0-4.2-1.9-4.2-4.2c0-2.3,1.9-4.2,4.2-4.2s4.2,1.9,4.2,4.2C56.6,48.5,54.7,50.4,52.4,50.4z"/>
		<path d="M21.8,43.4c3.6-0.9,6.3-4.2,6.3-8.1c0-4.6-3.8-8.4-8.4-8.4s-8.4,3.8-8.4,8.4c0,3.9,2.7,7.2,6.3,8.1v7.4h4.2V43.4z
			 M15.5,35.3c0-2.3,1.9-4.2,4.2-4.2s4.2,1.9,4.2,4.2s-1.9,4.2-4.2,4.2S15.5,37.6,15.5,35.3z"/>
		<path d="M65.7,68.4c-4.6,0-8.4,3.8-8.4,8.4c0,3.9,2.7,7.2,6.3,8.1v7.4h4.2v-7.4c3.6-0.9,6.3-4.2,6.3-8.1
			C74.1,72.2,70.3,68.4,65.7,68.4z M65.7,81c-2.3,0-4.2-1.9-4.2-4.2c0-2.3,1.9-4.2,4.2-4.2s4.2,1.9,4.2,4.2C69.9,79.1,68,81,65.7,81
			z"/>
		<path d="M79.6,42v-5.2c0-4.1-2.2-7.9-5.7-10l-2.1,3.6c2.3,1.3,3.7,3.7,3.7,6.4V42c0,4.3,2.1,8.2,5.7,10.4l2.2-3.5
			C81,47.5,79.6,44.9,79.6,42z"/>
		<rect x="52.4" y="25.4" width="11.1" height="4.2"/>
		<rect x="41.2" y="75.4" width="11.1" height="4.2"/>
		<path d="M29.2,68v-5.4c0-4.2-2.1-8-5.6-10.3l-2.3,3.5c2.3,1.5,3.7,4.1,3.7,6.8V68c0,4.1,2.2,7.9,5.8,10l2.1-3.6
			C30.6,73.1,29.2,70.6,29.2,68z"/>
	</g>
</g>
</svg>
