<?xml version="1.0" encoding="utf-8"?>
<!-- Generator: Adobe Illustrator 23.0.4, SVG Export Plug-In . SVG Version: 6.00 Build 0)  -->
<svg version="1.1" xmlns="http://www.w3.org/2000/svg" xmlns:xlink="http://www.w3.org/1999/xlink" x="0px" y="0px"
	 viewBox="0 0 38.3 39.8" style="enable-background:new 0 0 38.3 39.8;" xml:space="preserve">
<style type="text/css">
	.st0{fill:#69A0CB;}
	.st1{fill:#FFFFFF;}
	.st2{fill:#E0E1E1;}
	.st3{fill:#7C959C;}
	.st4{fill:#7B8A8F;}
	.st5{fill:#DAE3EA;}
	.st6{fill:#C9C5BD;}
	.st7{fill:#4892C3;}
	.st8{fill:#ABBED7;}
	.st9{fill:#7F9FC3;}
	.st10{fill:#A5BE95;}
	.st11{fill:#B6CE72;}
</style>
<g id="Layer_1">
	<g>
		<g>
			<path class="st1" d="M7.3,25l15.6,0.2l0.3,3.6l0.1,0.6l3.8,0.1l7-4.1c0,0,1.9-0.3,3.4,1.5c1.5,1.9,0.6,3.4-0.6,4.5
				c-1.1,1.1-8.4,6.3-8.4,6.3s-4.8,1.4-10.1,1.4s-9.9,0.1-9.9,0.1s-2.2,0.1-2.1-3.2C6.5,32.7,7.3,25,7.3,25z"/>
		</g>
		<g>
			<g>
				<circle class="st3" cx="19.4" cy="10.2" r="9.4"/>
			</g>
			<g>
				<circle class="st11" cx="19.4" cy="10.2" r="6.9"/>
			</g>
			<g>
				<g>
					<path class="st3" d="M5.9,39H3.2c-1.3,0-2.4-1.1-2.4-2.4V25.9c0-1.3,1.1-2.4,2.4-2.4h2.7c1.3,0,2.4,1.1,2.4,2.4v10.6
						C8.3,37.9,7.2,39,5.9,39z"/>
				</g>
			</g>
		</g>
	</g>
</g>
<g id="Layer_2">
	<g>
		<path d="M19.4,20.4c5.6,0,10.2-4.6,10.2-10.2C29.6,4.6,25,0,19.4,0S9.2,4.6,9.2,10.2C9.2,15.8,13.8,20.4,19.4,20.4z M19.4,1.6
			c4.7,0,8.6,3.9,8.6,8.6s-3.9,8.6-8.6,8.6c-4.7,0-8.6-3.9-8.6-8.6S14.7,1.6,19.4,1.6z"/>
		<path d="M19.4,17.9c4.3,0,7.7-3.5,7.7-7.7s-3.5-7.7-7.7-7.7c-4.3,0-7.7,3.5-7.7,7.7S15.2,17.9,19.4,17.9z M19.4,4
			c3.4,0,6.1,2.8,6.1,6.1s-2.8,6.1-6.1,6.1c-3.4,0-6.1-2.8-6.1-6.1S16,4,19.4,4z"/>
		<path d="M19.6,11.6c-0.5,0-1.2-0.3-1.7-0.7l-0.5,0.9c0.4,0.4,1,0.6,1.6,0.7v1h0.9v-1c0.9-0.1,1.5-0.6,1.5-1.4c0-1.7-2.5-1.2-2.5-2
			c0-0.2,0.2-0.3,0.5-0.3c0.4,0,1,0.2,1.5,0.5l0.4-0.9C21,8,20.5,7.9,19.9,7.8v-1H19v1c-0.8,0.2-1.3,0.6-1.3,1.4
			c0,1.7,2.5,1.2,2.5,2C20.2,11.4,19.9,11.6,19.6,11.6z"/>
		<path d="M36.2,26.3c-1.3-0.7-2.8-0.6-4.1,0.2l-3.5,2.4c-0.5,0.4-1.2,0.6-1.8,0.6h-2.3c0-0.1,0-0.2,0-0.4v-2.2
			c0-0.9-0.7-1.7-1.7-1.7H9c-0.4-1.4-1.7-2.5-3.3-2.5H3.4c-1.9,0-3.4,1.5-3.4,3.4v10.2c0,1.9,1.5,3.4,3.4,3.4h2.2
			c0.9,0,1.8-0.4,2.4-1c0.5,0.6,1.2,1,2,1h13.7c2.7,0,5.3-0.9,7.5-2.6l5.5-4.4c0.9-0.7,1.5-1.9,1.5-3.1
			C38.3,28.3,37.5,26.9,36.2,26.3z M5.7,38.2H3.4c-1,0-1.9-0.8-1.9-1.9V26.1c0-1,0.8-1.9,1.9-1.9h2.2c1,0,1.9,0.8,1.9,1.9v10.2
			C7.5,37.4,6.7,38.2,5.7,38.2z M35.8,31.6L30.3,36c-1.8,1.5-4.1,2.3-6.5,2.3H10.1c-0.5,0-0.9-0.4-0.9-0.9v-0.9v-9.6h13.7
			c0,0,0.1,0,0.1,0.1v2.2c0,0.7-0.6,1.3-1.3,1.3H16V32h5.6c0.9,0,1.6-0.4,2.2-1h3c1,0,1.9-0.3,2.7-0.8l3.5-2.4
			c0.7-0.5,1.6-0.6,2.4-0.1c0.8,0.4,1.3,1.2,1.3,2.1C36.7,30.4,36.4,31.1,35.8,31.6z"/>
	</g>
</g>
</svg>
