<?xml version="1.0" encoding="utf-8"?>
<!-- Generator: Adobe Illustrator 23.0.4, SVG Export Plug-In . SVG Version: 6.00 Build 0)  -->
<svg version="1.1" xmlns="http://www.w3.org/2000/svg" xmlns:xlink="http://www.w3.org/1999/xlink" x="0px" y="0px"
	 viewBox="0 0 54.9 54.9" style="enable-background:new 0 0 54.9 54.9;" xml:space="preserve">
<style type="text/css">
	.st0{fill:#DAE3EA;}
	.st1{fill:#7C959C;}
	.st2{fill:#ABBED7;}
</style>
<g id="Layer_2">
	<g>
		<path class="st0" d="M48.7,53.8H6.2c-2.8,0-5.1-2.3-5.1-5.1V5.5c0-2.4,2-4.4,4.4-4.4h43.9c2.4,0,4.4,2,4.4,4.4v43.2
			C53.8,51.5,51.5,53.8,48.7,53.8z"/>
	</g>
	<g>
		<path class="st1" d="M53.8,14.5H1.1v-9c0-2.4,2-4.4,4.4-4.4h43.9c2.4,0,4.4,2,4.4,4.4V14.5z"/>
	</g>
	<g>
		<path class="st2" d="M39,31.2L39,31.2c-0.4,0-0.8-0.3-0.9-0.7c-0.2-0.5-0.3-0.9-0.5-1.3c-0.2-0.4-0.1-0.8,0.2-1.1l0,0
			c0.7-0.7,0.7-1.9,0-2.6L36.2,24c-0.7-0.7-1.9-0.7-2.6,0l0,0c-0.3,0.3-0.7,0.3-1.1,0.2c-0.4-0.2-0.9-0.4-1.3-0.5
			c-0.4-0.1-0.7-0.5-0.7-0.9v0c0-1-0.8-1.8-1.8-1.8h-2.2c-1,0-1.8,0.8-1.8,1.8v0c0,0.4-0.3,0.8-0.7,0.9c-0.5,0.2-0.9,0.3-1.3,0.5
			c-0.4,0.2-0.8,0.1-1.1-0.2c-0.7-0.7-1.9-0.7-2.6,0l-1.5,1.5c-0.7,0.7-0.7,1.9,0,2.6l0,0c0.3,0.3,0.3,0.7,0.2,1.1
			c-0.2,0.4-0.4,0.9-0.5,1.3c-0.1,0.4-0.5,0.7-0.9,0.7h0c-1,0-1.8,0.8-1.8,1.8v2.2c0,1,0.8,1.8,1.8,1.8h0c0.4,0,0.8,0.3,0.9,0.7
			c0.2,0.5,0.3,0.9,0.5,1.3c0.2,0.4,0.1,0.8-0.2,1.1l0,0c-0.7,0.7-0.7,1.9,0,2.6l1.5,1.5c0.7,0.7,1.9,0.7,2.6,0
			c0.3-0.3,0.7-0.3,1.1-0.2c0.4,0.2,0.9,0.4,1.3,0.5c0.4,0.1,0.7,0.5,0.7,0.9v0c0,1,0.8,1.8,1.8,1.8h2.2c1,0,1.8-0.8,1.8-1.8v0
			c0-0.4,0.3-0.8,0.7-0.9c0.5-0.2,0.9-0.3,1.3-0.5c0.4-0.2,0.8-0.1,1.1,0.2l0,0c0.7,0.7,1.9,0.7,2.6,0l1.5-1.5
			c0.7-0.7,0.7-1.9,0-2.6l0,0c-0.3-0.3-0.3-0.7-0.2-1.1c0.2-0.4,0.4-0.9,0.5-1.3c0.1-0.4,0.5-0.7,0.9-0.7h0c1,0,1.8-0.8,1.8-1.8V33
			C40.8,32,40,31.2,39,31.2z M27.6,40.7c-3.6,0-6.6-3-6.6-6.6c0-3.6,3-6.6,6.6-6.6c3.6,0,6.6,3,6.6,6.6
			C34.2,37.7,31.3,40.7,27.6,40.7z"/>
	</g>
</g>
<g id="Layer_1">
	<g>
		<path d="M49.2,0H5.7C2.6,0,0,2.6,0,5.7v9.8v32.9c0,3.6,2.9,6.5,6.5,6.5h42c3.6,0,6.5-2.9,6.5-6.5V15.6V5.7C54.9,2.6,52.3,0,49.2,0
			z M2.2,5.7c0-2,1.6-3.5,3.5-3.5h43.4c2,0,3.5,1.6,3.5,3.5v7.6H2.2V5.7z M52.7,48.4c0,2.4-1.9,4.3-4.3,4.3h-42
			c-2.4,0-4.3-1.9-4.3-4.3V15.6h50.5V48.4z"/>
		<circle cx="6.8" cy="7.8" r="1.7"/>
		<circle cx="11.5" cy="7.8" r="1.7"/>
		<path d="M16.1,6.1c-0.9,0-1.7,0.7-1.7,1.7s0.7,1.7,1.7,1.7c0.9,0,1.7-0.7,1.7-1.7S17,6.1,16.1,6.1z"/>
		<path d="M16.2,38.1c0.2,0.4,0.3,0.9,0.5,1.3c-1.1,1.1-1,2.9,0.1,4l1.5,1.5c1.1,1.1,2.9,1.1,4,0.1c0.4,0.2,0.9,0.4,1.3,0.5
			c0.1,1.6,1.3,2.8,2.9,2.8h2.2c1.6,0,2.9-1.2,2.9-2.8c0.4-0.2,0.9-0.3,1.3-0.5c1.1,1.1,2.9,1,4-0.1l1.5-1.5c1.1-1.1,1.1-2.9,0.1-4
			c0.2-0.4,0.4-0.9,0.5-1.3c1.6-0.1,2.8-1.3,2.8-2.9V33c0-1.6-1.2-2.9-2.8-2.9c-0.2-0.4-0.3-0.9-0.5-1.3c1.1-1.1,1-2.9-0.1-4
			L37,23.2c-1.1-1.1-2.9-1.1-4-0.1c-0.4-0.2-0.9-0.4-1.3-0.5c-0.1-1.6-1.3-2.8-2.9-2.8h-2.2c-1.6,0-2.9,1.2-2.9,2.8
			c-0.4,0.2-0.9,0.3-1.3,0.5c-1.1-1.1-2.9-1-4,0.1l-1.5,1.5c-1.1,1.1-1.1,2.9-0.1,4c-0.2,0.4-0.4,0.9-0.5,1.3
			c-1.6,0.1-2.8,1.3-2.8,2.9v2.2C13.4,36.7,14.6,38,16.2,38.1z M15.6,33c0-0.4,0.3-0.7,0.7-0.7c0.9,0,1.6-0.6,1.9-1.4
			c0.1-0.4,0.3-0.8,0.5-1.2c0.4-0.8,0.2-1.7-0.4-2.3c-0.3-0.3-0.3-0.7,0-1l1.5-1.5c0.3-0.3,0.7-0.3,1,0c0.6,0.6,1.6,0.8,2.3,0.4
			c0.4-0.2,0.8-0.4,1.2-0.5c0.8-0.3,1.4-1.1,1.4-1.9c0-0.4,0.3-0.7,0.7-0.7h2.2c0.4,0,0.7,0.3,0.7,0.7c0,0.9,0.6,1.6,1.4,1.9
			c0.4,0.1,0.8,0.3,1.2,0.5c0.8,0.4,1.7,0.2,2.3-0.4c0.3-0.3,0.7-0.3,1,0l1.5,1.5c0.3,0.3,0.3,0.7,0,1c-0.6,0.6-0.8,1.6-0.4,2.3
			c0.2,0.4,0.4,0.8,0.5,1.2c0.3,0.8,1.1,1.4,1.9,1.4c0.4,0,0.7,0.3,0.7,0.7v2.2c0,0.4-0.3,0.7-0.7,0.7c-0.9,0-1.6,0.6-1.9,1.4
			c-0.1,0.4-0.3,0.8-0.5,1.2c-0.4,0.8-0.2,1.7,0.4,2.4c0.3,0.3,0.3,0.7,0,1l-1.5,1.5c-0.3,0.3-0.7,0.3-1,0c-0.6-0.6-1.6-0.8-2.3-0.4
			c-0.4,0.2-0.8,0.4-1.2,0.5c-0.8,0.3-1.4,1.1-1.4,1.9c0,0.4-0.3,0.7-0.7,0.7h-2.2c-0.4,0-0.7-0.3-0.7-0.7c0-0.9-0.6-1.6-1.4-1.9
			c-0.4-0.1-0.8-0.3-1.2-0.5c-0.3-0.1-0.6-0.2-0.9-0.2c-0.5,0-1,0.2-1.4,0.6c-0.3,0.3-0.7,0.3-1,0l-1.5-1.5c-0.3-0.3-0.3-0.7,0-1
			c0.6-0.6,0.8-1.6,0.4-2.3c-0.2-0.4-0.4-0.8-0.5-1.2c-0.3-0.8-1.1-1.4-1.9-1.4c-0.4,0-0.7-0.3-0.7-0.7V33z"/>
		<path d="M27.6,41.7c4.2,0,7.7-3.4,7.7-7.7c0-4.2-3.4-7.7-7.7-7.7c-4.2,0-7.7,3.4-7.7,7.7C19.9,38.3,23.4,41.7,27.6,41.7z
			 M27.6,28.6c3,0,5.5,2.5,5.5,5.5c0,3-2.5,5.5-5.5,5.5c-3,0-5.5-2.5-5.5-5.5C22.1,31,24.6,28.6,27.6,28.6z"/>
	</g>
</g>
</svg>
